<?xml version="1.0" encoding="UTF-8" standalone="no"?>
<svg
   xmlns:dc="http://purl.org/dc/elements/1.1/"
   xmlns:cc="http://creativecommons.org/ns#"
   xmlns:rdf="http://www.w3.org/1999/02/22-rdf-syntax-ns#"
   xmlns:svg="http://www.w3.org/2000/svg"
   xmlns="http://www.w3.org/2000/svg"
   xmlns:sodipodi="http://sodipodi.sourceforge.net/DTD/sodipodi-0.dtd"
   xmlns:inkscape="http://www.inkscape.org/namespaces/inkscape"
   inkscape:version="1.0 (4035a4f, 2020-05-01)"
   sodipodi:docname="108.svg"
   id="svg15989"
   height="200.0pt"
   width="200.0pt"
   viewBox="0 0 200 200"
   version="1.1">
  <metadata
     id="metadata15995">
    <rdf:RDF>
      <cc:Work
         rdf:about="">
        <dc:format>image/svg+xml</dc:format>
        <dc:type
           rdf:resource="http://purl.org/dc/dcmitype/StillImage" />
      </cc:Work>
    </rdf:RDF>
  </metadata>
  <defs
     id="defs15993" />
  <sodipodi:namedview
     inkscape:current-layer="svg15989"
     inkscape:cy="133.33333"
     inkscape:cx="133.33333"
     inkscape:zoom="1.75125"
     showgrid="false"
     id="namedview15991"
     inkscape:window-height="480"
     inkscape:window-width="640"
     inkscape:pageshadow="2"
     inkscape:pageopacity="0"
     guidetolerance="10"
     gridtolerance="10"
     objecttolerance="10"
     borderopacity="1"
     bordercolor="#666666"
     pagecolor="#ffffff" />
  <path
     style="fill:#ffffff;fill-opacity:0"
     id="path15957"
     fill="#ffffff"
     d="M 0.00 0.00 L 93.94 0.00 C 90.56 0.36 87.33 1.28 83.99 1.85 C 67.09 4.56 50.88 11.83 37.61 22.65 C 22.82 34.48 11.54 50.76 5.63 68.75 C 2.83 76.79 1.65 85.48 0.00 93.87 L 0.00 0.00 Z" />
  <path
     id="path15959"
     fill="#85764e"
     d="M 93.94 0.00 L 106.61 0.00 L 107.57 0.06 L 108.39 0.14 C 116.37 1.69 124.61 3.02 132.29 5.68 C 150.68 11.83 167.25 23.56 179.14 38.88 C 191.12 54.09 198.24 72.75 200.00 92.00 L 200.00 108.41 C 198.53 125.45 192.82 142.04 183.20 156.19 C 172.91 171.53 158.27 183.84 141.42 191.42 C 131.02 196.17 119.60 198.92 108.24 200.00 L 91.79 200.00 C 71.62 197.91 52.30 190.36 36.70 177.30 C 22.42 165.56 11.58 149.77 5.72 132.23 C 2.86 124.13 1.75 115.48 0.00 106.98 L 0.00 93.87 C 1.65 85.48 2.83 76.79 5.63 68.75 C 11.54 50.76 22.82 34.48 37.61 22.65 C 50.88 11.83 67.09 4.56 83.99 1.85 C 87.33 1.28 90.56 0.36 93.94 0.00 Z" />
  <path
     style="fill:#ffffff;fill-opacity:0"
     id="path15961"
     fill="#ffffff"
     d="M 106.61 0.00 L 200.00 0.00 L 200.00 92.00 C 198.24 72.75 191.12 54.09 179.14 38.88 C 167.25 23.56 150.68 11.83 132.29 5.68 C 124.61 3.02 116.37 1.69 108.39 0.14 L 107.57 0.06 L 106.61 0.00 Z" />
  <path
     id="path15963"
     fill="#0063a7"
     d="M 87.48 7.58 C 105.76 5.13 124.51 7.85 141.13 15.92 C 158.91 24.40 173.75 38.53 183.03 55.92 C 190.19 68.82 193.68 83.30 194.29 97.99 C 194.68 118.16 188.64 138.35 176.82 154.74 C 159.64 178.93 130.78 194.25 101.00 193.73 C 78.12 194.38 54.98 185.23 38.03 169.96 C 25.28 158.55 15.72 143.50 10.93 127.07 C 5.10 107.89 5.90 86.66 12.79 67.85 C 17.70 54.66 25.59 42.51 35.81 32.82 C 49.84 19.21 68.16 10.39 87.48 7.58 Z" />
  <path
     id="path15965"
     fill="#21201d"
     d="M 94.31 17.42 C 103.45 17.09 112.33 17.10 121.22 19.54 C 140.93 24.36 158.39 36.39 169.97 53.03 C 180.11 67.55 185.43 85.27 184.65 103.00 C 184.23 134.01 164.54 162.83 136.54 175.72 C 119.62 183.67 100.10 185.63 81.91 181.44 C 66.78 177.87 52.78 170.23 41.81 159.19 C 28.59 146.18 19.94 128.72 17.76 110.29 C 16.58 98.11 17.41 85.86 21.39 74.23 C 26.77 58.22 37.12 43.65 50.82 33.71 C 63.31 24.31 78.71 18.45 94.31 17.42 Z" />
  <path
     id="path15967"
     fill="#85764f"
     d="M 94.27 27.41 C 110.36 26.12 126.55 30.06 140.07 38.90 C 155.54 48.92 167.03 64.81 171.34 82.77 C 174.01 93.32 174.32 104.34 172.02 114.99 C 168.23 134.15 156.32 151.36 139.87 161.86 C 128.41 169.40 114.68 173.35 101.00 173.57 C 85.73 173.64 70.44 168.90 58.00 160.01 C 46.24 151.56 36.95 139.79 31.87 126.19 C 26.94 113.54 26.04 99.50 28.50 86.20 C 31.73 69.75 40.86 54.41 53.88 43.84 C 65.09 34.45 79.71 28.54 94.27 27.41 Z" />
  <path
     id="path15969"
     fill="#ffffff"
     d="M 114.98 35.15 C 132.31 38.88 147.63 49.91 157.02 64.90 C 154.54 67.50 152.15 70.16 149.86 72.93 C 145.20 65.12 139.32 58.32 131.65 53.33 C 119.70 45.29 104.37 41.98 90.21 44.77 C 76.83 47.12 64.65 54.56 56.18 65.16 C 48.02 75.26 43.76 88.07 43.76 101.03 C 44.12 111.67 47.01 122.12 52.95 131.03 C 61.57 144.58 76.16 153.86 92.01 156.25 C 102.10 157.53 112.35 156.62 121.77 152.62 C 133.71 147.75 143.34 138.86 149.85 127.79 C 152.24 130.50 154.62 133.21 157.00 135.92 C 150.21 146.42 140.80 155.10 129.48 160.49 C 116.05 167.10 100.61 168.70 86.01 165.63 C 73.90 162.95 62.60 156.96 53.76 148.24 C 40.78 135.79 33.35 117.98 33.56 100.00 C 33.53 85.19 38.72 70.53 47.90 58.93 C 56.05 48.36 67.79 40.53 80.47 36.50 C 91.61 33.08 103.61 32.60 114.98 35.15 Z" />
  <path
     id="path15971"
     fill="#ffffff"
     d="M 95.29 46.76 C 98.70 46.67 102.09 46.67 105.49 46.74 C 105.60 53.44 105.53 60.13 105.56 66.82 C 102.11 66.82 98.67 66.83 95.22 66.83 C 95.28 60.14 95.20 53.45 95.29 46.76 Z" />
  <path
     id="path15973"
     fill="#ffffff"
     d="M 108.38 47.31 C 116.22 48.45 123.57 51.44 130.19 55.75 C 128.00 58.14 125.85 60.57 123.76 63.05 C 118.78 60.51 113.77 58.32 108.27 57.15 C 108.27 53.88 108.13 50.57 108.38 47.31 Z" />
  <path
     id="path15975"
     fill="#ffffff"
     d="M 92.33 47.21 C 92.34 50.52 92.34 53.84 92.35 57.16 C 90.69 57.60 89.04 58.05 87.40 58.50 C 87.39 62.18 87.39 65.87 87.40 69.56 C 97.59 69.58 107.78 69.52 117.97 69.59 C 114.98 72.85 111.94 76.05 108.99 79.34 C 101.79 79.37 94.59 79.34 87.40 79.35 C 87.39 84.22 87.39 89.08 87.41 93.94 C 84.05 90.20 80.63 86.52 77.29 82.77 C 77.26 76.25 77.32 69.74 77.24 63.23 C 74.96 60.76 72.73 58.25 70.49 55.74 C 77.23 51.31 84.40 48.65 92.33 47.21 Z" />
  <path
     id="path15977"
     fill="#ffffff"
     d="M 58.78 66.51 C 70.10 78.77 81.12 91.34 92.36 103.69 C 92.33 108.86 92.36 114.03 92.30 119.20 C 84.78 110.67 77.06 102.31 69.52 93.80 C 69.28 110.61 69.54 127.42 69.39 144.23 C 66.22 141.62 62.69 139.01 60.12 135.79 C 59.02 134.62 59.36 132.52 59.25 131.02 C 59.37 114.87 59.21 98.72 59.34 82.57 C 57.25 80.19 55.11 77.87 52.95 75.56 C 54.55 72.33 56.43 69.26 58.78 66.51 Z" />
  <path
     id="path15979"
     fill="#ffffff"
     d="M 141.90 66.35 C 144.07 69.14 145.96 72.11 147.81 75.12 C 145.65 77.53 143.50 79.97 141.35 82.40 C 141.33 99.92 141.33 117.44 141.35 134.96 C 138.20 138.35 134.87 141.44 131.29 144.38 C 131.09 127.54 131.29 110.70 131.18 93.86 C 123.43 102.10 116.02 110.68 108.47 119.11 C 108.43 113.93 108.43 108.76 108.47 103.58 C 119.60 91.16 130.69 78.69 141.90 66.35 Z" />
  <path
     id="path15981"
     fill="#ffffff"
     d="M 95.25 82.60 C 98.68 82.60 102.11 82.60 105.54 82.60 C 105.57 106.30 105.52 129.99 105.56 153.69 C 102.11 153.81 98.68 153.81 95.22 153.68 C 95.28 129.98 95.23 106.29 95.25 82.60 Z" />
  <path
     id="path15983"
     fill="#ffffff"
     d="M 77.33 106.63 C 80.59 110.49 84.08 114.13 87.43 117.91 C 87.35 129.44 87.42 140.98 87.39 152.51 C 83.97 151.41 80.61 150.21 77.28 148.87 C 77.31 134.79 77.21 120.71 77.33 106.63 Z" />
  <path
     style="fill:#ffffff;fill-opacity:0"
     id="path15985"
     fill="#ffffff"
     d="M 0.00 106.98 C 1.75 115.48 2.86 124.13 5.72 132.23 C 11.58 149.77 22.42 165.56 36.70 177.30 C 52.30 190.36 71.62 197.91 91.79 200.00 L 0.00 200.00 L 0.00 106.98 Z" />
  <path
     style="fill:#ffffff;fill-opacity:0"
     id="path15987"
     fill="#ffffff"
     d="M 200.00 108.41 L 200.00 200.00 L 108.24 200.00 C 119.60 198.92 131.02 196.17 141.42 191.42 C 158.27 183.84 172.91 171.53 183.20 156.19 C 192.82 142.04 198.53 125.45 200.00 108.41 Z" />
</svg>
