<svg version="1.2" baseProfile="tiny-ps" xmlns="http://www.w3.org/2000/svg" viewBox="0 0 200 200" width="200" height="200">
	<title>109-svg</title>
	<style>
		tspan { white-space:pre }
		.shp0 { fill: #131516 } 
		.shp1 { fill: none } 
	</style>
	<path id="path15166" class="shp0" d="M68.22 0L71.23 0C71.23 6.68 71.34 13.37 71.21 20.04C71.25 20.83 70.85 21.52 70 22.12C67.39 22.4 64.6 22.39 61.99 22.1C60.73 20.95 60.95 19.57 60.85 18.01C60.87 12.08 60.89 6.15 60.87 0.21C61.99 0.19 63.11 0.16 64.23 0.14C64.22 6.58 64.23 13.01 64.22 19.45C65.45 19.45 66.68 19.44 67.91 19.44C68.05 12.98 67.55 6.43 68.22 0Z" />
	<path id="path15168" class="shp0" d="M75.23 0L78.31 0C78.43 6.42 78.25 12.84 78.43 19.26C80.02 18.36 81.56 18.12 81.88 16.02C82.53 10.75 81.9 5.32 82.25 0L85.41 0C85.45 5.01 85.53 10.02 85.43 15.03C85.48 17.55 84.38 19.9 82.2 21.23C80.1 22.56 77.34 22.2 74.93 22.3C75.07 14.89 74.59 7.39 75.23 0Z" />
	<path id="path15170" class="shp1" d="M78.31 0L82.25 0C81.9 5.32 82.53 10.75 81.88 16.02C81.56 18.12 80.02 18.36 78.43 19.26C78.25 12.84 78.43 6.42 78.31 0Z" />
	<path id="path15172" class="shp0" d="M100.43 0L103.47 0C104.93 2.75 106.04 5.62 107.3 8.45C107.4 5.64 107.42 2.82 107.47 0L110.67 0C110.75 7.42 110.68 14.84 110.71 22.26C109.61 22.27 108.5 22.28 107.39 22.29C107.37 19.68 107.57 17.02 107.26 14.43C106.4 11.82 104.94 9.37 103.73 6.89C103.6 12.05 103.71 17.21 103.67 22.37L100.56 22.23C100.1 14.87 100.43 7.38 100.43 0Z" />
	<path id="path15174" class="shp1" d="M103.47 0L107.47 0C107.42 2.82 107.4 5.64 107.3 8.45C106.04 5.62 104.93 2.75 103.47 0Z" />
	<path id="path15176" class="shp0" d="M123.7 0L124.02 0C123.81 1.02 123.63 2.05 123.48 3.09C122.44 3.07 121.39 3.04 120.35 3.02C120.31 9.43 120.34 15.85 120.33 22.27C119.07 22.27 117.82 22.27 116.56 22.28C116.55 15.85 116.58 9.43 116.54 3.01C115.4 3.04 114.25 3.07 113.1 3.1L113.5 0.23C116.76 0 120 0.3 123.25 0.09L123.7 0Z" />
	<path id="path15178" class="shp0" d="M126.24 0L129.23 0C129.82 6.45 129.37 12.99 129.52 19.47C130.77 19.46 132.02 19.45 133.27 19.44C133.22 13.2 133.38 6.93 133.23 0.7L132.66 0L136.48 0C136.51 7.01 136.73 14.08 136.4 21.08C135.15 22.82 132.87 22.15 131 22.32C129.62 22.15 126.56 22.72 126.38 20.72C126.03 13.84 126.35 6.89 126.24 0Z" />
	<path id="path15180" class="shp1" d="M129.23 0L132.66 0L133.23 0.7C133.38 6.93 133.22 13.2 133.27 19.44C132.02 19.45 130.77 19.46 129.52 19.47C129.37 12.99 129.82 6.45 129.23 0Z" />
	<path id="path15182" class="shp0" d="M140.92 0L148.15 0L149.64 1.43C149.73 2.81 149.88 4.27 149.65 5.64C148.9 6.52 147.52 6.81 146.49 7.31C146.46 5.83 146.42 4.35 146.4 2.87C145.31 2.87 144.22 2.88 143.13 2.88C143.15 4.49 143.16 6.1 143.19 7.71C145.7 9.37 148.15 11.09 150.44 13.04C150.48 15.77 150.48 18.49 150.49 21.22C148.39 22.3 146.3 22.4 143.99 22.32C142.28 22.14 140.91 22.67 139.91 20.93C139.69 19.04 139.76 17.1 139.73 15.2C140.87 15.23 142 15.25 143.13 15.28C143.13 16.67 143.13 18.06 143.13 19.45C144.37 19.45 145.6 19.45 146.84 19.46C146.8 17.8 146.87 16.09 146.59 14.45C144.64 12.54 141.21 11.34 139.93 8.92C139.73 6.14 139.13 2.34 140.92 0Z" />
	<path id="path15184" class="shp0" d="M50.55 0.15C52.9 0.16 55.26 0.15 57.62 0.14C57.51 5.76 57.89 11.45 57.45 17.05C56.6 21.15 53.26 22.15 49.52 22.47C49.53 21.36 49.54 20.25 49.55 19.14C51.19 18.6 53.6 19.2 53.7 16.85C54.05 12.28 53.74 7.64 53.82 3.05C52.75 3.05 51.68 3.06 50.61 3.07L50.55 0.15Z" />
	<path id="path15186" class="shp0" d="M88.64 0.15C91.44 0.16 94.28 0.05 97.07 0.29L97.55 3.07C95.84 3.01 94.13 2.94 92.42 2.89C92.41 5.11 92.4 7.34 92.4 9.57C93.85 9.56 95.3 9.55 96.74 9.55L96.09 12.32C94.87 12.4 93.64 12.44 92.4 12.45C92.4 14.77 92.4 17.1 92.41 19.43C94.1 19.41 95.79 19.39 97.48 19.37C97.36 20.33 97.25 21.29 97.13 22.26C94.3 22.27 91.47 22.27 88.63 22.27C88.63 14.9 88.63 7.52 88.64 0.15Z" />
	<path id="path15188" class="shp0" d="M49.52 40.11C69.76 40.18 90 40.15 110.24 40.13C110.26 69.08 110.27 98.05 110.25 127C110.25 136.99 107.07 146.77 100.09 154.06C91.05 163.88 76.85 169.56 64.96 175.16C60.73 169.99 57.24 164.32 54.86 158.07C62.22 154.71 70.1 151.38 76.74 146.75C81.89 143.11 86.36 138.61 88.51 132.56C90.18 128.05 89.89 123.72 89.91 119C89.9 98.51 89.9 78.03 89.91 57.54C76.44 57.54 62.97 57.54 49.5 57.55C49.51 51.74 49.48 45.92 49.52 40.11Z" />
	<path id="path15190" class="shp0" d="M129.82 40.15C136.71 40.14 143.61 40.14 150.5 40.15C150.49 69.43 150.51 98.72 150.49 128C150.6 133.12 149.51 137.89 148.9 142.99C146.95 156.11 141.41 168.53 132.09 178.08C122.87 187.74 111.7 193.98 99.89 199.9C93.04 196.54 86.37 192.86 80.03 188.6C90.12 183.38 101.1 178.22 110.03 171.04C116.27 166.07 121.44 159.89 124.67 152.55C128.63 143.55 129.83 133.76 129.81 124C129.82 96.05 129.81 68.1 129.82 40.15Z" />
</svg>