<?xml version="1.0" encoding="UTF-8" standalone="no"?>
<svg
   xmlns:dc="http://purl.org/dc/elements/1.1/"
   xmlns:cc="http://creativecommons.org/ns#"
   xmlns:rdf="http://www.w3.org/1999/02/22-rdf-syntax-ns#"
   xmlns:svg="http://www.w3.org/2000/svg"
   xmlns="http://www.w3.org/2000/svg"
   xmlns:sodipodi="http://sodipodi.sourceforge.net/DTD/sodipodi-0.dtd"
   xmlns:inkscape="http://www.inkscape.org/namespaces/inkscape"
   inkscape:version="1.0 (4035a4f, 2020-05-01)"
   sodipodi:docname="1106.svg"
   id="svg15493"
   height="200.0pt"
   width="200.0pt"
   viewBox="0 0 200 200"
   version="1.1">
  <metadata
     id="metadata15499">
    <rdf:RDF>
      <cc:Work
         rdf:about="">
        <dc:format>image/svg+xml</dc:format>
        <dc:type
           rdf:resource="http://purl.org/dc/dcmitype/StillImage" />
      </cc:Work>
    </rdf:RDF>
  </metadata>
  <defs
     id="defs15497" />
  <sodipodi:namedview
     inkscape:current-layer="svg15493"
     inkscape:cy="133.33333"
     inkscape:cx="133.33333"
     inkscape:zoom="1.75125"
     showgrid="false"
     id="namedview15495"
     inkscape:window-height="480"
     inkscape:window-width="640"
     inkscape:pageshadow="2"
     inkscape:pageopacity="0"
     guidetolerance="10"
     gridtolerance="10"
     objecttolerance="10"
     borderopacity="1"
     bordercolor="#666666"
     pagecolor="#ffffff" />
  <path
     style="fill:#ffffff;fill-opacity:0"
     id="path15379"
     fill="#ffffff"
     d="M 0.00 0.00 L 200.00 0.00 L 200.00 43.71 C 190.72 34.24 179.89 26.71 168.36 20.24 C 167.02 22.21 165.77 24.23 164.32 26.12 C 136.05 11.14 102.15 6.78 70.95 13.55 L 70.82 13.58 C 58.69 16.11 46.88 20.36 35.91 26.11 C 34.55 24.18 33.32 22.16 31.92 20.27 C 21.07 26.40 10.81 33.32 1.94 42.15 C 1.26 43.06 0.61 43.41 0.00 43.21 L 0.00 0.00 Z" />
  <path
     id="path15381"
     fill="#030000"
     d="M 164.32 26.12 C 165.77 24.23 167.02 22.21 168.36 20.24 C 179.89 26.71 190.72 34.24 200.00 43.71 L 200.00 43.78 C 193.00 44.14 185.94 44.06 178.95 44.54 C 178.78 50.39 178.59 56.24 178.53 62.10 C 175.46 59.62 172.42 57.08 169.49 54.44 L 168.47 54.16 C 168.22 69.83 169.29 85.94 167.12 101.46 C 164.17 123.88 155.35 145.27 140.24 162.24 C 132.61 170.74 123.75 178.08 113.81 183.74 C 109.46 186.17 104.84 188.66 100.01 189.92 C 86.16 185.11 73.54 176.10 63.31 165.70 C 48.37 150.39 38.69 130.74 34.60 109.82 C 30.60 90.91 32.19 73.25 31.83 54.09 C 28.20 55.99 25.35 59.84 21.81 61.87 C 21.78 56.06 21.68 50.28 21.31 44.49 C 14.23 43.97 7.04 44.41 0.00 43.54 L 0.00 43.21 C 0.61 43.41 1.26 43.06 1.94 42.15 C 10.81 33.32 21.07 26.40 31.92 20.27 C 33.32 22.16 34.55 24.18 35.91 26.11 C 46.88 20.36 58.69 16.11 70.82 13.58 L 70.65 14.56 C 56.99 17.52 43.19 22.42 31.36 29.93 C 36.18 36.69 41.50 43.16 47.08 49.31 L 47.87 49.18 C 58.61 43.40 70.07 38.75 81.92 35.81 C 89.90 33.99 97.80 32.89 106.00 33.71 C 122.38 35.41 138.60 41.74 153.03 49.49 C 158.67 43.39 164.19 36.68 168.96 29.87 C 140.67 12.72 104.85 7.58 72.58 14.06 L 70.95 13.55 C 102.15 6.78 136.05 11.14 164.32 26.12 Z" />
  <path
     id="path15383"
     fill="#ed1c24"
     d="M 168.96 29.87 C 164.19 36.68 158.67 43.39 153.03 49.49 C 138.60 41.74 122.38 35.41 106.00 33.71 C 97.80 32.89 89.90 33.99 81.92 35.81 C 70.07 38.75 58.61 43.40 47.87 49.18 L 47.08 49.31 C 41.50 43.16 36.18 36.69 31.36 29.93 C 43.19 22.42 56.99 17.52 70.65 14.56 L 70.82 13.58 L 70.95 13.55 L 72.58 14.06 C 104.85 7.58 140.67 12.72 168.96 29.87 Z" />
  <path
     id="path15385"
     fill="#ffffff"
     d="M 94.08 17.25 C 94.86 17.25 95.64 17.26 96.42 17.29 C 97.29 20.35 98.76 23.27 100.13 26.14 C 99.93 27.12 99.55 28.08 98.98 29.01 C 97.12 25.46 95.75 21.64 93.94 18.04 L 94.08 17.25 Z" />
  <path
     id="path15387"
     fill="#030000"
     d="M 103.30 17.36 C 103.73 17.79 103.73 17.79 103.30 17.36 Z" />
  <path
     id="path15389"
     fill="#ffffff"
     d="M 82.28 18.55 C 83.05 18.45 83.82 18.37 84.59 18.30 C 84.96 22.18 85.61 26.04 86.00 29.92 L 83.56 30.37 C 83.47 26.52 82.40 22.22 82.28 18.55 Z" />
  <path
     id="path15391"
     fill="#030000"
     d="M 89.47 18.57 C 89.47 18.57 89.47 18.57 89.47 18.57 Z" />
  <path
     id="path15393"
     fill="#ffffff"
     d="M 108.07 17.44 L 110.74 17.68 C 110.35 21.56 109.54 25.57 109.71 29.46 L 106.97 29.09 C 107.39 25.23 108.17 21.32 108.07 17.44 Z" />
  <path
     id="path15395"
     fill="#030000"
     d="M 114.20 18.38 C 115.08 18.45 115.94 18.60 116.77 18.83 C 116.55 19.98 113.17 20.07 114.20 18.38 Z" />
  <path
     id="path15397"
     fill="#ffffff"
     d="M 119.94 19.02 C 120.82 19.12 121.69 19.26 122.53 19.44 C 124.34 22.45 125.50 25.78 127.37 28.77 L 126.85 31.84 L 126.14 31.61 C 124.22 27.39 121.66 23.27 119.94 19.02 Z" />
  <path
     id="path15399"
     fill="#ffffff"
     d="M 72.10 21.80 C 74.53 23.72 76.94 25.65 79.46 27.46 C 79.85 28.59 79.99 29.71 79.91 30.81 C 76.31 27.72 72.04 24.98 68.55 21.90 C 69.52 21.01 71.12 20.75 72.10 21.80 Z" />
  <path
     id="path15401"
     fill="#ffffff"
     d="M 132.03 21.77 C 133.00 21.97 133.96 22.24 134.91 22.57 C 136.09 22.96 137.27 23.38 138.44 23.79 C 137.08 27.44 135.85 31.20 134.78 34.95 C 133.93 34.68 133.09 34.40 132.24 34.12 C 133.91 30.83 134.41 27.12 136.07 23.85 C 134.28 22.79 134.06 21.57 131.85 23.11 L 132.03 21.77 Z" />
  <path
     id="path15403"
     fill="#ed1c24"
     d="M 30.81 21.94 C 30.76 24.59 30.46 27.22 30.33 29.86 C 33.26 34.97 37.54 39.40 41.10 44.08 L 41.10 44.76 C 34.95 49.69 28.96 55.16 22.75 59.96 C 22.50 54.66 22.66 49.11 22.14 43.87 C 15.96 42.98 9.07 43.34 2.77 43.07 L 3.74 41.73 C 10.99 34.69 19.15 28.93 27.79 23.74 C 28.79 23.13 29.80 22.53 30.81 21.94 Z" />
  <path
     id="path15405"
     fill="#030000"
     d="M 63.44 22.62 L 64.10 21.92 C 65.20 22.78 63.04 26.29 63.44 22.62 Z" />
  <path
     id="path15407"
     fill="#030000"
     d="M 111.97 23.75 L 113.90 24.06 C 112.49 24.80 111.54 24.74 111.06 23.90 L 111.97 23.75 Z" />
  <path
     id="path15409"
     fill="#ed1c24"
     d="M 169.42 22.05 C 170.46 22.49 171.45 23.02 172.41 23.65 C 179.99 28.23 187.26 33.22 193.84 39.16 C 195.10 40.38 196.72 41.48 197.59 43.01 C 191.15 43.25 184.73 43.24 178.30 43.65 C 177.50 48.96 177.95 54.67 177.60 60.07 C 171.43 55.05 165.38 49.84 159.29 44.73 L 159.05 44.19 C 162.40 40.17 165.78 36.13 168.81 31.86 C 171.01 29.47 169.25 25.02 169.42 22.05 Z" />
  <path
     id="path15411"
     fill="#ffffff"
     d="M 59.71 24.69 C 60.23 26.20 60.64 27.73 60.94 29.29 C 62.41 29.16 63.45 29.91 63.64 27.84 L 64.86 29.48 C 63.76 29.80 62.58 29.85 61.33 29.64 C 61.98 31.78 62.80 33.81 63.69 35.85 L 61.06 36.38 C 59.95 32.78 58.77 29.17 57.32 25.69 C 57.48 24.99 58.28 24.65 59.71 24.69 Z" />
  <path
     id="path15413"
     fill="#030000"
     d="M 141.50 25.56 C 141.50 25.56 141.50 25.56 141.50 25.56 Z" />
  <path
     id="path15415"
     fill="#ffffff"
     d="M 91.18 27.79 L 91.94 27.67 C 92.41 28.69 92.01 29.29 90.75 29.45 L 90.60 28.52 L 91.18 27.79 Z" />
  <path
     id="path15417"
     fill="#ffffff"
     d="M 148.15 26.99 C 144.12 29.40 142.37 33.53 142.91 38.14 C 140.03 35.76 140.13 31.28 142.78 28.77 C 144.32 27.25 146.10 27.15 148.15 26.99 Z" />
  <path
     id="path15419"
     fill="#ffffff"
     d="M 49.74 28.11 C 52.27 27.66 54.37 26.99 55.35 30.03 C 54.83 31.04 54.27 32.02 53.66 32.97 C 55.37 32.99 56.84 32.44 57.89 34.17 C 59.02 36.18 56.89 38.15 55.29 39.02 C 56.70 36.24 55.38 33.22 52.05 33.63 C 54.19 30.69 52.65 28.99 49.74 28.11 Z" />
  <path
     id="path15421"
     fill="#ffffff"
     d="M 48.32 29.22 C 49.92 32.71 51.12 36.79 53.41 39.86 L 50.73 40.90 C 49.43 37.21 47.71 33.61 45.97 30.10 C 46.74 29.78 47.53 29.49 48.32 29.22 Z" />
  <path
     id="path15423"
     fill="#030000"
     d="M 114.35 29.36 C 114.57 29.59 114.57 29.59 114.35 29.36 Z" />
  <path
     id="path15425"
     fill="#ffffff"
     d="M 151.16 28.68 C 153.82 30.80 154.03 34.40 152.09 37.10 C 150.58 39.21 148.42 39.66 145.99 39.92 C 149.74 37.36 151.91 33.26 151.16 28.68 Z" />
  <path
     id="path15427"
     fill="#030000"
     d="M 71.32 32.25 C 71.79 32.72 71.79 32.72 71.32 32.25 Z" />
  <path
     id="path15429"
     fill="#fff200"
     d="M 92.52 34.85 C 92.55 38.15 92.51 41.45 92.60 44.75 C 91.82 44.96 91.03 45.16 90.24 45.36 C 90.87 45.91 91.51 46.45 92.14 47.00 C 92.34 50.34 92.30 53.74 92.13 57.08 L 90.89 56.96 C 88.87 53.19 87.31 49.13 85.67 45.19 L 84.38 45.32 C 83.03 49.01 81.21 52.48 79.85 56.16 C 78.99 55.64 78.11 55.14 77.22 54.66 C 77.20 52.91 77.20 51.16 77.13 49.41 C 77.76 49.56 78.40 49.72 79.04 49.87 C 78.80 48.29 78.59 46.83 78.91 45.23 L 77.15 44.69 C 77.21 42.52 77.24 40.35 77.16 38.18 C 82.19 36.54 87.32 35.70 92.52 34.85 Z" />
  <path
     id="path15431"
     fill="#ed1c24"
     d="M 92.52 34.85 C 97.65 34.39 102.66 34.39 107.79 34.85 C 107.93 38.07 107.40 41.67 108.04 44.79 C 110.15 45.08 111.92 45.94 114.03 45.12 C 116.48 45.30 118.76 45.25 121.20 44.98 C 120.53 45.73 119.88 46.49 119.24 47.26 C 119.80 50.78 118.18 55.44 120.56 58.24 C 118.85 58.28 117.13 58.36 115.42 58.48 L 115.22 57.12 L 118.63 57.72 C 118.46 53.75 118.46 49.76 118.62 45.79 C 117.47 45.71 116.54 46.00 115.81 46.66 L 114.19 46.49 L 113.17 46.38 L 114.19 46.49 C 114.36 47.73 114.39 48.96 114.28 50.18 C 112.61 49.76 113.15 47.87 111.83 47.14 C 110.57 46.30 109.28 46.21 107.94 46.86 C 107.66 49.56 107.74 52.31 107.79 55.03 C 107.72 55.88 108.12 56.65 108.97 57.33 C 111.14 57.06 112.51 55.80 114.14 54.51 C 114.78 58.16 110.33 58.55 107.79 58.59 C 107.71 62.40 107.81 66.21 107.74 70.02 C 104.65 68.82 101.43 68.07 98.09 68.19 C 95.57 68.67 94.72 72.54 92.79 73.28 C 92.11 68.37 92.93 63.19 92.38 58.26 C 89.97 58.32 87.56 58.40 85.15 58.30 C 85.46 57.49 85.98 56.78 86.71 56.15 C 85.89 54.19 81.58 54.12 81.02 56.22 C 82.19 56.79 82.80 57.49 82.84 58.34 C 80.93 58.37 79.03 58.28 77.13 58.12 C 77.35 73.84 77.13 89.58 77.25 105.31 C 75.21 107.66 72.60 109.54 70.70 111.98 C 73.08 112.95 74.84 112.02 77.19 111.62 C 77.22 113.13 77.23 114.64 77.22 116.16 C 76.15 117.51 74.90 117.23 73.39 117.56 C 73.08 117.94 72.76 118.32 72.45 118.70 C 73.60 120.49 75.26 120.62 77.22 120.75 C 77.23 122.33 77.21 123.90 77.17 125.47 C 72.01 125.04 67.02 124.82 62.13 126.81 C 61.78 123.52 61.95 120.30 61.92 117.00 C 61.94 92.52 61.87 68.03 61.95 43.54 C 66.91 41.49 71.97 39.57 77.16 38.18 C 77.24 40.35 77.21 42.52 77.15 44.69 L 78.91 45.23 C 78.59 46.83 78.80 48.29 79.04 49.87 C 78.40 49.72 77.76 49.56 77.13 49.41 C 77.20 51.16 77.20 52.91 77.22 54.66 C 78.11 55.14 78.99 55.64 79.85 56.16 C 81.21 52.48 83.03 49.01 84.38 45.32 L 85.67 45.19 C 87.31 49.13 88.87 53.19 90.89 56.96 L 92.13 57.08 C 92.30 53.74 92.34 50.34 92.14 47.00 C 91.51 46.45 90.87 45.91 90.24 45.36 C 91.03 45.16 91.82 44.96 92.60 44.75 C 92.51 41.45 92.55 38.15 92.52 34.85 Z" />
  <path
     id="path15433"
     fill="#fff200"
     d="M 107.79 34.85 C 112.98 35.65 118.09 36.61 123.14 38.11 C 123.06 40.63 123.45 43.38 122.92 45.84 C 121.46 47.45 120.18 48.62 120.18 50.98 C 120.17 52.30 120.16 55.83 122.02 55.98 C 122.64 57.31 123.33 58.43 123.18 59.97 C 123.12 66.79 123.23 73.62 123.11 80.45 C 120.87 79.39 118.53 78.65 116.17 77.92 C 113.65 74.96 110.45 72.80 107.74 70.02 C 107.81 66.21 107.71 62.40 107.79 58.59 C 110.33 58.55 114.78 58.16 114.14 54.51 C 112.51 55.80 111.14 57.06 108.97 57.33 C 108.12 56.65 107.72 55.88 107.79 55.03 C 107.74 52.31 107.66 49.56 107.94 46.86 C 109.28 46.21 110.57 46.30 111.83 47.14 C 113.15 47.87 112.61 49.76 114.28 50.18 C 114.39 48.96 114.36 47.73 114.19 46.49 L 115.81 46.66 C 116.32 49.78 116.05 53.04 116.08 56.20 L 115.22 57.12 L 115.42 58.48 C 117.13 58.36 118.85 58.28 120.56 58.24 C 118.18 55.44 119.80 50.78 119.24 47.26 C 119.88 46.49 120.53 45.73 121.20 44.98 C 118.76 45.25 116.48 45.30 114.03 45.12 C 111.92 45.94 110.15 45.08 108.04 44.79 C 107.40 41.67 107.93 38.07 107.79 34.85 Z" />
  <path
     id="path15435"
     fill="#ed1c24"
     d="M 123.14 38.11 C 128.28 39.66 133.35 41.41 138.29 43.52 C 138.36 65.02 138.36 86.53 138.29 108.03 C 136.53 108.77 134.76 109.51 132.95 110.14 C 130.86 108.66 128.57 110.27 127.01 108.54 C 125.59 108.82 124.49 109.50 123.10 108.73 C 123.21 103.11 123.17 97.49 123.13 91.88 C 123.21 90.19 123.26 88.67 122.72 87.03 L 123.24 84.44 C 124.48 85.27 125.33 85.92 126.89 85.89 C 127.42 83.30 124.97 81.70 123.11 80.45 C 123.23 73.62 123.12 66.79 123.18 59.97 C 123.33 58.43 122.64 57.31 122.02 55.98 C 123.16 56.68 124.32 57.35 125.49 58.00 C 122.75 54.56 122.53 48.92 125.54 45.59 C 120.59 47.08 119.61 51.82 122.02 55.98 C 120.16 55.83 120.17 52.30 120.18 50.98 C 120.18 48.62 121.46 47.45 122.92 45.84 C 123.45 43.38 123.06 40.63 123.14 38.11 Z" />
  <path
     style="fill:#ffffff;fill-opacity:0"
     id="path15437"
     fill="#ffffff"
     d="M 0.00 43.54 C 7.04 44.41 14.23 43.97 21.31 44.49 C 21.68 50.28 21.78 56.06 21.81 61.87 C 25.35 59.84 28.20 55.99 31.83 54.09 C 32.19 73.25 30.60 90.91 34.60 109.82 C 38.69 130.74 48.37 150.39 63.31 165.70 C 73.54 176.10 86.16 185.11 100.01 189.92 C 104.84 188.66 109.46 186.17 113.81 183.74 C 123.75 178.08 132.61 170.74 140.24 162.24 C 155.35 145.27 164.17 123.88 167.12 101.46 C 169.29 85.94 168.22 69.83 168.47 54.16 L 169.49 54.44 C 172.42 57.08 175.46 59.62 178.53 62.10 C 178.59 56.24 178.78 50.39 178.95 44.54 C 185.94 44.06 193.00 44.14 200.00 43.78 L 200.00 200.00 L 0.00 200.00 L 0.00 43.54 Z" />
  <path
     id="path15439"
     fill="#fff200"
     d="M 61.95 43.54 C 61.87 68.03 61.94 92.52 61.92 117.00 C 61.95 120.30 61.78 123.52 62.13 126.81 C 60.02 127.45 57.87 128.03 55.80 128.80 C 54.87 130.37 55.74 133.05 55.29 134.92 C 57.01 136.15 57.17 138.00 58.54 139.47 C 59.63 140.91 61.06 141.77 61.83 143.48 C 61.95 148.91 61.94 154.33 62.08 159.75 L 61.12 159.21 C 55.47 152.48 50.37 145.06 46.65 137.08 C 46.69 108.23 46.53 79.25 46.74 50.41 L 47.92 50.26 C 52.51 47.79 57.15 45.55 61.95 43.54 Z" />
  <path
     id="path15441"
     fill="#fff200"
     d="M 138.29 43.52 C 143.16 45.51 147.86 47.86 152.51 50.31 L 153.65 50.38 C 153.68 78.25 153.64 106.13 153.67 134.01 C 153.60 135.32 153.91 137.03 153.21 138.19 C 149.15 145.89 144.36 153.71 138.28 159.98 C 138.38 144.26 138.33 128.55 138.31 112.83 C 140.08 112.04 141.89 111.32 143.64 110.48 C 144.19 109.44 142.56 107.52 142.24 106.44 C 140.91 106.94 139.60 107.49 138.29 108.03 C 138.36 86.53 138.36 65.02 138.29 43.52 Z" />
  <path
     id="path15443"
     fill="#ed1c24"
     d="M 42.02 45.17 C 43.59 46.92 45.20 48.63 46.74 50.41 C 46.53 79.25 46.69 108.23 46.65 137.08 C 50.37 145.06 55.47 152.48 61.12 159.21 L 62.08 159.75 C 61.94 154.33 61.95 148.91 61.83 143.48 C 66.81 141.52 72.17 140.58 77.16 138.61 L 77.32 141.42 C 76.68 142.82 76.02 144.21 75.40 145.62 L 77.19 145.67 C 77.27 155.08 77.18 164.49 77.23 173.89 L 77.48 174.52 C 82.22 178.03 87.24 181.25 92.54 183.85 C 92.56 170.86 92.52 157.87 92.55 144.89 C 94.53 143.91 95.86 142.33 97.18 140.63 C 98.27 141.59 99.71 141.63 101.50 140.76 C 100.42 142.21 99.64 144.53 102.06 144.77 C 103.94 144.87 105.89 144.52 107.78 144.37 C 107.74 157.48 107.80 170.58 107.75 183.69 C 112.83 181.48 118.99 177.69 123.16 174.02 C 123.04 162.04 123.41 149.93 122.96 137.98 C 123.65 136.49 123.51 135.77 123.14 134.25 C 123.10 129.13 123.33 123.97 123.02 118.86 C 123.65 118.43 124.29 118.02 124.93 117.61 C 128.25 120.28 133.88 118.10 135.01 114.14 C 136.12 113.71 137.22 113.28 138.31 112.83 C 138.33 128.55 138.38 144.26 138.28 159.98 C 144.36 153.71 149.15 145.89 153.21 138.19 C 153.91 137.03 153.60 135.32 153.67 134.01 C 153.64 106.13 153.68 78.25 153.65 50.38 C 155.13 48.70 156.67 47.08 158.07 45.33 C 161.39 47.32 164.42 50.62 167.59 52.99 C 167.49 66.33 167.90 79.71 167.15 93.03 C 165.85 108.98 162.11 124.51 154.90 138.85 C 144.75 159.24 127.70 176.30 107.16 186.21 C 104.86 187.23 102.50 188.44 100.03 188.98 C 96.87 188.04 93.86 186.55 90.92 185.09 C 72.15 175.43 56.61 159.92 46.70 141.30 C 37.73 124.50 33.59 105.94 32.85 87.00 C 32.75 75.68 32.84 64.36 32.79 53.04 C 35.80 50.33 39.00 47.86 42.02 45.17 Z" />
  <path
     id="path15445"
     fill="#ffffff"
     d="M 92.69 45.90 L 95.37 45.95 C 95.19 49.78 94.83 53.94 95.63 57.70 L 92.71 57.52 C 93.00 53.69 93.03 49.73 92.69 45.90 Z" />
  <path
     id="path15447"
     fill="#ffffff"
     d="M 108.32 45.58 C 104.20 48.36 104.09 55.26 108.40 57.87 C 105.57 57.70 103.15 55.91 102.74 53.03 C 102.02 49.44 104.75 46.04 108.32 45.58 Z" />
  <path
     id="path15449"
     fill="#030000"
     d="M 113.17 46.38 L 114.19 46.49 L 113.17 46.38 Z" />
  <path
     id="path15451"
     fill="#ffffff"
     d="M 118.62 45.79 C 118.46 49.76 118.46 53.75 118.63 57.72 L 115.22 57.12 L 116.08 56.20 C 116.05 53.04 116.32 49.78 115.81 46.66 C 116.54 46.00 117.47 45.71 118.62 45.79 Z" />
  <path
     id="path15453"
     fill="#ffffff"
     d="M 128.84 45.75 C 134.96 47.56 134.56 56.32 128.45 57.94 C 131.34 54.54 131.33 49.36 128.84 45.75 Z" />
  <path
     id="path15455"
     fill="#ffffff"
     d="M 72.74 45.52 C 68.65 48.61 68.62 55.45 73.22 58.04 C 68.17 57.60 65.37 52.74 68.25 48.34 C 69.47 46.81 70.97 45.87 72.74 45.52 Z" />
  <path
     id="path15457"
     fill="#ffffff"
     d="M 85.05 45.85 C 86.89 49.72 88.32 53.72 90.34 57.50 L 87.60 57.66 C 87.06 56.09 86.47 54.61 85.67 53.16 L 84.88 51.57 C 84.65 50.71 84.36 49.85 84.03 49.01 C 83.79 48.17 84.14 47.12 85.05 45.85 Z" />
  <path
     id="path15459"
     fill="#ffffff"
     d="M 125.54 45.59 C 122.53 48.92 122.75 54.56 125.49 58.00 C 124.32 57.35 123.16 56.68 122.02 55.98 C 119.61 51.82 120.59 47.08 125.54 45.59 Z" />
  <path
     id="path15461"
     fill="#030000"
     d="M 84.88 51.57 L 85.67 53.16 L 84.18 54.48 C 83.00 53.64 82.40 52.74 82.38 51.78 C 83.21 51.72 84.05 51.65 84.88 51.57 Z" />
  <path
     id="path15463"
     fill="#fff200"
     d="M 86.71 56.15 C 85.98 56.78 85.46 57.49 85.15 58.30 C 87.56 58.40 89.97 58.32 92.38 58.26 C 92.93 63.19 92.11 68.37 92.79 73.28 L 92.43 73.42 C 92.67 76.09 92.37 78.75 92.68 81.40 C 92.73 81.96 92.77 82.52 92.79 83.07 C 92.26 86.97 92.61 91.07 92.62 95.01 C 89.28 96.64 85.66 97.52 83.23 100.24 C 81.37 102.12 79.38 103.75 77.25 105.31 C 77.13 89.58 77.35 73.84 77.13 58.12 C 79.03 58.28 80.93 58.37 82.84 58.34 C 82.80 57.49 82.19 56.79 81.02 56.22 C 81.58 54.12 85.89 54.19 86.71 56.15 Z" />
  <path
     id="path15465"
     fill="#ffffff"
     d="M 98.09 68.19 C 101.43 68.07 104.65 68.82 107.74 70.02 C 110.45 72.80 113.65 74.96 116.17 77.92 C 118.53 78.65 120.87 79.39 123.11 80.45 C 124.97 81.70 127.42 83.30 126.89 85.89 C 125.33 85.92 124.48 85.27 123.24 84.44 C 122.73 83.86 119.75 83.13 120.10 84.60 C 120.88 85.50 121.81 86.27 122.72 87.03 C 123.26 88.67 123.21 90.19 123.13 91.88 C 122.44 92.30 121.76 92.72 121.07 93.13 C 120.35 92.32 119.53 91.65 118.62 91.13 C 118.56 92.61 119.76 94.14 119.42 95.54 C 119.01 97.17 117.96 97.49 116.44 97.74 C 117.06 100.90 117.47 106.71 121.15 107.83 L 123.10 108.73 C 124.49 109.50 125.59 108.82 127.01 108.54 C 128.57 110.27 130.86 108.66 132.95 110.14 C 134.76 109.51 136.53 108.77 138.29 108.03 C 139.60 107.49 140.91 106.94 142.24 106.44 C 142.56 107.52 144.19 109.44 143.64 110.48 C 141.89 111.32 140.08 112.04 138.31 112.83 C 137.22 113.28 136.12 113.71 135.01 114.14 C 133.88 118.10 128.25 120.28 124.93 117.61 C 124.29 118.02 123.65 118.43 123.02 118.86 C 121.84 123.63 119.10 127.33 116.15 131.18 C 115.07 132.40 115.17 133.82 114.70 135.42 C 113.50 135.66 112.77 136.19 112.49 137.03 C 116.34 140.04 119.20 133.45 123.14 134.25 C 123.51 135.77 123.65 136.49 122.96 137.98 C 120.93 140.30 118.97 142.67 116.68 144.75 C 113.71 144.71 110.75 144.40 107.78 144.37 C 105.89 144.52 103.94 144.87 102.06 144.77 C 99.64 144.53 100.42 142.21 101.50 140.76 C 99.71 141.63 98.27 141.59 97.18 140.63 C 95.86 142.33 94.53 143.91 92.55 144.89 C 91.03 144.89 89.72 144.63 88.28 144.16 C 84.73 145.06 80.83 144.98 77.19 145.67 L 75.40 145.62 C 76.02 144.21 76.68 142.82 77.32 141.42 C 79.06 138.56 82.17 138.73 84.26 136.25 C 86.04 134.79 86.19 132.79 86.45 130.63 C 84.65 131.35 83.37 132.73 81.71 133.69 C 80.47 135.69 79.22 137.39 77.16 138.61 C 72.17 140.58 66.81 141.52 61.83 143.48 C 61.06 141.77 59.63 140.91 58.54 139.47 C 57.17 138.00 57.01 136.15 55.29 134.92 C 55.74 133.05 54.87 130.37 55.80 128.80 C 57.87 128.03 60.02 127.45 62.13 126.81 C 67.02 124.82 72.01 125.04 77.17 125.47 C 79.54 127.30 81.59 126.12 84.29 126.68 C 83.33 124.38 82.98 123.01 83.46 120.48 C 81.37 120.59 79.30 120.73 77.22 120.75 C 75.26 120.62 73.60 120.49 72.45 118.70 C 72.76 118.32 73.08 117.94 73.39 117.56 C 74.90 117.23 76.15 117.51 77.22 116.16 C 78.82 114.42 80.59 112.82 82.10 111.00 C 80.45 111.10 78.82 111.34 77.19 111.62 C 74.84 112.02 73.08 112.95 70.70 111.98 C 72.60 109.54 75.21 107.66 77.25 105.31 C 79.38 103.75 81.37 102.12 83.23 100.24 C 85.66 97.52 89.28 96.64 92.62 95.01 L 95.66 93.92 C 95.47 92.72 95.51 91.55 95.80 90.43 C 95.17 90.03 94.53 89.63 93.89 89.23 C 94.70 87.61 96.14 86.94 97.45 85.80 C 95.29 85.22 94.23 84.83 92.79 83.07 C 92.77 82.52 92.73 81.96 92.68 81.40 C 95.65 81.51 98.76 83.67 101.57 81.65 C 104.07 80.50 103.68 77.00 103.77 74.71 C 102.23 74.04 100.67 73.42 99.07 72.92 C 97.43 73.16 95.04 75.36 93.81 73.71 L 92.43 73.42 L 92.79 73.28 C 94.72 72.54 95.57 68.67 98.09 68.19 Z" />
  <path
     id="path15467"
     fill="#030000"
     d="M 97.89 69.19 C 100.91 68.96 104.23 69.69 107.05 70.80 C 109.70 73.62 113.13 75.50 115.32 78.68 C 119.48 80.05 124.45 80.96 126.56 85.32 C 122.64 82.47 123.04 83.26 119.24 82.64 C 117.77 84.54 119.85 85.73 121.05 86.95 C 122.26 88.15 123.19 91.55 120.95 92.01 C 120.51 91.19 120.04 90.38 119.55 89.58 C 118.79 90.15 118.04 90.74 117.32 91.36 C 117.87 93.15 119.12 94.55 118.03 96.45 C 116.43 96.97 115.36 94.08 113.74 93.52 C 111.80 94.47 115.14 97.15 115.48 98.46 C 116.04 101.44 116.75 104.31 118.00 107.08 C 119.36 108.05 120.89 108.86 122.41 109.56 C 124.64 110.62 126.55 108.67 128.23 110.76 L 130.09 110.22 C 134.01 112.31 137.97 108.59 141.92 107.71 L 142.44 110.03 C 139.51 111.19 136.60 112.48 133.72 113.78 C 133.54 114.49 133.36 115.20 133.19 115.90 C 130.54 117.75 128.00 118.79 125.15 116.62 C 123.90 117.21 122.65 117.81 121.41 118.44 C 121.41 119.31 121.40 120.19 121.37 121.06 C 119.78 124.85 117.10 128.28 114.63 131.54 C 114.31 132.30 114.13 133.14 114.09 134.06 C 113.10 135.29 111.61 135.21 111.42 137.16 C 112.32 138.53 113.48 138.68 114.97 138.96 C 117.65 138.41 119.93 135.30 122.54 135.27 C 122.38 138.47 118.30 141.44 116.24 143.78 C 112.58 143.69 108.78 142.99 105.17 143.66 C 103.85 143.64 101.81 144.72 101.28 142.98 C 102.23 141.65 103.33 140.47 104.14 139.03 C 101.95 139.14 100.31 140.67 98.11 140.35 C 98.98 139.28 99.66 138.13 100.17 136.90 C 97.42 137.70 96.07 141.16 93.81 142.91 C 93.22 143.65 90.16 144.76 90.04 143.35 C 91.06 142.50 91.73 141.52 92.05 140.40 C 90.17 141.52 88.21 143.40 86.04 143.77 C 83.02 143.88 80.02 144.38 77.02 144.64 C 77.72 142.62 79.14 139.74 81.56 139.45 C 83.83 138.24 87.01 135.85 86.96 133.01 C 87.19 131.57 88.41 130.44 88.97 129.09 C 87.21 129.31 85.51 130.15 83.83 130.74 C 83.11 131.67 82.23 132.24 81.19 132.45 C 79.91 134.86 78.53 136.99 75.91 138.10 C 71.50 139.61 66.90 140.64 62.53 142.25 L 61.52 140.71 C 58.42 139.52 58.40 135.57 56.19 134.34 C 56.83 132.99 56.83 131.48 56.21 129.78 C 59.70 128.37 63.43 127.51 67.01 126.35 C 69.65 126.17 72.34 126.02 74.98 126.08 C 77.71 126.19 79.14 128.50 81.82 127.59 C 83.28 128.12 84.38 127.41 85.74 126.99 C 84.07 123.80 83.79 122.92 84.92 119.40 C 81.03 119.38 77.55 120.39 73.86 119.16 L 73.74 118.38 C 77.47 118.63 78.49 116.02 80.84 113.84 C 81.99 112.52 83.61 111.75 84.71 110.42 C 80.41 109.63 76.65 110.79 72.50 111.62 C 76.33 106.83 81.29 103.86 85.49 99.48 C 89.43 97.29 93.77 95.55 97.98 93.92 C 96.99 92.80 96.99 92.02 97.97 91.58 C 97.58 91.15 97.19 90.71 96.80 90.29 L 98.53 89.01 L 95.59 88.92 C 95.16 87.15 98.52 87.51 99.59 87.61 L 99.11 85.84 C 100.42 85.78 101.72 85.67 103.02 85.49 C 100.18 84.55 97.30 85.11 94.53 83.88 L 94.10 82.46 C 96.75 83.20 99.28 84.17 101.84 82.60 C 105.04 81.37 105.11 76.39 104.34 73.65 C 102.82 73.28 101.42 72.78 99.98 72.16 C 97.77 71.72 96.63 73.24 94.54 73.48 C 95.34 71.83 96.47 70.36 97.89 69.19 Z" />
  <path
     id="path15469"
     fill="#ed1c24"
     d="M 99.07 72.92 C 100.67 73.42 102.23 74.04 103.77 74.71 C 103.68 77.00 104.07 80.50 101.57 81.65 C 98.76 83.67 95.65 81.51 92.68 81.40 C 92.37 78.75 92.67 76.09 92.43 73.42 L 93.81 73.71 C 95.04 75.36 97.43 73.16 99.07 72.92 Z" />
  <path
     id="path15471"
     fill="#ed1c24"
     d="M 92.79 83.07 C 94.23 84.83 95.29 85.22 97.45 85.80 C 96.14 86.94 94.70 87.61 93.89 89.23 C 94.53 89.63 95.17 90.03 95.80 90.43 C 95.51 91.55 95.47 92.72 95.66 93.92 L 92.62 95.01 C 92.61 91.07 92.26 86.97 92.79 83.07 Z" />
  <path
     id="path15473"
     fill="#fff200"
     d="M 123.24 84.44 L 122.72 87.03 C 121.81 86.27 120.88 85.50 120.10 84.60 C 119.75 83.13 122.73 83.86 123.24 84.44 Z" />
  <path
     id="path15475"
     fill="#fff200"
     d="M 118.62 91.13 C 119.53 91.65 120.35 92.32 121.07 93.13 C 121.76 92.72 122.44 92.30 123.13 91.88 C 123.17 97.49 123.21 103.11 123.10 108.73 L 121.15 107.83 C 117.47 106.71 117.06 100.90 116.44 97.74 C 117.96 97.49 119.01 97.17 119.42 95.54 C 119.76 94.14 118.56 92.61 118.62 91.13 Z" />
  <path
     id="path15477"
     fill="#ffffff"
     d="M 111.62 109.18 C 112.36 114.16 117.09 114.10 120.98 115.33 C 120.69 117.26 120.11 117.04 118.54 116.41 C 114.75 114.53 111.08 114.83 107.01 114.54 C 107.36 112.60 109.54 109.41 111.62 109.18 Z" />
  <path
     id="path15479"
     fill="#fff200"
     d="M 82.10 111.00 C 80.59 112.82 78.82 114.42 77.22 116.16 C 77.23 114.64 77.22 113.13 77.19 111.62 C 78.82 111.34 80.45 111.10 82.10 111.00 Z" />
  <path
     id="path15481"
     fill="#fff200"
     d="M 110.87 110.85 C 111.53 111.84 112.20 112.80 112.75 113.85 C 111.53 113.62 109.15 114.25 108.52 113.00 C 109.17 111.91 109.95 111.19 110.87 110.85 Z" />
  <path
     id="path15483"
     fill="#fff200"
     d="M 123.02 118.86 C 123.33 123.97 123.10 129.13 123.14 134.25 C 119.20 133.45 116.34 140.04 112.49 137.03 C 112.77 136.19 113.50 135.66 114.70 135.42 C 115.17 133.82 115.07 132.40 116.15 131.18 C 119.10 127.33 121.84 123.63 123.02 118.86 Z" />
  <path
     id="path15485"
     fill="#fff200"
     d="M 77.22 120.75 C 79.30 120.73 81.37 120.59 83.46 120.48 C 82.98 123.01 83.33 124.38 84.29 126.68 C 81.59 126.12 79.54 127.30 77.17 125.47 C 77.21 123.90 77.23 122.33 77.22 120.75 Z" />
  <path
     id="path15487"
     fill="#fff200"
     d="M 86.45 130.63 C 86.19 132.79 86.04 134.79 84.26 136.25 C 82.17 138.73 79.06 138.56 77.32 141.42 L 77.16 138.61 C 79.22 137.39 80.47 135.69 81.71 133.69 C 83.37 132.73 84.65 131.35 86.45 130.63 Z" />
  <path
     id="path15489"
     fill="#fff200"
     d="M 122.96 137.98 C 123.41 149.93 123.04 162.04 123.16 174.02 C 118.99 177.69 112.83 181.48 107.75 183.69 C 107.80 170.58 107.74 157.48 107.78 144.37 C 110.75 144.40 113.71 144.71 116.68 144.75 C 118.97 142.67 120.93 140.30 122.96 137.98 Z" />
  <path
     id="path15491"
     fill="#fff200"
     d="M 88.28 144.16 C 89.72 144.63 91.03 144.89 92.55 144.89 C 92.52 157.87 92.56 170.86 92.54 183.85 C 87.24 181.25 82.22 178.03 77.48 174.52 L 77.23 173.89 C 77.18 164.49 77.27 155.08 77.19 145.67 C 80.83 144.98 84.73 145.06 88.28 144.16 Z" />
</svg>
