<svg version="1.2" baseProfile="tiny-ps" xmlns="http://www.w3.org/2000/svg" viewBox="0 0 200 200" width="200.0pt" height="200.0pt">
	<title>454-svg</title>
	<style>
		tspan { white-space:pre }
		.shp0 { fill: #010501 } 
		.shp1 { fill: #ffffff } 
		.shp2 { fill: #f66e01 } 
	</style>
	<path id="Layer" class="shp0" style="fill: #010501" d="M119.12 2.8C121.78 3.44 124.42 4.47 127.18 4.82C130.59 5.97 133.65 7.05 136.99 8.25C143.43 11.11 149.67 14.13 155.46 18.21C169.94 27.86 181.37 41.39 189.09 56.93C194.82 69.02 198.59 82.57 198.74 96C199.07 105.48 198.43 114.91 196.03 124.11C195.07 128.2 193.5 132.21 192.25 136.23C190.52 139.8 189 143.56 187.12 147.09C173.93 171.27 150.87 189.41 124.1 196C118.88 197.37 113.4 198.24 108.01 198.6C98.71 199.01 88.82 198.98 79.72 196.86C71.82 195.23 64.21 192.53 56.92 189.08C44.02 182.61 31.93 173.42 23.05 161.97C16.65 154.19 11.76 145.43 7.93 136.14C6.81 133.18 5.91 130.15 4.81 127.18C4.4 124.45 3.57 121.77 2.87 119.1C1.1 108.67 0.9 98.35 1.83 87.82C2.67 84.23 2.68 80.36 4.06 76.94C4.11 75.52 4.6 74.3 4.95 72.92C5.17 71.89 5.48 70.87 5.89 69.87C10.81 54.44 19.69 40.58 31.1 29.11C41.26 19.67 52.85 11.99 65.93 7.26C68.29 6.59 70.55 5.54 72.91 4.96C74.22 4.52 75.54 4.13 76.93 4.02C80.44 2.97 84.2 2.48 87.82 1.89C98.28 0.79 108.74 1.21 119.12 2.8Z" />
	<path id="Layer" class="shp1" style="fill: #ffffff" d="M87.5 4.78C103.69 2.73 120.31 4.63 135.48 10.71C154.04 18.01 170.15 31.26 180.95 48.02C199.37 76.04 201.36 113.3 186.11 143.15C177.51 160.27 163.73 174.66 147 183.98C132.75 191.97 116.35 196.29 100 196.14C80.75 196.3 61.49 190.23 45.65 179.32C28.9 167.84 15.93 151.02 9.23 131.84C3.8 116.54 2.59 99.99 5.17 84C8.75 62.79 19.65 43.07 35.67 28.72C50.02 15.73 68.3 7.28 87.5 4.78Z" />
	<path id="Layer" class="shp0" style="fill: #010501" d="M88.14 6.07C103.61 4.02 119.64 6.04 134.19 11.64C151.78 18.41 167.22 30.54 177.97 46.01C188.98 61.71 195.07 80.81 194.96 100C195.09 115.77 190.99 131.58 183.41 145.39C174.28 162.2 159.8 176.06 142.76 184.7C142.65 174.91 142.84 165.12 142.66 155.33C153.3 146.97 161.62 135.88 165.96 123.01C169.85 111.83 170.76 99.83 168.83 88.16C170.56 86.43 172.21 84.64 173.45 82.5C175.73 78.53 178.49 75.34 179.94 70.92C181.81 65.21 181.69 58.68 179.24 53.16C174.62 59.41 167.36 63.26 159.62 63.72C152.08 51.59 141.01 41.79 127.88 36.12C112.91 29.55 95.68 28.53 80.03 33.28C64.72 37.86 51.14 47.84 42.28 61.15C41.32 62.27 40.86 63.89 39.09 63.63C31.76 62.77 25.54 58.98 20.89 53.33C17.53 60.69 18.52 69.48 22.77 76.26C25.56 80.4 27.6 84.72 31.3 88.18C30.23 95.44 29.92 102.7 31.06 109.99C31.69 115.44 33.48 120.46 34.94 125.71C34.62 128.8 34.48 131.89 34.57 135C34.61 146.21 34.53 157.42 34.61 168.64C13.22 148.4 2.1 118.23 5.84 88.96C8.28 67.45 18.49 47.08 34.06 32.07C48.67 17.86 67.89 8.55 88.14 6.07Z" />
	<path id="Layer" class="shp1" style="fill: #ffffff" d="M91.64 9.53C90.53 9.86 89.48 10.33 88.48 10.95C88.96 14.58 89.49 18.07 89.46 21.73C90.07 23.95 90.54 26.04 90.66 28.37C85.7 24.33 80.99 20.08 75.69 16.45C77.25 20.5 78.34 24.68 79.52 28.85C80.5 28.85 81.49 28.85 82.47 28.87C80.26 29.98 78.03 30.65 75.62 31.16C76.52 30.46 77.45 29.78 78.4 29.13C77.56 25.09 75.22 20.92 75.46 16.78C74.69 15.98 73.92 15.19 73.13 14.4C71.79 14.57 70.44 14.7 69.09 14.8C71.47 13.33 74.1 12.67 76.77 11.94C80.5 14.42 84.18 16.9 87.33 20.12C87.67 19.79 88.02 19.46 88.38 19.15C87.88 16.44 87.45 13.71 87 10.99C85.85 10.9 84.71 10.81 83.56 10.73C86.16 9.64 88.85 9.51 91.64 9.53Z" />
	<path id="Layer" class="shp1" style="fill: #ffffff" d="M93.49 9.05C99.2 8.82 104.91 8.91 110.61 9.3C110.43 11.11 110.93 13.42 109.73 14.86C109.36 13.71 108.97 12.56 108.57 11.42C106.81 9.76 103.53 9.95 101.28 9.33C101.28 11.76 101.23 14.19 101.05 16.61C102.32 16.78 103.42 17.25 104.68 16.78C105.43 15.59 106.63 14.69 107.01 13.34C106.95 16.38 106.81 19.39 106.31 22.39C105.84 20.97 105.07 19.68 104.6 18.26C103.37 17.87 102.26 18.23 101.02 18.36C101.17 21.15 101.13 23.95 101 26.75C103.01 26.68 104.96 26.21 106.95 26.04C108.27 25.03 108.98 23.18 109.89 21.8C109.63 23.83 109.36 25.85 109.08 27.87C104.27 27.01 99.65 26.99 94.77 27.13L96.81 25.92C96.97 20.77 96.54 15.56 96.33 10.41C95.41 9.91 94.46 9.46 93.49 9.05Z" />
	<path id="Layer" class="shp1" style="fill: #ffffff" d="M116.97 10.55C119.89 10.84 122.68 11.69 125.35 12.89C123.19 12.88 121.09 12.6 118.93 12.75C117.29 13.46 116.03 15.08 114.67 16.23C115.29 14.33 115.85 12.21 116.97 10.55Z" />
	<path id="Layer" class="shp1" style="fill: #ffffff" d="M126.02 12.7C127.75 13.14 129.44 13.67 131.14 14.18C125.88 18.51 120.86 22.95 116.41 28.13C118.55 28.47 120.78 29.12 122.95 29.03C124.67 28.24 125.91 26.38 127.33 25.14C126.55 27.37 125.63 29.35 124.42 31.38C120.18 29.98 116.07 28.57 111.6 28.13C115.81 22.54 120.62 17.17 126.02 12.7Z" />
	<path id="Layer" class="shp1" style="fill: #ffffff" d="M66.65 15.05C67.47 16.79 68.23 18.54 68.94 20.32C67.81 19.14 66.42 18.46 65.01 17.68C62.78 17.81 60.53 18.87 58.4 19.51C59.79 21.91 61.02 24.33 62.1 26.88C63.18 25.98 64.19 25.02 65.19 24.03C65.12 22.79 65.08 21.55 65.07 20.31C66.85 22.93 67.97 25.84 69 28.82C67.97 27.75 66.86 26.76 65.84 25.68C64.36 26.13 63.53 26.65 62.46 27.71C63.98 30.01 65.2 32.31 66.25 34.85C68.04 33.67 70.01 32.55 71.56 31.05C71.62 29.56 71.66 28.06 71.67 26.56C72.58 28.38 73.45 30.15 74.05 32.11C69.24 33.63 65.08 36.23 60.55 38.35C61.16 37.62 61.79 36.9 62.43 36.19C59.73 31.65 57.12 27.05 54.34 22.56C53.41 22.81 52.48 23.08 51.55 23.36C55.66 19.53 61.6 17.42 66.65 15.05Z" />
	<path id="Layer" class="shp1" style="fill: #ffffff" d="M133.7 15.65C137.25 16.58 140.64 17.99 143.5 20.33C142.6 20.1 141.7 19.89 140.79 19.7C138.33 24.37 135.96 29.1 133.62 33.84C134.19 34.6 134.77 35.37 135.33 36.14C132.59 34.73 129.84 33.37 126.95 32.29L129.72 31.83C132.09 27.24 133.92 22.32 136.03 17.6C135.34 16.87 134.56 16.22 133.7 15.65Z" />
	<path id="Layer" class="shp1" style="fill: #ffffff" d="M51.11 23.46C47.12 26.97 50.72 30.65 51.03 34.89C51.17 38.45 53.64 40.76 54.25 44.21C48.62 41.06 42.98 38.28 37.01 35.83C36.11 36.42 35.22 37.02 34.28 37.55C36.41 34.16 39.72 31.44 43.07 29.32C42.36 30.25 41.67 31.2 41 32.17C44.05 33.76 46.98 35.52 50.06 37.04C50.19 33.66 48.41 30.24 47.58 27L44.51 28.15C46.55 25.93 48.41 24.73 51.11 23.46Z" />
	<path id="Layer" class="shp1" style="fill: #ffffff" d="M155.28 26.62C154.12 32.87 151.92 39.08 149.76 45.05C150.25 45.88 150.75 46.7 151.25 47.53C148.22 45.74 145.98 43.29 143.38 40.97L146.35 41.88C146.93 40.49 147.47 39.09 147.99 37.68C146.71 36.76 145.43 35.85 144.15 34.94C142.9 35.9 141.65 36.88 140.4 37.85C141.04 38.65 141.67 39.47 142.29 40.3C140.22 39.33 138.36 38.04 136.57 36.62C137.46 36.78 138.34 36.95 139.23 37.14C142.67 34.71 145.91 32.14 149.53 30.07C148.61 32.18 146.86 33.11 145.08 34.39C146.16 35.13 147.23 35.88 148.31 36.62C149.02 34.22 149.63 31.8 150.35 29.41C151.94 28.38 153.61 27.5 155.28 26.62Z" />
	<path id="Layer" class="shp1" style="fill: #ffffff" d="M127.88 36.12C141.01 41.79 152.08 51.59 159.62 63.72C167.36 63.26 174.62 59.41 179.24 53.16C181.69 58.68 181.81 65.21 179.94 70.92C178.49 75.34 175.73 78.53 173.45 82.5C172.21 84.64 170.56 86.43 168.83 88.16C170.76 99.83 169.85 111.83 165.96 123.01C161.62 135.88 153.3 146.97 142.66 155.33C139.09 158.04 135.28 160.45 131.27 162.47C118.61 168.8 103.87 171.24 89.86 169.05C72.69 166.64 56.97 157.56 46.03 144.15C42.13 139.41 39.04 134.16 36.39 128.64C35.92 127.66 35.44 126.68 34.94 125.71C33.48 120.46 31.69 115.44 31.06 109.99C29.92 102.7 30.23 95.44 31.3 88.18C27.6 84.72 25.56 80.4 22.77 76.26C18.52 69.48 17.53 60.69 20.89 53.33C25.54 58.98 31.76 62.77 39.09 63.63C40.86 63.89 41.32 62.27 42.28 61.15C51.14 47.84 64.72 37.86 80.03 33.28C95.68 28.53 112.91 29.55 127.88 36.12Z" />
	<path id="Layer" class="shp0" style="fill: #010501" d="M121.94 35.09C136.92 40.09 149.73 50.39 158.22 63.67C157.61 64.21 156.99 64.75 156.38 65.29C148.06 51.94 135.06 41.67 120.02 36.97C105.77 32.43 90.13 32.94 76.2 38.36C62.75 43.52 51.41 53.16 43.72 65.3C43.13 64.75 42.54 64.19 41.95 63.64C50.17 50.85 62.33 40.81 76.66 35.63C91.13 30.34 107.35 30.14 121.94 35.09Z" />
	<path id="Layer" class="shp0" style="fill: #010501" d="M135.83 48.91C135.66 56.86 135.08 64.88 133.72 72.73C131.79 73.71 129.89 74.76 128.01 75.85C127.6 74.02 127.01 72.33 126.27 70.62C126.86 68.81 127.34 67.31 126.53 65.45C125.67 63.43 125.06 60.17 122.85 59.26C120.9 58.37 118.61 58.18 116.54 57.7C118.48 56.98 120.32 56.08 122.32 55.5C118.06 53.09 114.98 52.77 110.08 53.63C111.72 52.49 113.37 51.39 114.95 50.18C111.09 50.22 107.6 50 104.13 52.01C102.78 50.84 101.43 49.68 100.08 48.5C98.74 49.67 97.4 50.84 96.05 51.99C93.09 50.53 91 50.1 87.66 50.24C87.68 46.44 87.69 42.64 87.67 38.84C104.27 35.27 121.96 39.25 135.83 48.91Z" />
	<path id="Layer" class="shp2" style="fill: #f66e01" d="M87.67 38.84C87.69 42.64 87.68 46.44 87.66 50.24L85.52 50.24C87.07 51.41 88.59 52.61 90.14 53.79C84.89 52.74 82.55 53.23 77.76 55.39C79.77 55.98 81.58 56.97 83.52 57.72C81.05 58.4 77.35 58.42 75.69 60.65C74.11 63.96 72.62 66.96 73.78 70.69C73.23 72.42 72.69 74.14 72.11 75.86C70.22 74.79 68.32 73.72 66.39 72.7C65 64.8 64.44 56.84 64.35 48.83C71.4 43.98 79.27 40.54 87.67 38.84Z" />
	<path id="Layer" class="shp0" style="fill: #010501" d="M100.09 50.31C101.42 51.47 102.67 52.71 103.9 53.98C105.84 52.7 107.79 51.9 110.03 51.22C109.55 52.95 108.98 54.63 108.31 56.26C111.9 54.68 114.3 54.25 118.26 54.87C116.21 56.32 115 57.02 114.38 59.52C117.98 59.61 121.43 58.94 123.98 62.11C124.89 64.9 121.78 66.47 120.19 68.22C122.19 67.8 124.1 67.17 126 66.45C125.51 67.89 124.93 69.29 124.26 70.65C126.46 73.67 126.68 75.16 126.24 78.91C128.71 77.04 131.31 75.37 134.17 74.15C138.09 72.36 142.76 72.36 147.02 71.13C151.57 69.93 155.41 68.01 159.02 64.98C166.57 65.14 173.81 61.24 178.97 55.91C180.95 63.01 179.75 70.49 175.56 76.55C173.07 80.09 171.71 83.58 168.51 86.5C165.74 89.26 162.15 90.59 159.56 93.53C156.79 96.49 153.7 99.22 150.19 101.27C142.4 104.79 137.38 109.53 128.89 110.53L126.87 108.51C130.06 107.62 133.29 108.3 136.43 107.06C134.94 106.44 133.45 105.83 131.94 105.24C130.32 106.2 128.69 107.17 127.04 108.09L126.7 104.91C127.74 104.87 128.79 104.84 129.83 104.8L129.57 102.42C132.04 102.72 133 102.01 134.82 103.8L132.28 104.4C135 105.61 138.87 105.72 141.32 103.82C138.82 103.13 136.37 102.68 133.79 102.52L134.88 101.1C133.01 101.08 131.14 101.04 129.27 101.05L129.53 103.54C128.21 103.23 126.89 102.92 125.57 102.61C128.22 99.63 131.31 97.9 132.89 93.97C132.31 93.42 131.73 92.87 131.16 92.31C135.3 89.9 132.29 83.7 134.97 80.97C138 78.86 141.36 78.83 143.31 75.19C138.91 76.18 133.29 77.65 131.19 82.14C130.15 85.39 130.31 89.08 129.89 92.45C130.58 92.86 131.27 93.27 131.96 93.68C128.84 95.15 127.61 97.81 125.63 100.43C123.63 98.54 121.95 97.02 119.14 96.45C118.78 99.5 118.91 102.34 119.38 105.37C118.32 105.78 117.25 106.17 116.18 106.54C115.61 106.18 115.05 105.82 114.48 105.46C113.55 111.15 111.71 115.07 107.82 119.33C107.87 117.41 107.92 115.49 107.98 113.57C106.14 118.52 103.17 122.3 100.08 126.48C97.01 122.31 94.01 118.56 92.26 113.58C92.31 115.48 92.31 117.38 92.29 119.27C88.48 115.1 86.51 111.06 85.74 105.45C85.12 105.82 84.49 106.19 83.87 106.55C82.83 106.16 81.8 105.75 80.78 105.32C81.25 102.29 81.34 99.49 81.05 96.43C78.16 97.03 76.66 98.43 74.63 100.42C72.29 97.55 71.02 94.49 67.27 93.2C68.33 97.43 71.28 99.68 74.64 102.05C73.34 102.8 71.93 103.35 70.42 103.7L70.79 100.87C66.46 100.69 63.09 103.27 58.84 103.92C61.66 105.81 64.52 105.11 67.72 105.06C66.85 104.33 65.99 103.59 65.14 102.83C66.89 102.42 68.62 102.54 70.39 102.57L70.27 104.81C71.41 104.85 72.54 104.88 73.68 104.92C73.2 107.04 72.58 108.95 71.46 110.83C63.24 109.4 57.18 104.68 49.85 101.21C46.81 99.4 44.15 96.91 41.33 94.77C41.78 94.3 42.23 93.83 42.68 93.35C46.55 95.96 50.71 95.65 55.11 95.03C53.82 93.69 53.24 91.49 51.01 91.93C47.33 92.2 43.78 91.86 40.15 92.67C37.54 91.08 35.05 89.21 32.61 87.37C28.65 84.16 27.09 80.07 24.16 75.87C20.22 69.89 19.45 62.8 21.09 55.89C26.25 61.1 33.58 65.2 41.07 64.95C46.18 69.33 52.43 71.41 59.01 72.31C64.63 72.93 69.56 75.52 73.95 78.97C73.48 75.23 73.74 73.73 75.83 70.66C75.19 69.3 74.71 67.89 74.25 66.46C76.14 67.22 78 67.79 79.99 68.22C78.55 66.67 75.18 64.73 76.23 62.25C78.1 59 82.59 59.55 85.76 59.56C85.12 56.99 84.03 56.35 81.91 54.94C86.17 54.28 88.05 54.52 91.85 56.41C91.24 54.7 90.69 52.98 90.17 51.24C92.44 51.9 94.34 52.7 96.29 54.02C97.49 52.72 98.73 51.45 100.09 50.31Z" />
	<path id="Layer" class="shp1" style="fill: #ffffff" d="M21.8 59.52C23.55 61.26 25.23 63.45 27.45 64.56C31.06 66.5 34.89 67.18 38.77 68.3L39.71 69.13L40.18 70.71C40.8 70.17 41.44 69.66 42.01 69.08C45.87 72.51 50.46 73.67 55.38 74.69C55.86 75.63 56.33 76.57 56.8 77.5C52.98 77.19 49.44 77.03 46.06 75.02C43.82 73.77 43.03 71.55 40.49 71.05L41.59 73.88C36.61 72.95 32.14 73.16 27.8 70.22C23.85 67.79 22.55 63.86 21.8 59.52Z" />
	<path id="Layer" class="shp1" style="fill: #ffffff" d="M178.22 59.63C177.71 63.98 176.17 67.91 172.28 70.27C167.92 73.2 163.54 72.9 158.58 73.92C159.34 72.31 159.65 69.21 161.32 68.34C165.16 67.15 169.01 66.57 172.61 64.61C174.98 63.43 176.41 61.49 178.22 59.63Z" />
	<path id="Layer" class="shp1" style="fill: #ffffff" d="M100.09 65.87C103.35 63.5 105.42 63.53 109.31 64.14C106.18 65.03 104.08 65.47 102.26 68.39C104.6 67.52 107.3 65.63 109.87 66.1C112.7 66.84 114.47 69.01 114.17 72.03C115.31 73.21 115.91 74.1 116.28 75.76C115.45 75.58 114.62 75.4 113.8 75.21C113.1 76.42 112.22 77.31 111.18 78.21C109.76 77.52 108.36 76.78 106.98 75.99C108.19 77.76 109.22 79.6 110.16 81.52C108.26 82.17 106.4 82.89 104.47 83.46C104.22 83.97 103.97 84.48 103.72 84.99C102.74 83.21 100.45 82.26 100.66 80.05C101.46 78.49 103.7 77.79 105.11 76.91C102.46 75.75 97.46 75.03 95.22 77.28C97.12 78.24 99.41 78.37 99.56 81.01C98.6 82.4 97.55 83.72 96.34 84.91C96.1 84.42 95.85 83.93 95.6 83.44C93.66 82.83 91.78 82.14 89.91 81.35C90.98 79.53 92.1 77.74 93.31 76C91.87 76.8 90.39 77.52 88.9 78.22C87.95 77.28 87.1 76.3 86.31 75.21L84.19 75.74C84.23 75.05 84.28 74.36 84.32 73.67C84.91 73.14 85.51 72.61 86.1 72.08C85.38 68.58 88.6 65.64 91.99 66.07C94.06 66.45 96.01 67.66 97.93 68.5C96.02 65.44 94.04 65 90.68 64.13C94.5 63.58 96.89 63.46 100.09 65.87Z" />
	<path id="Layer" class="shp0" style="fill: #010501" d="M91.96 69.86C94.8 70.2 96.06 72.27 97.9 74.17C94.88 73.02 91.68 72.82 88.75 71.41C89.69 70.83 90.78 69.43 91.96 69.86Z" />
	<path id="Layer" class="shp0" style="fill: #010501" d="M111.4 71.42C108.46 72.89 105.22 72.97 102.23 74.23C103.18 73.17 104.13 72.11 105.01 71C107.83 69.89 108.96 69 111.4 71.42Z" />
	<path id="Layer" class="shp1" style="fill: #ffffff" d="M159.22 68.71C156.79 75.79 150.03 77.24 143.36 77.49C143.83 76.56 144.31 75.63 144.78 74.71C148.45 73.83 151.9 73.21 155.17 71.22C156.52 70.37 157.87 69.54 159.22 68.71Z" />
	<path id="Layer" class="shp1" style="fill: #ffffff" d="M175.89 71.51C174.57 73.65 173.18 75.63 171 76.98C166.8 79.83 161.05 79.6 156.15 79.99C156.6 78.7 157.05 77.4 157.5 76.1C164.1 75.6 169.8 73.98 175.89 71.51Z" />
	<path id="Layer" class="shp1" style="fill: #ffffff" d="M24.27 71.55C25.31 71.9 26.35 72.27 27.39 72.64C32.28 74.73 37.36 75.56 42.61 76.08C43.09 77.39 43.56 78.69 44.04 79.99C40.37 80.08 36.38 78.26 33.54 80.84C37.32 81.43 41.17 81.35 44.95 81.92C46.16 82.43 46.79 84.07 47.58 85.06C44.14 85.09 40.56 85.11 37.17 84.47C33.88 83.79 31.66 81.82 29.11 79.8C31.94 80.32 32.97 81.13 35.31 79.36C30.14 78.19 26.91 76.17 24.27 71.55Z" />
	<path id="Layer" class="shp1" style="fill: #ffffff" d="M56.93 75.17C61.39 76.28 66.71 77.57 68.95 82.08C70.19 85.55 69.92 89.7 70.04 93.34C69.1 92.51 68.02 91.7 67.28 90.69C65.9 87.91 67.14 84.02 65.59 81.37C63.93 79.72 61.14 79.1 59.1 77.95C58.33 77.06 57.61 76.13 56.93 75.17Z" />
	<path id="Layer" class="shp1" style="fill: #ffffff" d="M43.51 75.88C50.68 78.28 57.83 78.45 64.4 82.6C62.47 82.76 60.83 82.21 59.35 83.7C61.54 84.3 63.49 85.2 65.44 86.34C60.91 86.34 56.25 86.35 51.78 85.56C49.65 85.22 48.16 82.95 46.62 81.6C50.36 82.64 54.02 83.24 57.88 83.61C58.34 83.11 58.6 82.58 58.8 81.95C54.43 81.71 49.89 81.55 46.17 78.93C45.27 77.93 44.38 76.92 43.51 75.88Z" />
	<path id="Layer" class="shp1" style="fill: #ffffff" d="M156.7 75.91C155 77.68 153.83 79.49 151.47 80.36C148.06 81.62 144.12 81.76 140.55 82.26C144.39 84.65 149.53 82.33 153.57 81.6C152.37 82.82 151.13 83.99 149.83 85.09C145.12 86.62 139.59 86.16 134.7 86.36C136.54 85.21 138.46 84.38 140.46 83.86C140.51 83.36 140.57 82.85 140.62 82.35C138.97 82.54 137.33 82.71 135.68 82.85C140.49 79.44 145.86 78.57 151.49 77.36C153.23 76.88 154.96 76.4 156.7 75.91Z" />
	<path id="Layer" class="shp1" style="fill: #ffffff" d="M171.06 79.72C168.73 81.72 166.54 83.56 163.5 84.35C159.98 85.15 156.17 85.07 152.58 85.07C153.41 84.01 154.17 82.93 154.85 81.77C160.39 81.62 165.69 81.13 171.06 79.72Z" />
	<path id="Layer" class="shp1" style="fill: #ffffff" d="M34.38 86.01C35.54 86.18 36.7 86.34 37.86 86.51C41.24 87.04 44.6 86.74 47.99 86.93C49.42 87.07 50.29 89.26 51.22 90.21C44.72 91.78 39.53 89.85 34.38 86.01Z" />
	<path id="Layer" class="shp1" style="fill: #ffffff" d="M165.82 86.01C160.56 89.89 155.58 91.75 148.97 90.21C150.27 88.79 150.71 86.67 152.96 86.88C157.37 86.97 161.46 86.78 165.82 86.01Z" />
	<path id="Layer" class="shp1" style="fill: #ffffff" d="M49.79 86.82C51.15 86.88 52.52 86.95 53.88 87.02C57.96 87.23 61.83 87.73 65.31 90.05C61.25 90.1 55.8 91.13 52.16 88.96C51.36 88.26 50.57 87.55 49.79 86.82Z" />
	<path id="Layer" class="shp1" style="fill: #ffffff" d="M90.99 86.32C91.66 87.55 92.16 88.9 92.93 90.07C94.05 91.04 95.6 91.58 96.86 92.39C97.14 91.47 97.44 90.55 97.74 89.64C97.68 90.96 97.6 92.27 97.52 93.59C99.19 91.76 100.86 91.58 102.53 93.06C102.71 92.17 102.67 91.27 102.43 90.33C102.51 91.07 102.86 91.72 103.49 92.3C104.69 91.57 106.06 91.02 107.18 90.15C107.91 88.92 108.43 87.54 109.03 86.24C109.06 87.49 109.05 88.73 109.02 89.97C107.78 91.85 106.13 92.59 106.33 95.13C106.41 96.52 104.5 97.62 103.69 98.57C103.31 98.02 102.93 97.47 102.54 96.91C101.67 98.11 100.85 99.33 100.09 100.61C99.29 99.35 98.46 98.13 97.57 96.92C97.17 97.45 96.77 97.97 96.37 98.49C94.04 96.45 93.5 96.13 93.74 92.88C90.93 90.7 91.07 89.84 90.99 86.32Z" />
	<path id="Layer" class="shp1" style="fill: #ffffff" d="M150.3 86.91C148.54 88.27 147.38 89.83 145.04 90.1C141.67 90.49 138.16 90.23 134.79 90.06C139.63 86.95 144.77 87.06 150.3 86.91Z" />
	<path id="Layer" class="shp0" style="fill: #010501" d="M32.22 89.12C33.02 89.61 33.82 90.11 34.61 90.61C33.5 97.71 33.68 104.95 35.01 112.01C37.77 127.85 46.57 141.82 58.9 152C59.77 151.72 60.65 151.51 61.54 151.36C87.43 151.27 113.35 151.52 139.24 151.24C139.78 151.66 140.31 152.09 140.83 152.53C147.38 146.63 153.41 140.46 157.67 132.65C164.88 120.03 167.69 105.02 165.56 90.65C166.34 90.11 167.11 89.57 167.88 89.04C170.81 108.28 165.65 128.19 153.29 143.27C143.2 155.7 128.77 164.46 113.02 167.41C97.46 170.53 80.79 167.8 66.94 160.08C53.41 152.61 42.57 140.49 36.69 126.19C31.73 114.43 30.62 101.72 32.22 89.12Z" />
	<path id="Layer" class="shp1" style="fill: #ffffff" d="M53.52 91.61C57.24 92.05 62.63 90.9 65.63 93.51C62.56 94.21 59.54 94.44 56.43 93.87C55.45 93.13 54.48 92.37 53.52 91.61Z" />
	<path id="Layer" class="shp1" style="fill: #ffffff" d="M146.74 91.64C143.18 95.21 139.15 94.28 134.68 93.61C137.43 90.78 143.15 92.09 146.74 91.64Z" />
	<path id="Layer" class="shp1" style="fill: #ffffff" d="M148.97 91.92C152.56 92.17 156.04 92.13 159.64 91.92C155.45 95.65 150.39 95.94 145.06 95.04C146.25 93.8 146.9 91.53 148.97 91.92Z" />
	<path id="Layer" class="shp0" style="fill: #010501" d="M38.04 92.84C38.7 93.56 39.36 94.28 40.02 95C43.74 98.88 48.01 102.1 52.9 104.36C56.65 114.54 61.15 124.3 66.86 133.54C66.43 135.87 66.27 138.12 66.31 140.49C65.53 139.98 64.76 139.48 63.98 138.98C62.68 142.04 61.41 145.11 60.19 148.2C44.15 134.83 35.35 113.64 38.04 92.84Z" />
	<path id="Layer" class="shp0" style="fill: #010501" d="M162.18 92.84C164.66 113.76 156.11 134.72 139.99 148.2C138.72 145.12 137.46 142.04 136.18 138.96C135.4 139.48 134.63 139.99 133.86 140.51C133.96 138.1 133.81 135.91 133.25 133.55C139 124.37 143.51 114.57 147.21 104.4C152.11 102.11 156.31 98.97 160.04 95.08C160.76 94.33 161.47 93.58 162.18 92.84Z" />
	<path id="Layer" class="shp1" style="fill: #ffffff" d="M57.62 95.7C61.1 95.27 64.19 94.34 67.34 96.38C63.81 96.98 60.79 97.98 57.62 95.7Z" />
	<path id="Layer" class="shp1" style="fill: #ffffff" d="M141.18 95.34L140.62 96.91C138.03 97.44 135.33 96.84 132.78 96.38C135.48 94.63 138.14 95.19 141.18 95.34Z" />
	<path id="Layer" class="shp1" style="fill: #ffffff" d="M49.49 96.89C51.61 96.58 53.89 96.11 56.05 96.22C57.75 96.73 58.58 98.03 59.82 99.2C56.01 99.23 52.53 99.62 49.49 96.89Z" />
	<path id="Layer" class="shp1" style="fill: #ffffff" d="M143.92 96.26C146.31 96.08 148.82 96.6 151.17 96.91C149.28 98.02 147.46 98.9 145.26 99.21C143.62 99.21 141.98 99.2 140.34 99.18C141.44 98.19 142.51 96.78 143.92 96.26Z" />
	<path id="Layer" class="shp1" style="fill: #ffffff" d="M60.68 98.29C63.57 98.17 66.16 97.4 68.39 99.72C65.38 100.04 63.15 100.27 60.68 98.29Z" />
	<path id="Layer" class="shp1" style="fill: #ffffff" d="M139.48 98.3C136.93 100.36 134.69 100.01 131.64 99.66C134.03 97.57 136.56 98.06 139.48 98.3Z" />
	<path id="Layer" class="shp0" style="fill: #010501" d="M80 98.77C79.99 101.23 79.74 103.5 79.15 105.89C80.98 106.93 82.54 107.49 84.64 107.72C85.21 109.39 85.79 111.06 86.33 112.74C85.44 114.14 84.53 115.43 83.91 116.98C84.39 118.67 85.42 120.25 86.29 121.78C85.6 122.16 84.9 122.55 84.21 122.94C85.22 124.61 86.25 126.26 87.3 127.9C84.13 127.17 82.71 127.16 79.93 128.66C76.4 128.61 72.9 130.16 69.35 130.37C70.59 128.27 71.86 126.19 73.29 124.2L71.32 122.88C72.14 121.05 72.95 119.23 73.76 117.4L70.71 117.84C72.68 113.28 73.94 108.83 74.9 103.97C75.55 101.15 77.61 99.97 80 98.77Z" />
	<path id="Layer" class="shp0" style="fill: #010501" d="M140.34 99.18C141.98 99.2 143.62 99.21 145.26 99.21C145.41 99.82 145.56 100.43 145.7 101.04C145.06 101.43 144.39 101.7 143.7 101.86C143.8 101.26 143.89 100.66 143.98 100.06C142.59 99.88 141.2 99.73 139.81 99.6L140.34 99.18Z" />
	<path id="Layer" class="shp1" style="fill: #ffffff" d="M53.99 100.77C55.95 100.31 58.06 99.67 60.08 99.67C61.28 100.05 62.28 101.1 63.27 101.86C59.92 102.21 57.11 102.11 53.99 100.77Z" />
	<path id="Layer" class="shp0" style="fill: #010501" d="M120.12 98.82C121.27 99.37 122.38 99.97 123.46 100.64C124.73 102.33 125.43 103.91 125.77 106.01C126.41 110.17 127.95 113.99 129.41 117.91L126.4 117.38C127.21 119.23 128.02 121.09 128.87 122.92C128.2 123.32 127.53 123.71 126.86 124.11C128.27 126.16 129.57 128.28 130.85 130.43C127.22 130.13 123.96 128.64 120.26 128.67C117.46 127.18 116.03 127.14 112.83 127.97C113.89 126.32 114.92 124.66 115.93 122.98C115.25 122.57 114.56 122.17 113.88 121.76C114.72 120.03 115.92 118.82 116.11 116.99C115.8 115.45 114.62 114.08 113.84 112.74C114.37 111.07 114.93 109.4 115.49 107.74C117.62 107.46 119.15 107 120.97 105.89C120.49 103.53 120.21 101.23 120.12 98.82Z" />
	<path id="Layer" class="shp1" style="fill: #ffffff" d="M139.81 99.6C141.2 99.73 142.59 99.88 143.98 100.06C143.89 100.66 143.8 101.26 143.7 101.86C141.41 102.08 139.17 101.99 136.89 101.82C137.87 101.09 138.83 100.33 139.81 99.6Z" />
	<path id="Layer" class="shp1" style="fill: #ffffff" d="M68.23 105.16C69.49 106.03 70.75 106.89 71.97 107.81C69.63 107.98 67.29 107.97 64.96 107.8C65.28 105.73 66.59 105.94 68.23 105.16Z" />
	<path id="Layer" class="shp0" style="fill: #010501" d="M113.22 114.25C113.86 115.21 114.52 116.17 115.19 117.11C114.21 118.31 113.27 119.53 112.4 120.81C113.02 121.67 113.43 122.63 113.82 123.62C111.78 128.03 109 132.46 107.92 137.15C105.22 137.58 102.66 138.21 100.1 139.15C97.52 138.21 94.94 137.58 92.24 137.14C91.17 132.39 88.36 127.98 86.28 123.57C86.77 122.71 87.26 121.85 87.77 121C86.86 119.65 85.82 118.55 85.22 117.06L86.82 114.19C88.69 117.2 90.5 119.51 93.6 121.3C97.03 123.28 98.53 126.45 100.08 129.91C101.65 126.26 103.4 123.01 106.99 120.99C109.89 119.37 111.56 117.05 113.22 114.25Z" />
	<path id="Layer" class="shp2" style="fill: #f66e01" d="M34.94 125.71C35.44 126.68 35.92 127.66 36.39 128.64C39.04 134.16 42.13 139.41 46.03 144.15C45.73 155.34 46.11 166.56 45.83 177.76C41.87 175 38.11 171.96 34.61 168.64C34.53 157.42 34.61 146.21 34.57 135C34.48 131.89 34.62 128.8 34.94 125.71Z" />
	<path id="Layer" class="shp0" style="fill: #010501" d="M85.06 128.87C88.56 129.96 91.03 134.54 90.65 138.06C89.89 140 88.25 141.35 87.77 143.5C86.33 142.5 85.17 141.22 83.81 140.12C83.08 138.41 82.74 136.54 82.1 134.79C82.19 136.86 82.5 138.9 82.8 140.95C81.34 142.4 80.95 143.95 80.51 145.9C79.16 144.47 77.85 143.03 76.58 141.53C76.01 139.97 75.66 138.34 75.18 136.75C75.19 138.72 75.41 140.68 75.74 142.63C74.57 144.52 74.84 145.03 75.2 147.14C73 144.9 68.76 144.04 68.04 140.91C67.39 137.93 67.24 133.93 70.08 132C71.53 130.83 72.99 131.17 74.69 131.23C76.57 130.03 78.19 130.04 80.33 130.02C82.06 129.45 83.08 128.36 85.06 128.87Z" />
	<path id="Layer" class="shp0" style="fill: #010501" d="M114.17 129.21C116.3 128.21 117.96 128.98 119.77 130.14C122.13 129.95 123.35 129.96 125.42 131.23C126.65 131.12 127.86 131.15 129.05 131.32C133.24 133.2 133.45 139.75 131 143.01C129.12 144.5 126.82 145.38 125.1 147.19C125.25 143.68 124.21 140.46 124.79 136.9C124.38 138.46 124.06 140.03 123.6 141.57C122.26 143.16 120.65 144.69 119.05 146.01C119.2 145.05 119.37 144.09 119.54 143.14C118.8 142.45 118.05 141.76 117.29 141.08C117.64 138.98 117.81 136.94 117.83 134.81C117.3 136.58 117.06 138.49 116.31 140.17C114.88 141.28 113.65 142.61 112.2 143.7C111.99 141.35 110.33 140.09 109.5 138.08C109.05 135 111.35 130.63 114.17 129.21Z" />
	<path id="Layer" class="shp0" style="fill: #010501" d="M91.03 140.02C94.94 139.59 96.89 140.03 100.12 142.17C103.66 139.65 109.01 138.14 111.56 142.77C111.09 143.76 110.63 144.74 110.17 145.73C112.58 144.82 114.53 143.44 116.51 141.82C117.28 142.49 118.05 143.16 118.83 143.83C118.22 145 117.62 146.18 117.04 147.36C120.14 146.92 121.81 144.93 124.29 143.31C124.21 145.29 123.74 146.86 122.95 148.65C128.08 147.18 131.19 143.43 135.59 140.81C136.11 142.44 136.28 144.11 136.6 145.79C137.76 146.93 138.51 148.26 139.21 149.72L138.29 150.48C120.54 150.14 102.76 150.43 85 150.33C77.11 150.41 69.21 150.17 61.33 150.46C61.23 149.15 62.02 147.82 62.41 146.58C63.67 146.1 64.94 145.63 66.2 145.16L62.87 145.49C63.46 143.94 64.14 142.44 64.8 140.91C68.99 143.61 72.22 147.09 77.13 148.65C77.03 147.66 74.62 143.57 76.87 143.7C78.83 145.68 80.26 146.82 83.08 147.36C82.49 146.22 81.96 145.07 81.48 143.9C82.16 143.2 82.84 142.49 83.52 141.77C85.53 143.47 87.66 144.82 90.15 145.72C89.56 144.76 88.97 143.8 88.37 142.84C89.24 141.88 90.11 140.93 91.03 140.02Z" />
	<path id="Layer" class="shp0" style="fill: #010501" d="M46.03 144.15C56.97 157.56 72.69 166.64 89.86 169.05C103.87 171.24 118.61 168.8 131.27 162.47C131.28 171.51 131.25 180.55 131.29 189.59C102.89 199.63 70.41 195.13 45.83 177.76C46.11 166.56 45.73 155.34 46.03 144.15Z" />
	<path id="Layer" class="shp2" style="fill: #f66e01" d="M61.33 150.46C69.21 150.17 77.11 150.41 85 150.33C102.76 150.43 120.54 150.14 138.29 150.48L139.24 151.24C113.35 151.52 87.43 151.27 61.54 151.36L61.33 150.46Z" />
	<path id="Layer" class="shp1" style="fill: #ffffff" d="M61.8 152.5C72.56 152.6 83.33 152.51 94.08 152.54C95.29 152.44 96.39 152.91 97.39 153.93C99.2 153.99 101.01 154.01 102.82 154.01C103.37 153.5 103.93 152.99 104.48 152.48C115.7 152.54 126.94 152.66 138.16 152.42C138.52 152.84 138.87 153.27 139.21 153.7C135.74 155.75 132.38 158.02 128.73 159.73C117.07 165.38 103.66 167.47 90.84 165.59C79.87 164.22 69.98 159.69 60.86 153.62L61.07 153.33C61.3 153.04 61.54 152.76 61.8 152.5Z" />
	<path id="Layer" class="shp0" style="fill: #010501" d="M68.42 153.98C73.14 153.87 77.86 153.86 82.57 153.98C84.97 156.75 87.59 159.29 90.21 161.84C82.32 160.46 75.37 157.96 68.42 153.98Z" />
	<path id="Layer" class="shp0" style="fill: #010501" d="M117.94 154.01C122.53 153.72 127.18 153.98 131.78 153.96C124.81 157.94 117.85 160.47 109.93 161.84C112.72 159.35 115.09 156.4 117.94 154.01Z" />
	<path id="Layer" class="shp2" style="fill: #f66e01" d="M142.66 155.33C142.84 165.12 142.65 174.91 142.76 184.7C139.05 186.57 135.22 188.21 131.29 189.59C131.25 180.55 131.28 171.51 131.27 162.47C135.28 160.45 139.09 158.04 142.66 155.33Z" />
	<path id="Layer" class="shp1" style="fill: #ffffff" d="M87.24 174.75C88.66 174.78 90.08 174.79 91.5 174.82C91.5 177.31 91.52 179.8 91.55 182.29C92.62 182.06 93.69 181.82 94.76 181.57C95.09 180.48 95.45 179.41 95.86 178.37C95.82 180.8 95.92 183.23 95.99 185.66C94.67 182.83 95.14 182.03 91.5 182.41C91.51 184.61 91.52 186.81 91.54 189.01C92.45 189.26 93.35 189.52 94.25 189.77C91.46 189.73 88.64 189.64 85.86 189.76L88.16 188.87C88.42 184.58 88.32 180.22 88.19 175.93C87.88 175.54 87.56 175.14 87.24 174.75Z" />
	<path id="Layer" class="shp1" style="fill: #ffffff" d="M109.65 174.58C110.98 174.76 112.18 175.09 113.42 175.6C113.38 177.08 113.35 178.57 113.33 180.05C112.38 177.72 112.1 175.82 109.57 174.61C106.31 174.99 105.62 178.25 105.3 180.97C105.01 183.66 105.4 188.01 108.05 189.47C112.05 189.68 112.51 187.53 113.81 184.46C113.79 186.27 113.71 188.08 113.65 189.89C113.26 189.58 112.87 189.27 112.47 188.96C109.85 189.94 106.79 190.48 104.42 188.62C100.94 185.96 100.43 180.5 103.13 177.13C104.79 174.98 107.05 174.48 109.65 174.58Z" />
</svg>