<svg version="1.2" baseProfile="tiny-ps" xmlns="http://www.w3.org/2000/svg" viewBox="0 0 480 480" width="480" height="480">
	<title>455-svg</title>
	<style>
		tspan { white-space:pre }
		.shp0 { fill: #f7dda1 } 
		.shp1 { fill: #f8cb5d } 
		.shp2 { fill: #cda6a3 } 
		.shp3 { fill: #f4b217 } 
		.shp4 { fill: #a45b58 } 
		.shp5 { fill: #a95221 } 
		.shp6 { fill: #821c1b } 
	</style>
	<g id="g262">
		<g id="g364">
			<path id="path378" class="shp0" d="M137.16 420.33C135.5 418.22 135.55 418.17 137.67 419.83C138.95 420.84 140 421.89 140 422.16C140 423.26 138.91 422.55 137.16 420.33ZM340 422.16C340 421.89 341.05 420.84 342.33 419.83C344.45 418.17 344.5 418.22 342.84 420.33C341.09 422.55 340 423.26 340 422.16ZM130.5 415C128.84 412.89 128.89 412.84 131 414.5C132.28 415.5 133.33 416.55 133.33 416.83C133.33 417.93 132.24 417.22 130.5 415ZM346.67 416.83C346.67 416.55 347.72 415.5 349 414.5C351.11 412.84 351.16 412.89 349.5 415C347.76 417.22 346.67 417.93 346.67 416.83L346.67 416.83ZM121.23 407L118 403.33L121.67 406.57C125.09 409.59 125.94 410.67 124.9 410.67C124.66 410.67 123.01 409.02 121.23 407L121.23 407ZM357.33 407.33C359.06 405.5 360.76 404 361.13 404C361.5 404 360.39 405.5 358.67 407.33C356.94 409.17 355.24 410.67 354.87 410.67C354.5 410.67 355.61 409.17 357.33 407.33ZM93.23 379L90 375.33L93.67 378.57C97.09 381.59 97.94 382.67 96.9 382.67C96.66 382.67 95.01 381.02 93.23 379L93.23 379ZM385.33 379.33C387.06 377.5 388.76 376 389.13 376C389.5 376 388.39 377.5 386.67 379.33C384.94 381.17 383.24 382.67 382.87 382.67C382.5 382.67 383.61 381.17 385.33 379.33ZM83.83 368.33C82.17 366.22 82.22 366.17 84.33 367.83C85.62 368.84 86.67 369.89 86.67 370.16C86.67 371.26 85.57 370.55 83.83 368.33L83.83 368.33ZM393.33 370.16C393.33 369.89 394.38 368.84 395.67 367.83C397.78 366.17 397.83 366.22 396.17 368.33C394.43 370.55 393.33 371.26 393.33 370.16ZM78.5 361.67C76.84 359.55 76.89 359.5 79 361.16C81.22 362.91 81.93 364 80.83 364C80.55 364 79.5 362.95 78.5 361.67ZM398.67 363.5C398.67 363.22 399.72 362.17 401 361.16C403.11 359.5 403.16 359.55 401.5 361.67C399.76 363.89 398.67 364.59 398.67 363.5L398.67 363.5ZM74.5 356.33C72.84 354.22 72.89 354.17 75 355.83C76.28 356.84 77.33 357.89 77.33 358.16C77.33 359.26 76.24 358.55 74.5 356.33L74.5 356.33ZM402.67 358.16C402.67 357.89 403.72 356.84 405 355.83C407.11 354.17 407.16 354.22 405.5 356.33C403.76 358.55 402.67 359.26 402.67 358.16L402.67 358.16ZM177 339.12C177.92 338.75 179.42 338.75 180.33 339.12C181.25 339.49 180.5 339.79 178.67 339.79C176.83 339.79 176.08 339.49 177 339.12L177 339.12ZM269 339.12C269.92 338.75 271.42 338.75 272.33 339.12C273.25 339.49 272.5 339.79 270.67 339.79C268.83 339.79 268.08 339.49 269 339.12ZM197.54 309.33C197.54 307.5 197.85 306.75 198.22 307.67C198.59 308.58 198.59 310.08 198.22 311C197.85 311.92 197.54 311.17 197.54 309.33ZM25.53 267C24.07 263.6 24.1 263.52 25.98 265.92C27.09 267.35 28 269 28 269.59C28 271.61 27.1 270.67 25.53 267ZM452 269.81C452 269.1 452.93 267.35 454.07 265.92C456.03 263.48 456.06 263.52 454.56 266.67C452.62 270.75 452 271.5 452 269.81ZM18.09 245.72C17.36 243.82 17.52 243.67 18.83 244.98C19.74 245.88 20.15 246.96 19.74 247.37C19.33 247.78 18.59 247.04 18.09 245.72ZM179.57 244.33C208.3 244.13 255.7 244.13 284.9 244.33C314.11 244.53 290.6 244.7 232.67 244.7C174.73 244.7 150.84 244.53 179.57 244.33ZM11.5 221.95C10.21 218.6 10.59 217.73 12.16 220.43C12.94 221.77 13.3 223.15 12.95 223.49C12.61 223.83 11.96 223.14 11.5 221.95ZM466.71 223.33C466.71 222.6 467.29 221.1 468 220C468.71 218.9 469.29 218.6 469.29 219.33C469.29 220.07 468.71 221.57 468 222.67C467.29 223.77 466.71 224.07 466.71 223.33L466.71 223.33ZM9.44 211.22C9.5 209.67 9.82 209.35 10.24 210.42C10.63 211.38 10.58 212.53 10.14 212.97C9.7 213.42 9.38 212.63 9.44 211.22L9.44 211.22ZM469.44 211.22C469.5 209.67 469.82 209.35 470.24 210.42C470.63 211.38 470.58 212.53 470.14 212.97C469.7 213.42 469.38 212.63 469.44 211.22L469.44 211.22ZM180.21 198.67C180.21 196.83 180.51 196.08 180.88 197C181.25 197.92 181.25 199.42 180.88 200.33C180.51 201.25 180.21 200.5 180.21 198.67L180.21 198.67ZM6.77 197.89C6.84 196.34 7.15 196.02 7.58 197.08C7.96 198.05 7.92 199.2 7.47 199.64C7.03 200.08 6.71 199.29 6.77 197.89L6.77 197.89ZM472.11 197.89C472.17 196.34 472.49 196.02 472.91 197.08C473.3 198.05 473.25 199.2 472.81 199.64C472.36 200.08 472.05 199.29 472.11 197.89L472.11 197.89ZM4.97 189.44C4.39 187.22 4.57 186.7 5.56 187.69C6.33 188.47 6.7 189.89 6.38 190.85C6.05 191.85 5.45 191.24 4.97 189.44ZM473.33 190.08C473.33 189.02 473.88 187.82 474.54 187.41C475.21 187 475.44 187.86 475.05 189.33C474.24 192.44 473.33 192.84 473.33 190.08L473.33 190.08ZM2.93 172.67C2.95 170.47 3.25 169.73 3.59 171.03C3.93 172.32 3.91 174.12 3.54 175.03C3.18 175.93 2.9 174.87 2.93 172.67ZM476.26 172.67C476.29 170.47 476.59 169.73 476.92 171.03C477.26 172.32 477.24 174.12 476.87 175.03C476.51 175.93 476.23 174.87 476.26 172.67L476.26 172.67ZM198.93 165.67C206.77 165.44 219.97 165.44 228.26 165.67C236.55 165.91 230.13 166.1 214 166.1C197.87 166.1 191.08 165.91 198.93 165.67L198.93 165.67ZM1.54 158.67C1.54 156.83 1.85 156.08 2.22 157C2.59 157.92 2.59 159.42 2.22 160.33C1.85 161.25 1.54 160.5 1.54 158.67ZM477.54 158.67C477.54 156.83 477.85 156.08 478.22 157C478.59 157.92 478.59 159.42 478.22 160.33C477.85 161.25 477.54 160.5 477.54 158.67L477.54 158.67ZM0.34 144.67C0.35 141.73 0.62 140.69 0.94 142.35C1.26 144.01 1.25 146.41 0.92 147.68C0.58 148.96 0.32 147.6 0.34 144.67L0.34 144.67ZM479.03 144C479.03 140.7 479.29 139.35 479.61 141C479.93 142.65 479.93 145.35 479.61 147C479.29 148.65 479.03 147.3 479.03 144ZM255.83 144.33C254.17 142.22 254.22 142.17 256.33 143.83C258.55 145.57 259.26 146.67 258.16 146.67C257.89 146.67 256.84 145.62 255.83 144.33L255.83 144.33ZM245.16 143C243.5 140.89 243.55 140.84 245.67 142.5C247.89 144.24 248.59 145.33 247.5 145.33C247.22 145.33 246.17 144.28 245.16 143ZM242.5 129.67C240.84 127.55 240.89 127.5 243 129.16C245.22 130.91 245.93 132 244.83 132C244.55 132 243.5 130.95 242.5 129.67ZM227.83 113.67C226.17 111.55 226.22 111.5 228.33 113.16C230.55 114.91 231.26 116 230.16 116C229.89 116 228.84 114.95 227.83 113.67ZM216 112C214.8 111.22 214.63 110.7 215.59 110.69C216.46 110.68 217.55 111.27 218 112C219.02 113.66 218.56 113.66 216 112ZM325.54 105.33C325.54 103.5 325.85 102.75 326.22 103.67C326.59 104.58 326.59 106.08 326.22 107C325.85 107.92 325.54 107.17 325.54 105.33L325.54 105.33ZM0.36 81.33C0.36 78.03 0.62 76.68 0.94 78.33C1.26 79.98 1.26 82.68 0.94 84.33C0.62 85.98 0.36 84.63 0.36 81.33ZM479 82C479.02 79.07 479.29 78.02 479.61 79.68C479.93 81.34 479.92 83.74 479.58 85.02C479.25 86.29 478.99 84.93 479 82L479 82ZM95.67 72.33C120.78 72.13 161.88 72.13 187 72.33C212.12 72.54 191.57 72.7 141.33 72.7C91.1 72.7 70.55 72.54 95.67 72.33ZM1.54 65.33C1.54 63.5 1.85 62.75 2.22 63.67C2.59 64.58 2.59 66.08 2.22 67C1.85 67.92 1.54 67.17 1.54 65.33ZM477.54 65.33C477.54 63.5 477.85 62.75 478.22 63.67C478.59 64.58 478.59 66.08 478.22 67C477.85 67.92 477.54 67.17 477.54 65.33ZM83.1 65.67C104.96 65.46 140.36 65.46 161.76 65.67C183.16 65.87 165.27 66.04 122 66.04C78.73 66.04 61.23 65.87 83.1 65.67ZM2.93 51.33C2.95 49.13 3.25 48.39 3.59 49.69C3.93 50.99 3.91 52.79 3.54 53.69C3.18 54.59 2.9 53.53 2.93 51.33ZM476.26 51.33C476.29 49.13 476.59 48.39 476.92 49.69C477.26 50.99 477.24 52.79 476.87 53.69C476.51 54.59 476.23 53.53 476.26 51.33L476.26 51.33ZM4.21 41.33C4.21 39.5 4.51 38.75 4.88 39.67C5.25 40.58 5.25 42.08 4.88 43C4.51 43.92 4.21 43.17 4.21 41.33L4.21 41.33ZM474.88 41.33C474.88 39.5 475.18 38.75 475.55 39.67C475.92 40.58 475.92 42.08 475.55 43C475.18 43.92 474.88 43.17 474.88 41.33L474.88 41.33ZM4.97 33.23C5.45 31.42 6.05 30.82 6.38 31.82C6.7 32.78 6.33 34.2 5.56 34.98C4.57 35.96 4.39 35.44 4.97 33.23L4.97 33.23ZM473.79 33.94C473.36 32.81 473.3 31.59 473.67 31.22C474.03 30.86 474.65 31.78 475.04 33.28C475.87 36.46 474.95 36.95 473.79 33.94L473.79 33.94ZM31.75 21.76C32.71 21.37 33.86 21.42 34.31 21.86C34.75 22.3 33.96 22.62 32.56 22.56C31 22.5 30.69 22.18 31.75 21.76L31.75 21.76ZM446.42 21.76C447.38 21.37 448.53 21.42 448.97 21.86C449.42 22.3 448.63 22.62 447.22 22.56C445.67 22.5 445.35 22.18 446.42 21.76L446.42 21.76ZM37.08 20.42C38.05 20.04 39.2 20.08 39.64 20.53C40.08 20.97 39.29 21.29 37.89 21.23C36.34 21.16 36.02 20.85 37.08 20.42L37.08 20.42ZM441.08 20.42C442.05 20.04 443.2 20.08 443.64 20.53C444.08 20.97 443.29 21.29 441.89 21.23C440.34 21.16 440.02 20.85 441.08 20.42L441.08 20.42ZM43.75 19.09C44.71 18.7 45.86 18.75 46.31 19.19C46.75 19.64 45.96 19.95 44.56 19.89C43 19.83 42.69 19.51 43.75 19.09L43.75 19.09ZM434.42 19.09C435.38 18.7 436.53 18.75 436.97 19.19C437.42 19.64 436.63 19.95 435.22 19.89C433.67 19.83 433.35 19.51 434.42 19.09L434.42 19.09ZM57.08 16.42C58.05 16.04 59.2 16.08 59.64 16.53C60.08 16.97 59.29 17.29 57.89 17.23C56.34 17.16 56.02 16.85 57.08 16.42L57.08 16.42ZM421.08 16.42C422.05 16.04 423.2 16.08 423.64 16.53C424.08 16.97 423.29 17.29 421.89 17.23C420.34 17.16 420.02 16.85 421.08 16.42L421.08 16.42ZM65.08 15.09C66.05 14.7 67.2 14.75 67.64 15.19C68.08 15.64 67.29 15.95 65.89 15.89C64.34 15.83 64.02 15.51 65.08 15.09L65.08 15.09ZM413.08 15.09C414.05 14.7 415.2 14.75 415.64 15.19C416.08 15.64 415.29 15.95 413.89 15.89C412.34 15.83 412.02 15.51 413.08 15.09L413.08 15.09ZM71.75 13.76C72.71 13.37 73.86 13.42 74.31 13.86C74.75 14.3 73.96 14.62 72.56 14.56C71 14.5 70.69 14.18 71.75 13.76L71.75 13.76ZM406.42 13.76C407.38 13.37 408.53 13.42 408.97 13.86C409.42 14.3 408.63 14.62 407.22 14.56C405.67 14.5 405.35 14.18 406.42 13.76L406.42 13.76ZM81.08 12.42C82.05 12.04 83.2 12.08 83.64 12.53C84.08 12.97 83.29 13.29 81.89 13.23C80.34 13.16 80.02 12.85 81.08 12.42ZM397.08 12.42C398.05 12.04 399.2 12.08 399.64 12.53C400.08 12.97 399.29 13.29 397.89 13.23C396.34 13.16 396.02 12.85 397.08 12.42ZM89 11.12C89.92 10.75 91.42 10.75 92.33 11.12C93.25 11.49 92.5 11.79 90.67 11.79C88.83 11.79 88.08 11.49 89 11.12ZM387.67 11.12C388.58 10.75 390.08 10.75 391 11.12C391.92 11.49 391.17 11.79 389.33 11.79C387.5 11.79 386.75 11.49 387.67 11.12ZM99.67 9.78C100.58 9.41 102.08 9.41 103 9.78C103.92 10.15 103.17 10.46 101.33 10.46C99.5 10.46 98.75 10.15 99.67 9.78ZM377 9.78C377.92 9.41 379.42 9.41 380.33 9.78C381.25 10.15 380.5 10.46 378.67 10.46C376.83 10.46 376.08 10.15 377 9.78ZM112.36 8.41C113.66 8.07 115.46 8.09 116.36 8.46C117.26 8.82 116.2 9.1 114 9.07C111.8 9.05 111.06 8.75 112.36 8.41ZM364.36 8.41C365.66 8.07 367.46 8.09 368.36 8.46C369.26 8.82 368.2 9.1 366 9.07C363.8 9.05 363.06 8.75 364.36 8.41ZM126.42 7.09C127.38 6.7 128.53 6.75 128.97 7.19C129.42 7.64 128.63 7.95 127.22 7.89C125.67 7.83 125.35 7.51 126.42 7.09ZM351.75 7.09C352.71 6.7 353.86 6.75 354.31 7.19C354.75 7.64 353.96 7.95 352.56 7.89C351 7.83 350.69 7.51 351.75 7.09ZM139.68 5.72C141.34 5.4 143.74 5.42 145.02 5.75C146.29 6.08 144.93 6.35 142 6.33C139.07 6.32 138.02 6.04 139.68 5.72ZM335.68 5.72C337.34 5.4 339.74 5.42 341.02 5.75C342.29 6.08 340.93 6.35 338 6.33C335.07 6.32 334.02 6.04 335.68 5.72ZM158.33 4.39C159.98 4.07 162.68 4.07 164.33 4.39C165.98 4.71 164.63 4.97 161.33 4.97C158.03 4.97 156.68 4.71 158.33 4.39ZM315.67 4.39C317.32 4.07 320.02 4.07 321.67 4.39C323.32 4.71 321.97 4.97 318.67 4.97C315.37 4.97 314.02 4.71 315.67 4.39ZM183.64 3.04C186 2.74 190.2 2.74 192.97 3.03C195.74 3.32 193.8 3.56 188.67 3.56C183.53 3.57 181.27 3.33 183.64 3.04L183.64 3.04ZM286.3 3.04C288.67 2.74 292.87 2.74 295.64 3.03C298.4 3.32 296.47 3.56 291.33 3.56C286.2 3.57 283.94 3.33 286.3 3.04L286.3 3.04Z" />
			<path id="path376" class="shp1" d="M196 457.33C194.8 456.56 194.63 456.03 195.59 456.02C196.46 456.01 197.55 456.6 198 457.33C199.02 458.99 198.56 458.99 196 457.33ZM282.31 457.17C283.22 456.26 284.29 455.85 284.7 456.26C285.11 456.67 284.37 457.41 283.06 457.91C281.16 458.64 281 458.48 282.31 457.17L282.31 457.17ZM125.87 410.33L123.33 407.33L126.33 409.87C129.15 412.26 129.94 413.33 128.87 413.33C128.62 413.33 127.27 411.98 125.87 410.33ZM352.67 410.67C353.99 409.2 355.38 408 355.75 408C356.11 408 355.33 409.2 354 410.67C352.67 412.13 351.29 413.33 350.92 413.33C350.55 413.33 351.34 412.13 352.67 410.67L352.67 410.67ZM107.3 393L96.67 382L107.67 392.64C117.88 402.51 119.27 404 118.3 404C118.1 404 113.15 399.05 107.3 393ZM371.33 393.33C377.17 387.47 382.24 382.67 382.6 382.67C382.97 382.67 378.5 387.47 372.67 393.33C366.83 399.2 361.76 404 361.4 404C361.03 404 365.5 399.2 371.33 393.33ZM389.33 374C391.06 372.17 392.76 370.67 393.13 370.67C393.5 370.67 392.39 372.17 390.67 374C388.94 375.83 387.24 377.33 386.87 377.33C386.5 377.33 387.61 375.83 389.33 374ZM88.54 373L86 370L89 372.54C91.82 374.93 92.61 376 91.54 376C91.29 376 89.94 374.65 88.54 373ZM8.11 201.89C8.17 200.34 8.49 200.02 8.91 201.08C9.3 202.05 9.25 203.2 8.81 203.64C8.36 204.08 8.05 203.29 8.11 201.89ZM470.77 201.89C470.84 200.34 471.15 200.02 471.58 201.08C471.96 202.05 471.92 203.2 471.47 203.64C471.03 204.08 470.71 203.29 470.77 201.89L470.77 201.89ZM5.44 185.89C5.5 184.34 5.82 184.02 6.24 185.08C6.63 186.05 6.58 187.2 6.14 187.64C5.7 188.08 5.38 187.29 5.44 185.89ZM473.44 185.89C473.5 184.34 473.82 184.02 474.24 185.08C474.63 186.05 474.58 187.2 474.14 187.64C473.7 188.08 473.38 187.29 473.44 185.89L473.44 185.89ZM4.21 177.33C4.21 175.5 4.51 174.75 4.88 175.67C5.25 176.58 5.25 178.08 4.88 179C4.51 179.92 4.21 179.17 4.21 177.33L4.21 177.33ZM474.88 177.33C474.88 175.5 475.18 174.75 475.55 175.67C475.92 176.58 475.92 178.08 475.55 179C475.18 179.92 474.88 179.17 474.88 177.33L474.88 177.33ZM2.88 166.67C2.88 164.83 3.18 164.08 3.55 165C3.92 165.92 3.92 167.42 3.55 168.33C3.18 169.25 2.88 168.5 2.88 166.67ZM476.21 166.67C476.21 164.83 476.51 164.08 476.88 165C477.25 165.92 477.25 167.42 476.88 168.33C476.51 169.25 476.21 168.5 476.21 166.67L476.21 166.67ZM1.64 152C1.64 149.43 1.92 148.38 2.25 149.67C2.59 150.95 2.59 153.05 2.25 154.33C1.92 155.62 1.64 154.57 1.64 152ZM477.64 152C477.64 149.43 477.92 148.38 478.25 149.67C478.59 150.95 478.59 153.05 478.25 154.33C477.92 155.62 477.64 154.57 477.64 152L477.64 152ZM0.31 136C0.31 133.43 0.58 132.38 0.92 133.67C1.25 134.95 1.25 137.05 0.92 138.33C0.58 139.62 0.31 138.57 0.31 136ZM478.93 135.33C478.95 133.13 479.25 132.39 479.59 133.69C479.93 134.99 479.91 136.79 479.54 137.69C479.18 138.59 478.9 137.53 478.93 135.33L478.93 135.33ZM0.31 90.67C0.31 88.1 0.58 87.05 0.92 88.33C1.25 89.62 1.25 91.72 0.92 93C0.58 94.28 0.31 93.23 0.31 90.67L0.31 90.67ZM478.98 90.67C478.98 88.1 479.25 87.05 479.59 88.33C479.92 89.62 479.92 91.72 479.59 93C479.25 94.28 478.98 93.23 478.98 90.67L478.98 90.67ZM477.67 72.67C477.68 69.73 477.96 68.69 478.28 70.35C478.6 72.01 478.58 74.41 478.25 75.68C477.92 76.96 477.65 75.6 477.67 72.67L477.67 72.67ZM1.64 72C1.64 69.43 1.92 68.38 2.25 69.67C2.59 70.95 2.59 73.05 2.25 74.33C1.92 75.62 1.64 74.57 1.64 72ZM2.88 57.33C2.88 55.5 3.18 54.75 3.55 55.67C3.92 56.58 3.92 58.08 3.55 59C3.18 59.92 2.88 59.17 2.88 57.33L2.88 57.33ZM476.21 57.33C476.21 55.5 476.51 54.75 476.88 55.67C477.25 56.58 477.25 58.08 476.88 59C476.51 59.92 476.21 59.17 476.21 57.33L476.21 57.33ZM4.11 45.89C4.17 44.34 4.49 44.02 4.91 45.08C5.3 46.05 5.25 47.2 4.81 47.64C4.36 48.08 4.05 47.29 4.11 45.89ZM474.77 45.89C474.84 44.34 475.15 44.02 475.58 45.08C475.96 46.05 475.92 47.2 475.47 47.64C475.03 48.08 474.71 47.29 474.77 45.89L474.77 45.89ZM5.44 36.56C5.5 35 5.82 34.69 6.24 35.75C6.63 36.71 6.58 37.86 6.14 38.31C5.7 38.75 5.38 37.96 5.44 36.56ZM473.44 36.56C473.5 35 473.82 34.69 474.24 35.75C474.63 36.71 474.58 37.86 474.14 38.31C473.7 38.75 473.38 37.96 473.44 36.56L473.44 36.56ZM53.08 17.76C54.05 17.37 55.2 17.42 55.64 17.86C56.08 18.3 55.29 18.62 53.89 18.56C52.34 18.5 52.02 18.18 53.08 17.76L53.08 17.76ZM425.08 17.76C426.05 17.37 427.2 17.42 427.64 17.86C428.08 18.3 427.29 18.62 425.89 18.56C424.34 18.5 424.02 18.18 425.08 17.76L425.08 17.76ZM75.75 13.76C76.71 13.37 77.86 13.42 78.31 13.86C78.75 14.3 77.96 14.62 76.56 14.56C75 14.5 74.69 14.18 75.75 13.76L75.75 13.76ZM402.42 13.76C403.38 13.37 404.53 13.42 404.97 13.86C405.42 14.3 404.63 14.62 403.22 14.56C401.67 14.5 401.35 14.18 402.42 13.76L402.42 13.76ZM85.08 12.42C86.05 12.04 87.2 12.08 87.64 12.53C88.08 12.97 87.29 13.29 85.89 13.23C84.34 13.16 84.02 12.85 85.08 12.42ZM393.08 12.42C394.05 12.04 395.2 12.08 395.64 12.53C396.08 12.97 395.29 13.29 393.89 13.23C392.34 13.16 392.02 12.85 393.08 12.42ZM94.33 11.12C95.25 10.75 96.75 10.75 97.67 11.12C98.58 11.49 97.83 11.79 96 11.79C94.17 11.79 93.42 11.49 94.33 11.12L94.33 11.12ZM382.33 11.12C383.25 10.75 384.75 10.75 385.67 11.12C386.58 11.49 385.83 11.79 384 11.79C382.17 11.79 381.42 11.49 382.33 11.12ZM105.08 9.76C106.05 9.37 107.2 9.42 107.64 9.86C108.08 10.3 107.29 10.62 105.89 10.56C104.34 10.5 104.02 10.18 105.08 9.76ZM373.08 9.76C374.05 9.37 375.2 9.42 375.64 9.86C376.08 10.3 375.29 10.62 373.89 10.56C372.34 10.5 372.02 10.18 373.08 9.76ZM118.33 8.45C119.25 8.08 120.75 8.08 121.67 8.45C122.58 8.82 121.83 9.12 120 9.12C118.17 9.12 117.42 8.82 118.33 8.45L118.33 8.45ZM358.33 8.45C359.25 8.08 360.75 8.08 361.67 8.45C362.58 8.82 361.83 9.12 360 9.12C358.17 9.12 357.42 8.82 358.33 8.45ZM131 7.08C132.28 6.75 134.38 6.75 135.67 7.08C136.95 7.42 135.9 7.69 133.33 7.69C130.77 7.69 129.72 7.42 131 7.08L131 7.08ZM344.33 7.08C345.62 6.75 347.72 6.75 349 7.08C350.28 7.42 349.23 7.69 346.67 7.69C344.1 7.69 343.05 7.42 344.33 7.08ZM148.33 5.75C149.62 5.41 151.72 5.41 153 5.75C154.28 6.08 153.23 6.36 150.67 6.36C148.1 6.36 147.05 6.08 148.33 5.75L148.33 5.75ZM327 5.75C328.28 5.41 330.38 5.41 331.67 5.75C332.95 6.08 331.9 6.36 329.33 6.36C326.77 6.36 325.72 6.08 327 5.75ZM169.67 4.38C171.68 4.07 174.98 4.07 177 4.38C179.02 4.68 177.37 4.93 173.33 4.93C169.3 4.93 167.65 4.68 169.67 4.38L169.67 4.38ZM303 4.38C305.02 4.07 308.32 4.07 310.33 4.38C312.35 4.68 310.7 4.93 306.67 4.93C302.63 4.93 300.98 4.68 303 4.38ZM199.68 3.06C201.34 2.74 203.74 2.75 205.02 3.08C206.29 3.42 204.93 3.68 202 3.66C199.07 3.65 198.02 3.38 199.68 3.06ZM275.68 3.06C277.34 2.74 279.74 2.75 281.02 3.08C282.29 3.42 280.93 3.68 278 3.66C275.07 3.65 274.02 3.38 275.68 3.06Z" />
			<path id="path374" class="shp2" d="M136.97 349.7C139.34 349.41 143.54 349.4 146.3 349.69C149.07 349.98 147.13 350.22 142 350.23C136.87 350.23 134.6 350 136.97 349.7L136.97 349.7ZM230.3 349.7C232.67 349.41 236.87 349.4 239.64 349.69C242.4 349.98 240.47 350.22 235.33 350.23C230.2 350.23 227.94 350 230.3 349.7L230.3 349.7ZM261.08 349.76C262.05 349.37 263.2 349.42 263.64 349.86C264.08 350.3 263.29 350.62 261.89 350.56C260.34 350.5 260.02 350.18 261.08 349.76L261.08 349.76ZM279.75 349.76C280.71 349.37 281.86 349.42 282.31 349.86C282.75 350.3 281.96 350.62 280.56 350.56C279 350.5 278.69 350.18 279.75 349.76L279.75 349.76ZM200 344.92C200 344.69 201.95 342.74 204.33 340.58L208.67 336.67L204.75 341C201.1 345.04 200 345.95 200 344.92ZM286 328C285.55 327.27 285.81 326.67 286.59 326.67C287.36 326.67 288 327.27 288 328C288 328.73 287.74 329.33 287.41 329.33C287.09 329.33 286.45 328.73 286 328ZM169.16 324.33C167.5 322.22 167.55 322.17 169.67 323.83C170.95 324.84 172 325.89 172 326.16C172 327.26 170.91 326.55 169.16 324.33ZM187.75 319.09C188.71 318.7 189.86 318.75 190.31 319.19C190.75 319.64 189.96 319.95 188.56 319.89C187 319.83 186.69 319.51 187.75 319.09L187.75 319.09ZM279.75 319.09C280.71 318.7 281.86 318.75 282.31 319.19C282.75 319.64 281.96 319.95 280.56 319.89C279 319.83 278.69 319.51 279.75 319.09L279.75 319.09ZM307.07 313.33C307.07 309.3 307.32 307.65 307.62 309.67C307.93 311.68 307.93 314.98 307.62 317C307.32 319.02 307.07 317.37 307.07 313.33ZM165.67 314C165.68 311.07 165.96 310.02 166.28 311.68C166.6 313.34 166.58 315.74 166.25 317.02C165.92 318.29 165.65 316.93 165.67 314L165.67 314ZM182.64 316.63C181.71 315.52 181.21 314.34 181.53 314.03C181.84 313.71 182.83 314.63 183.73 316.06C185.66 319.16 185.02 319.5 182.64 316.63L182.64 316.63ZM273.44 312.56C273.5 311 273.82 310.69 274.24 311.75C274.63 312.71 274.58 313.86 274.14 314.31C273.7 314.75 273.38 313.96 273.44 312.56L273.44 312.56ZM289.54 309.33C289.54 307.5 289.85 306.75 290.22 307.67C290.59 308.58 290.59 310.08 290.22 311C289.85 311.92 289.54 311.17 289.54 309.33ZM274.67 307.5C274.67 307.22 275.72 306.17 277 305.16C279.11 303.5 279.16 303.55 277.5 305.67C275.76 307.89 274.67 308.59 274.67 307.5L274.67 307.5ZM262.67 300.83C262.67 300.55 263.72 299.5 265 298.5C267.11 296.84 267.16 296.89 265.5 299C263.76 301.22 262.67 301.93 262.67 300.83L262.67 300.83ZM301.87 298.33L299.33 295.33L302.33 297.87C305.15 300.26 305.94 301.33 304.87 301.33C304.62 301.33 303.27 299.98 301.87 298.33ZM188.33 292.38C190.35 292.07 193.65 292.07 195.67 292.38C197.68 292.68 196.03 292.93 192 292.93C187.97 292.93 186.32 292.68 188.33 292.38L188.33 292.38ZM281.69 292.38C283.71 292.07 286.71 292.08 288.35 292.4C289.99 292.71 288.33 292.96 284.67 292.95C281 292.94 279.66 292.68 281.69 292.38L281.69 292.38ZM241.69 259.08C242.99 258.74 244.79 258.76 245.69 259.13C246.59 259.49 245.53 259.77 243.33 259.74C241.13 259.71 240.39 259.41 241.69 259.08L241.69 259.08ZM223.03 257.74C224.32 257.41 226.12 257.43 227.03 257.79C227.93 258.16 226.87 258.43 224.67 258.41C222.47 258.38 221.73 258.08 223.03 257.74L223.03 257.74ZM223.67 251C243.65 250.79 276.35 250.79 296.33 251C316.32 251.21 299.97 251.38 260 251.38C220.03 251.38 203.68 251.21 223.67 251ZM328.63 235.67L319.33 226L329 235.3C337.98 243.93 339.28 245.33 338.3 245.33C338.09 245.33 333.74 240.98 328.63 235.67L328.63 235.67ZM131.67 237.69C134.78 237.41 139.88 237.41 143 237.69C146.12 237.97 143.57 238.2 137.33 238.2C131.1 238.2 128.55 237.97 131.67 237.69L131.67 237.69ZM188.21 229.33C188.21 227.5 188.51 226.75 188.88 227.67C189.25 228.58 189.25 230.08 188.88 231C188.51 231.92 188.21 231.17 188.21 229.33L188.21 229.33ZM125.59 212.67C125.62 210.47 125.92 209.73 126.26 211.03C126.6 212.32 126.57 214.12 126.21 215.03C125.84 215.93 125.57 214.87 125.59 212.67ZM142.5 205C144.1 202.95 146.56 202.7 162.5 202.96L180.67 203.25L162.75 203.66C151.29 203.93 144.09 204.67 142.75 205.71C140.92 207.14 140.88 207.06 142.5 205ZM156.28 175.01C161.19 174.76 169.59 174.76 174.94 175.01C180.29 175.26 176.27 175.47 166 175.47C155.73 175.48 151.36 175.27 156.28 175.01L156.28 175.01ZM294.5 157.67C292.8 155.51 292.87 155.48 295.33 157.29C296.8 158.37 298.25 159.42 298.56 159.62C298.86 159.83 298.48 160 297.72 160C296.95 160 295.5 158.95 294.5 157.67L294.5 157.67ZM263.83 153.67C262.21 151.6 262.24 151.52 264.12 152.99C265.29 153.9 266.74 154.2 267.34 153.66C267.94 153.11 268 153.42 267.47 154.33C266.23 156.49 266.01 156.45 263.83 153.67L263.83 153.67ZM128.62 152.33C148.41 151.96 150.14 151.72 153.28 148.96L156.67 146L153.43 149.67L150.2 153.33L128.77 153.04L107.33 152.74L128.62 152.33ZM250.57 148.33L247.33 144.67L251 147.9C254.43 150.92 255.28 152 254.23 152C253.99 152 252.34 150.35 250.57 148.33L250.57 148.33ZM269.33 150.16C269.33 149.89 270.38 148.84 271.67 147.83C273.78 146.17 273.83 146.22 272.17 148.33C270.43 150.55 269.33 151.26 269.33 150.16ZM276.36 145.74C277.66 145.4 279.46 145.43 280.36 145.79C281.26 146.16 280.2 146.43 278 146.41C275.8 146.38 275.06 146.08 276.36 145.74L276.36 145.74ZM304.67 144C305.99 142.53 307.38 141.33 307.75 141.33C308.11 141.33 307.33 142.53 306 144C304.67 145.47 303.29 146.67 302.92 146.67C302.55 146.67 303.34 145.47 304.67 144ZM250.57 139L247.33 135.33L251 138.57C254.43 141.59 255.28 142.67 254.23 142.67C253.99 142.67 252.34 141.02 250.57 139L250.57 139ZM198.67 139.41C198.67 138.36 199.21 137.15 199.88 136.74C200.54 136.33 200.77 137.2 200.39 138.66C199.57 141.78 198.67 142.17 198.67 139.41ZM319.03 137.74C320.32 137.4 322.12 137.43 323.03 137.79C323.93 138.16 322.87 138.43 320.67 138.41C318.47 138.38 317.73 138.08 319.03 137.74L319.03 137.74ZM381.21 134.39L385.75 129.44L373.87 129L362 128.55L374.33 128.27C381.12 128.12 386.67 128.48 386.67 129.07C386.67 129.66 384.42 132.21 381.67 134.74L376.67 139.33L381.21 134.39ZM235.9 132.33L232.67 128.67L236.33 131.9C239.76 134.92 240.61 136 239.57 136C239.33 136 237.68 134.35 235.9 132.33L235.9 132.33ZM124.42 131C139.69 130.79 164.29 130.79 179.09 131C193.89 131.22 181.4 131.39 151.33 131.39C121.27 131.39 109.16 131.22 124.42 131L124.42 131ZM237.23 124.33L234 120.67L237.67 123.9C241.09 126.92 241.94 128 240.9 128C240.66 128 239.01 126.35 237.23 124.33ZM93.33 125C93.33 124.45 108.81 124 127.73 124C153.37 124 162.61 123.58 164 122.33C165.59 120.92 165.61 121.01 164.14 122.96C162.6 125 158.69 125.29 127.87 125.62C108.87 125.83 93.33 125.55 93.33 125ZM221.92 117L218 112.67L222.33 116.58C226.37 120.23 227.28 121.33 226.25 121.33C226.02 121.33 224.07 119.38 221.92 117ZM174 119.09C193.53 118.13 213.03 118.08 212.46 119C212.12 119.55 201.53 119.88 188.92 119.74C176.31 119.6 169.6 119.31 174 119.09ZM222.57 108.33L219.33 104.67L223 107.9C226.43 110.92 227.28 112 226.23 112C225.99 112 224.34 110.35 222.57 108.33L222.57 108.33ZM291.67 111.12C292.58 110.75 294.08 110.75 295 111.12C295.92 111.49 295.17 111.79 293.33 111.79C291.5 111.79 290.75 111.49 291.67 111.12ZM298.8 108.39C299.77 106.78 300.85 105.74 301.2 106.09C301.55 106.44 300.76 107.77 299.44 109.03C297.14 111.23 297.11 111.2 298.8 108.39L298.8 108.39ZM285.33 101.49C285.33 100.19 290.52 95.34 291.08 96.12C291.29 96.42 290.09 98 288.4 99.62C286.71 101.24 285.33 102.09 285.33 101.49L285.33 101.49ZM111.09 100.33C130.76 100.13 162.56 100.13 181.76 100.33C200.96 100.54 184.87 100.71 146 100.71C107.13 100.71 91.43 100.54 111.09 100.33L111.09 100.33ZM309.87 93L307.33 90L310.33 92.54C313.15 94.93 313.94 96 312.87 96C312.62 96 311.27 94.65 309.87 93ZM387.64 91.83C388.55 90.92 389.62 90.51 390.04 90.92C390.45 91.33 389.71 92.08 388.39 92.58C386.49 93.3 386.34 93.15 387.64 91.83L387.64 91.83ZM280.54 78.33L278 75.33L281 77.87C283.82 80.26 284.61 81.33 283.54 81.33C283.29 81.33 281.94 79.98 280.54 78.33ZM44.54 67.67L42 64.67L45 67.21C47.82 69.59 48.61 70.67 47.54 70.67C47.29 70.67 45.94 69.32 44.54 67.67Z" />
			<path id="path372" fill-rule="evenodd" class="shp3" d="M224.05 469.22C175.46 448.52 142.98 427.01 108.52 392.72C65.21 349.62 36.34 300.57 18.25 239.33C7.56 203.15 0.03 151.08 0.03 113.33C0.04 99.23 2.98 60.58 5.49 41.75L7.12 29.5L17.23 26.78C60.57 15.08 108.55 8.57 180.1 4.68C226.2 2.17 253.8 2.17 299.9 4.68C371.56 8.58 416.33 14.6 460.12 26.21L472.91 29.6L474.52 41.92C477.03 61.13 479.94 99.36 479.96 113.33C479.99 150.94 472.45 203.12 461.75 239.33C443.7 300.43 414.82 349.49 371.46 392.73C342.96 421.14 318.34 438.92 282.98 456.62C269.22 463.51 247.59 473.06 240.67 475.3C239.93 475.54 232.45 472.8 224.05 469.22ZM428.69 298C457.04 240.3 469.33 184.29 469.33 112.83C469.33 85.73 467.06 49.59 464.71 39.27C464.2 37.05 461.78 36 451.71 33.6C418.2 25.64 382.98 20.18 340.67 16.4C302.02 12.94 177.98 12.94 139.33 16.4C97.02 20.18 61.8 25.64 28.29 33.6C18.22 36 15.8 37.05 15.29 39.27C12.94 49.59 10.67 85.73 10.67 112.83C10.67 148.55 12.76 171.42 18.81 202C25.92 237.92 35.06 264.92 51.35 298.09C82.01 360.55 134.27 414.15 195.08 445.51C209.32 452.85 236.92 465.12 239.51 465.25C240.34 465.3 246.94 462.87 254.18 459.87C331.99 427.55 392.7 371.24 428.69 298Z" />
			<path id="path370" class="shp4" d="M363.28 365.24C362.8 364.46 362.69 363.54 363.04 363.19C363.38 362.84 364.03 363.48 364.46 364.61C365.36 366.96 364.59 367.37 363.28 365.24ZM366.67 366.16C366.67 365.87 367.87 365.33 369.34 364.95C370.8 364.56 371.67 364.79 371.26 365.46C370.54 366.62 366.67 367.21 366.67 366.16ZM175 351.05C177.02 350.74 180.32 350.74 182.33 351.05C184.35 351.35 182.7 351.6 178.67 351.6C174.63 351.6 172.98 351.35 175 351.05L175 351.05ZM267.69 351.03C270.09 350.74 273.69 350.74 275.69 351.05C277.69 351.35 275.73 351.59 271.33 351.59C266.93 351.58 265.29 351.33 267.69 351.03ZM225.44 348.56C225.5 347 225.82 346.69 226.24 347.75C226.63 348.71 226.58 349.86 226.14 350.31C225.7 350.75 225.38 349.96 225.44 348.56L225.44 348.56ZM158.77 345.89C158.84 344.34 159.15 344.02 159.58 345.08C159.96 346.05 159.92 347.2 159.47 347.64C159.03 348.08 158.71 347.3 158.77 345.89L158.77 345.89ZM296 342C297.72 340.17 299.43 338.67 299.8 338.67C300.16 338.67 299.06 340.17 297.33 342C295.61 343.83 293.9 345.33 293.54 345.33C293.17 345.33 294.28 343.83 296 342ZM182.42 329.76C183.38 329.37 184.53 329.42 184.97 329.86C185.42 330.3 184.63 330.62 183.22 330.56C181.67 330.5 181.35 330.18 182.42 329.76L182.42 329.76ZM274.42 329.76C275.38 329.37 276.53 329.42 276.97 329.86C277.42 330.3 276.63 330.62 275.22 330.56C273.67 330.5 273.35 330.18 274.42 329.76L274.42 329.76ZM214.92 314C214.67 307.84 216.43 303.74 217.8 307.29C218.26 308.49 218.08 309.13 217.4 308.71C216.71 308.28 215.93 310.5 215.64 313.64L215.13 319.33L214.92 314ZM257.64 314.67C257.64 312.1 257.92 311.05 258.25 312.33C258.59 313.62 258.59 315.72 258.25 317C257.92 318.28 257.64 317.23 257.64 314.67ZM275.83 316.33C274.17 314.22 274.22 314.17 276.33 315.83C277.62 316.84 278.67 317.89 278.67 318.16C278.67 319.26 277.57 318.55 275.83 316.33ZM282.78 318.29C283.08 318.08 284.53 317.03 286 315.96C288.47 314.15 288.53 314.17 286.84 316.33C285.83 317.62 284.38 318.67 283.61 318.67C282.85 318.67 282.47 318.5 282.78 318.29L282.78 318.29ZM128.68 316.02C128.21 315.26 128.74 315.04 129.93 315.49C132.24 316.38 132.66 317.33 130.75 317.33C130.06 317.33 129.12 316.74 128.68 316.02L128.68 316.02ZM140.75 312.39C140.03 310.49 140.18 310.34 141.5 311.64C142.41 312.55 142.82 313.62 142.41 314.04C142 314.45 141.25 313.71 140.75 312.39L140.75 312.39ZM195.42 312.94C195.92 311.63 196.67 310.89 197.08 311.3C197.49 311.71 197.08 312.78 196.17 313.69C194.85 315 194.7 314.84 195.42 312.94L195.42 312.94ZM234 312C233.55 311.27 233.81 310.67 234.59 310.67C235.36 310.67 236 311.27 236 312C236 312.73 235.74 313.33 235.41 313.33C235.09 313.33 234.45 312.73 234 312ZM274.67 309.41C274.67 308.72 275.26 307.79 275.98 307.34C276.74 306.88 276.96 307.41 276.51 308.6C275.62 310.91 274.67 311.33 274.67 309.41ZM195.42 305.72C194.7 303.82 194.85 303.67 196.17 304.98C197.08 305.88 197.49 306.96 197.08 307.37C196.67 307.78 195.92 307.04 195.42 305.72L195.42 305.72ZM185.92 304.77C187.34 303.61 189.75 302.72 191.25 302.78C193.46 302.87 193.3 303.11 190.44 303.97C188.48 304.56 186.08 305.46 185.1 305.96C184.13 306.46 184.5 305.92 185.92 304.77L185.92 304.77ZM287.27 305.46C286.57 304.8 284.8 303.97 283.33 303.62C280.8 303.01 280.81 302.97 283.5 302.82C285.06 302.74 287.09 303.57 288 304.67C289.81 306.85 289.3 307.4 287.27 305.46L287.27 305.46ZM326.67 296.67C323.43 293.37 321.08 290.67 321.44 290.67C321.81 290.67 324.76 293.37 328 296.67C331.24 299.97 333.59 302.67 333.22 302.67C332.86 302.67 329.91 299.97 326.67 296.67L326.67 296.67ZM156 293.33L146 292.48L155.59 292.24C160.86 292.11 165.55 292.6 166 293.33C166.45 294.07 166.64 294.56 166.41 294.43C166.19 294.29 161.5 293.8 156 293.33ZM244.33 292.36C247.08 292.07 251.58 292.07 254.33 292.36C257.08 292.65 254.83 292.89 249.33 292.89C243.83 292.89 241.58 292.65 244.33 292.36ZM275.75 292.42C276.71 292.04 277.86 292.08 278.31 292.53C278.75 292.97 277.96 293.29 276.56 293.23C275 293.16 274.69 292.85 275.75 292.42L275.75 292.42ZM291.75 292.42C292.71 292.04 293.86 292.08 294.31 292.53C294.75 292.97 293.96 293.29 292.56 293.23C291 293.16 290.69 292.85 291.75 292.42L291.75 292.42ZM249.08 260.42C250.05 260.04 251.2 260.08 251.64 260.53C252.08 260.97 251.29 261.29 249.89 261.23C248.34 261.16 248.02 260.85 249.08 260.42L249.08 260.42ZM237.08 259.09C238.05 258.7 239.2 258.75 239.64 259.19C240.08 259.64 239.29 259.95 237.89 259.89C236.34 259.83 236.02 259.51 237.08 259.09L237.08 259.09ZM187.17 256.71C186.75 255.63 186.72 253.98 187.1 253.04C187.48 252.1 187.84 252.67 187.89 254.29C188 257.17 188.49 257.27 205 257.67L222 258.09L204.96 258.38C191.02 258.61 187.78 258.31 187.17 256.71L187.17 256.71ZM125.64 241.33C125.64 238.77 125.92 237.72 126.25 239C126.59 240.28 126.59 242.38 126.25 243.67C125.92 244.95 125.64 243.9 125.64 241.33L125.64 241.33ZM163.06 231.01C168.04 230.75 175.84 230.75 180.39 231.01C184.94 231.27 180.87 231.48 171.33 231.48C161.8 231.48 158.07 231.27 163.06 231.01L163.06 231.01ZM318.65 224.64C317.18 222.87 308.76 222.66 251.94 222.98C216.18 223.17 187.2 222.88 187.54 222.33C187.88 221.78 217.13 221.33 252.54 221.33C315.23 221.33 316.98 221.4 319.33 224C320.66 225.47 321.43 226.67 321.04 226.67C320.65 226.67 319.57 225.76 318.65 224.64ZM160 216.36C248.45 215.44 315.69 215.43 315.13 216.33C314.79 216.88 272.09 217.19 220.25 217.02C168.41 216.85 141.3 216.55 160 216.36ZM128.33 208.38C130.35 208.07 133.65 208.07 135.67 208.38C137.68 208.68 136.03 208.93 132 208.93C127.97 208.93 126.32 208.68 128.33 208.38L128.33 208.38ZM206.33 193.67C220.45 193.45 243.55 193.45 257.67 193.67C271.78 193.88 260.23 194.06 232 194.06C203.77 194.06 192.22 193.88 206.33 193.67ZM120.89 188.44C120.4 187.96 120.01 186.91 120.02 186.11C120.03 185.25 120.46 185.33 121.09 186.32C121.9 187.6 138.44 188.06 193.4 188.33L264.67 188.69L193.22 189.01C153.93 189.19 121.38 188.93 120.89 188.44L120.89 188.44ZM119.85 180.94C120.44 180.36 125.96 180.07 132.12 180.29L143.33 180.69L131.06 181.34C124.31 181.7 119.27 181.52 119.85 180.94L119.85 180.94ZM251.9 177.67L248.67 174L252.33 177.23C255.76 180.25 256.61 181.33 255.57 181.33C255.33 181.33 253.68 179.68 251.9 177.67L251.9 177.67ZM144 178.16C144 177.89 145.05 176.84 146.33 175.83C148.45 174.17 148.5 174.22 146.84 176.33C145.09 178.55 144 179.26 144 178.16ZM173.74 159C221.18 158.73 237.23 158.25 236.53 157.11C235.95 156.17 236.18 155.95 237.13 156.54C237.97 157.06 238.67 158.06 238.67 158.75C238.67 159.52 213.87 159.88 174.33 159.68L110 159.36L173.74 159ZM357.87 157L355.33 154L358.33 156.54C361.15 158.93 361.94 160 360.87 160C360.62 160 359.27 158.65 357.87 157ZM256 154.93C256 154.09 254.96 153.75 253.67 154.17C251.72 154.8 251.66 154.69 253.32 153.51C255.41 152.04 258.6 153.84 256.91 155.53C256.41 156.03 256 155.76 256 154.93ZM290.5 153.67C288.84 151.55 288.89 151.5 291 153.16C292.28 154.17 293.33 155.22 293.33 155.5C293.33 156.59 292.24 155.89 290.5 153.67L290.5 153.67ZM258.57 148.33L255.33 144.67L259 147.9C262.43 150.92 263.28 152 262.23 152C261.99 152 260.34 150.35 258.57 148.33L258.57 148.33ZM243.25 139.67L239.33 135.33L243.67 139.25C246.05 141.4 248 143.35 248 143.58C248 144.61 246.9 143.71 243.25 139.67L243.25 139.67ZM243.25 131.67L239.33 127.33L243.67 131.25C247.71 134.9 248.61 136 247.58 136C247.35 136 245.4 134.05 243.25 131.67L243.25 131.67ZM229.23 124.33L226 120.67L229.67 123.9C233.09 126.92 233.94 128 232.9 128C232.66 128 231.01 126.35 229.23 124.33ZM358.33 127.12C359.25 126.75 360.75 126.75 361.67 127.12C362.58 127.49 361.83 127.79 360 127.79C358.17 127.79 357.42 127.49 358.33 127.12ZM230.57 117.67L227.33 114L231 117.23C233.02 119.01 234.67 120.66 234.67 120.9C234.67 121.94 233.59 121.09 230.57 117.67ZM330.5 116.33C328.84 114.22 328.89 114.17 331 115.83C333.22 117.57 333.93 118.67 332.83 118.67C332.55 118.67 331.5 117.62 330.5 116.33ZM216.75 111.29C215.32 110.21 214.8 109.33 215.58 109.33C216.37 109.33 217.75 110.23 218.67 111.33C220.74 113.84 220.09 113.82 216.75 111.29L216.75 111.29ZM287.83 108.33C286.17 106.22 286.22 106.17 288.33 107.83C290.55 109.57 291.26 110.67 290.16 110.67C289.89 110.67 288.84 109.62 287.83 108.33ZM217.16 103C215.5 100.89 215.55 100.84 217.67 102.5C219.89 104.24 220.59 105.33 219.5 105.33C219.22 105.33 218.17 104.28 217.16 103ZM299 101C297.57 97.08 297.6 96.91 299.37 99.25C301.07 101.49 302.07 105.33 300.96 105.33C300.75 105.33 299.87 103.38 299 101L299 101ZM321.67 97.75C322.95 97.41 325.05 97.41 326.33 97.75C327.62 98.08 326.57 98.36 324 98.36C321.43 98.36 320.38 98.08 321.67 97.75ZM293.08 96.42C294.05 96.04 295.2 96.08 295.64 96.53C296.08 96.97 295.29 97.29 293.89 97.23C292.34 97.16 292.02 96.85 293.08 96.42L293.08 96.42ZM179.84 87.63C180.41 87.05 188.93 86.76 198.77 86.96L216.67 87.34L197.73 88.01C187.31 88.37 179.26 88.2 179.84 87.63L179.84 87.63ZM291.75 83.09C292.71 82.7 293.86 82.75 294.31 83.19C294.75 83.64 293.96 83.95 292.56 83.89C291 83.83 290.69 83.51 291.75 83.09L291.75 83.09ZM226.67 79.33C228.39 77.5 230.1 76 230.46 76C230.83 76 229.72 77.5 228 79.33C226.28 81.17 224.57 82.67 224.2 82.67C223.84 82.67 224.94 81.17 226.67 79.33ZM363.39 81.43C362.97 80.74 363.13 79.87 363.76 79.48C364.38 79.1 364.89 79.66 364.89 80.73C364.89 82.97 364.47 83.17 363.39 81.43ZM395.28 75.91C394.8 75.13 394.69 74.2 395.04 73.85C395.38 73.5 396.03 74.14 396.46 75.28C397.36 77.63 396.59 78.04 395.28 75.91ZM377.08 68.42C378.05 68.04 379.2 68.08 379.64 68.53C380.08 68.97 379.29 69.29 377.89 69.23C376.34 69.16 376.02 68.85 377.08 68.42L377.08 68.42ZM396.67 66.67C396.21 65.93 396.48 65.33 397.25 65.33C398.03 65.33 398.67 65.93 398.67 66.67C398.67 67.4 398.4 68 398.08 68C397.76 68 397.12 67.4 396.67 66.67L396.67 66.67ZM201.33 63.5C201.33 63.22 202.38 62.17 203.67 61.16C205.78 59.5 205.83 59.55 204.17 61.67C202.43 63.89 201.33 64.59 201.33 63.5ZM241.92 54.33L238 50L242.33 53.92C246.37 57.57 247.28 58.67 246.25 58.67C246.02 58.67 244.07 56.72 241.92 54.33L241.92 54.33Z" />
			<path id="path368" class="shp5" d="M236.41 464.28C235.54 463.73 237.15 463.27 240 463.27C242.85 463.27 244.46 463.73 243.59 464.28C242.71 464.84 241.1 465.29 240 465.29C238.9 465.29 237.29 464.84 236.41 464.28ZM229.33 461.33C228.23 460.62 227.93 460.04 228.67 460.04C229.4 460.04 230.9 460.62 232 461.33C233.1 462.04 233.4 462.63 232.67 462.63C231.93 462.63 230.43 462.04 229.33 461.33ZM248 461.33C249.1 460.62 250.6 460.04 251.33 460.04C252.07 460.04 251.77 460.62 250.67 461.33C249.57 462.04 248.07 462.63 247.33 462.63C246.6 462.63 246.9 462.04 248 461.33ZM212 454C210.17 452.95 209.27 452.09 210 452.09C210.73 452.09 212.83 452.95 214.67 454C216.5 455.05 217.4 455.91 216.67 455.91C215.93 455.91 213.83 455.05 212 454ZM265.33 454C267.17 452.95 269.27 452.09 270 452.09C270.73 452.09 269.83 452.95 268 454C266.17 455.05 264.07 455.91 263.33 455.91C262.6 455.91 263.5 455.05 265.33 454ZM189 442.58C186.25 441.12 184 439.64 184 439.27C184 438.91 186.4 439.84 189.33 441.33C192.27 442.83 194.67 444.34 194.67 444.69C194.67 445.57 194.66 445.56 189 442.58L189 442.58ZM285.33 444.72C285.33 444.35 287.73 442.83 290.67 441.33C293.6 439.84 296 438.91 296 439.28C296 439.65 293.6 441.17 290.67 442.67C287.73 444.16 285.33 445.09 285.33 444.72ZM179.25 436.59C176.77 434.6 176.79 434.58 179.67 435.97C181.32 436.77 182.67 437.71 182.67 438.05C182.67 439.07 181.98 438.77 179.25 436.59ZM297.33 438.09C297.33 437.73 298.53 436.78 300 436C301.47 435.22 302.67 434.87 302.67 435.24C302.67 435.61 301.47 436.55 300 437.33C298.53 438.12 297.33 438.46 297.33 438.09L297.33 438.09ZM169.98 431.15C163.17 426.64 160.77 424.26 166.09 427.29C170.77 429.95 177 434.59 175.98 434.64C175.6 434.65 172.9 433.08 169.98 431.15L169.98 431.15ZM306.58 432.25C308.36 430.8 311.66 428.6 313.91 427.36L318 425.11L314.75 427.75C312.97 429.2 309.67 431.4 307.42 432.64L303.33 434.89L306.58 432.25ZM158.5 423C156.84 420.89 156.89 420.84 159 422.5C160.28 423.5 161.33 424.55 161.33 424.83C161.33 425.93 160.24 425.22 158.5 423ZM318.67 424.83C318.67 424.55 319.72 423.5 321 422.5C323.11 420.84 323.16 420.89 321.5 423C319.76 425.22 318.67 425.93 318.67 424.83L318.67 424.83ZM146 413.85L140.67 409.08L146.33 413.32C151.21 416.97 152.97 418.72 151.67 418.65C151.48 418.64 148.93 416.48 146 413.85ZM328 418.22C328 417.86 330.4 415.66 333.33 413.33C336.27 411.01 338.67 409.41 338.67 409.78C338.67 410.14 336.27 412.34 333.33 414.67C330.4 416.99 328 418.59 328 418.22L328 418.22ZM129.94 400.56L120.67 391.79L130.33 400.17C139.23 407.88 140.7 409.33 139.6 409.33C139.39 409.33 135.04 405.39 129.94 400.56L129.94 400.56ZM340 409.06C340 408.78 344.35 404.71 349.67 400.01C354.98 395.32 357.83 393.16 356 395.21C352.48 399.14 340 409.95 340 409.06ZM102.58 373.67C94.41 365.01 90.09 360 90.8 360C91.12 360 95.47 364.5 100.45 370C110.49 381.09 111.94 383.57 102.58 373.67ZM379.39 370.33C384.46 364.65 388.83 360 389.1 360C389.99 360 378.98 372.61 374.54 376.67C372.14 378.87 374.32 376.02 379.39 370.33ZM85.33 353.33C83.01 350.4 81.41 348 81.78 348C82.14 348 84.34 350.4 86.67 353.33C88.99 356.27 90.59 358.67 90.22 358.67C89.86 358.67 87.66 356.27 85.33 353.33L85.33 353.33ZM393.33 353.33C395.66 350.4 397.86 348 398.22 348C398.59 348 396.99 350.4 394.67 353.33C392.34 356.27 390.14 358.67 389.78 358.67C389.41 358.67 391.01 356.27 393.33 353.33L393.33 353.33ZM202.67 343.5C202.67 343.22 203.72 342.17 205 341.16C207.11 339.5 207.16 339.55 205.5 341.67C203.76 343.89 202.67 344.59 202.67 343.5ZM74.67 338.67C73.1 336.47 72.12 334.67 72.49 334.67C72.85 334.67 74.43 336.47 76 338.67C77.57 340.87 78.55 342.67 78.18 342.67C77.81 342.67 76.23 340.87 74.67 338.67ZM404 338.67C405.57 336.47 407.15 334.67 407.51 334.67C407.88 334.67 406.9 336.47 405.33 338.67C403.77 340.87 402.19 342.67 401.82 342.67C401.45 342.67 402.43 340.87 404 338.67ZM69.84 331.67C69.3 330.75 68 328.5 66.96 326.67C65.13 323.47 65.14 323.44 67.29 326C70 329.23 72.33 333.33 71.46 333.33C71.11 333.33 70.38 332.58 69.84 331.67ZM409.16 331.33C409.88 329.87 411.45 327.47 412.64 326L414.81 323.33L413.5 326C412.78 327.47 411.22 329.87 410.02 331.33L407.85 334L409.16 331.33ZM62.67 320C61.88 318.53 61.54 317.33 61.91 317.33C62.27 317.33 63.22 318.53 64 320C64.78 321.47 65.13 322.67 64.76 322.67C64.39 322.67 63.45 321.47 62.67 320L62.67 320ZM416 320C416.78 318.53 417.73 317.33 418.09 317.33C418.46 317.33 418.12 318.53 417.33 320C416.55 321.47 415.61 322.67 415.24 322.67C414.87 322.67 415.22 321.47 416 320L416 320ZM186.67 317.25C186.67 316.48 186.07 316.21 185.33 316.67C184.6 317.12 183.95 317.01 183.89 316.41C183.83 315.82 183.62 313.89 183.43 312.13C182.7 305.4 192.94 300.94 195.99 306.65C197.06 308.66 196.9 310.31 195.32 313.36C194.16 315.6 192.65 317.07 191.94 316.63C191.24 316.2 190.67 316.48 190.67 317.25C190.67 318.03 189.77 318.67 188.67 318.67C187.57 318.67 186.67 318.03 186.67 317.25L186.67 317.25ZM276.7 316.03C274.64 313.76 274.54 312.85 275.98 309.38C276.89 307.17 278.17 305.7 278.82 306.1C279.47 306.5 280 306.19 280 305.41C280 303.34 285.21 303.69 287.43 305.9C290.2 308.68 289.77 311.68 286.06 315.39C282.1 319.35 279.84 319.51 276.7 316.03L276.7 316.03ZM56 308C54.5 305.07 53.58 302.67 53.95 302.67C54.31 302.67 55.84 305.07 57.33 308C58.83 310.93 59.75 313.33 59.39 313.33C59.02 313.33 57.5 310.93 56 308L56 308ZM422.67 308C424.16 305.07 425.69 302.67 426.05 302.67C426.42 302.67 425.5 305.07 424 308C422.5 310.93 420.98 313.33 420.61 313.33C420.25 313.33 421.17 310.93 422.67 308ZM302.5 297.67C300.84 295.55 300.89 295.5 303 297.16C304.28 298.17 305.33 299.22 305.33 299.5C305.33 300.59 304.24 299.89 302.5 297.67L302.5 297.67ZM46.88 289.94C44.65 285.04 45.08 283.99 47.49 288.45C48.62 290.53 49.29 292.49 48.99 292.79C48.68 293.1 47.74 291.81 46.88 289.94ZM430.76 292.67C430.76 291.93 431.62 289.83 432.67 288C433.71 286.17 434.57 285.27 434.57 286C434.57 286.73 433.71 288.83 432.67 290.67C431.62 292.5 430.76 293.4 430.76 292.67ZM40.83 276.62C39.54 273.26 39.92 272.4 41.5 275.1C42.27 276.44 42.63 277.81 42.29 278.16C41.94 278.5 41.29 277.81 40.83 276.62L40.83 276.62ZM437.37 278C437.37 277.27 437.96 275.77 438.67 274.67C439.38 273.57 439.96 273.27 439.96 274C439.96 274.73 439.38 276.23 438.67 277.33C437.96 278.43 437.37 278.73 437.37 278ZM34.16 259.28C32.88 255.93 33.26 255.06 34.83 257.77C35.61 259.1 35.96 260.48 35.62 260.82C35.28 261.17 34.62 260.47 34.16 259.28ZM444.04 260.67C444.04 259.93 444.62 258.43 445.33 257.33C446.04 256.23 446.63 255.93 446.63 256.67C446.63 257.4 446.04 258.9 445.33 260C444.62 261.1 444.04 261.4 444.04 260.67ZM25.44 231.22C25.5 229.67 25.82 229.35 26.24 230.42C26.63 231.38 26.58 232.53 26.14 232.97C25.7 233.42 25.38 232.63 25.44 231.22L25.44 231.22ZM453.44 231.22C453.5 229.67 453.82 229.35 454.24 230.42C454.63 231.38 454.58 232.53 454.14 232.97C453.7 233.42 453.38 232.63 453.44 231.22L453.44 231.22ZM22.77 221.89C22.84 220.34 23.15 220.02 23.58 221.08C23.96 222.05 23.92 223.2 23.47 223.64C23.03 224.08 22.71 223.29 22.77 221.89L22.77 221.89ZM456.11 221.89C456.17 220.34 456.49 220.02 456.91 221.08C457.3 222.05 457.25 223.2 456.81 223.64C456.36 224.08 456.05 223.29 456.11 221.89L456.11 221.89ZM21.44 215.22C21.5 213.67 21.82 213.35 22.24 214.42C22.63 215.38 22.58 216.53 22.14 216.97C21.7 217.42 21.38 216.63 21.44 215.22L21.44 215.22ZM457.44 215.22C457.5 213.67 457.82 213.35 458.24 214.42C458.63 215.38 458.58 216.53 458.14 216.97C457.7 217.42 457.38 216.63 457.44 215.22L457.44 215.22ZM20.11 209.89C20.17 208.34 20.49 208.02 20.91 209.08C21.3 210.05 21.25 211.2 20.81 211.64C20.36 212.08 20.05 211.29 20.11 209.89L20.11 209.89ZM458.77 209.89C458.84 208.34 459.15 208.02 459.58 209.08C459.96 210.05 459.92 211.2 459.47 211.64C459.03 212.08 458.71 211.29 458.77 209.89L458.77 209.89ZM18.77 203.22C18.84 201.67 19.15 201.35 19.58 202.42C19.96 203.38 19.92 204.53 19.47 204.97C19.03 205.42 18.71 204.63 18.77 203.22L18.77 203.22ZM460.11 203.22C460.17 201.67 460.49 201.35 460.91 202.42C461.3 203.38 461.25 204.53 460.81 204.97C460.36 205.42 460.05 204.63 460.11 203.22L460.11 203.22ZM17.44 196.56C17.5 195 17.82 194.69 18.24 195.75C18.63 196.71 18.58 197.86 18.14 198.31C17.7 198.75 17.38 197.96 17.44 196.56L17.44 196.56ZM461.44 196.56C461.5 195 461.82 194.69 462.24 195.75C462.63 196.71 462.58 197.86 462.14 198.31C461.7 198.75 461.38 197.96 461.44 196.56L461.44 196.56ZM16.21 189.33C16.21 187.5 16.51 186.75 16.88 187.67C17.25 188.58 17.25 190.08 16.88 191C16.51 191.92 16.21 191.17 16.21 189.33L16.21 189.33ZM462.88 189.33C462.88 187.5 463.18 186.75 463.55 187.67C463.92 188.58 463.92 190.08 463.55 191C463.18 191.92 462.88 191.17 462.88 189.33L462.88 189.33ZM14.93 180.67C14.95 178.47 15.25 177.73 15.59 179.03C15.93 180.32 15.91 182.12 15.54 183.03C15.18 183.93 14.9 182.87 14.93 180.67ZM464.26 180.67C464.29 178.47 464.59 177.73 464.92 179.03C465.26 180.32 465.24 182.12 464.87 183.03C464.51 183.93 464.23 182.87 464.26 180.67L464.26 180.67ZM13.54 170.67C13.54 168.83 13.85 168.08 14.22 169C14.59 169.92 14.59 171.42 14.22 172.33C13.85 173.25 13.54 172.5 13.54 170.67L13.54 170.67ZM465.54 170.67C465.54 168.83 465.85 168.08 466.22 169C466.59 169.92 466.59 171.42 466.22 172.33C465.85 173.25 465.54 172.5 465.54 170.67L465.54 170.67ZM198.93 164.34C206.77 164.1 219.97 164.1 228.26 164.34C236.55 164.57 230.13 164.76 214 164.77C197.87 164.77 191.08 164.58 198.93 164.34L198.93 164.34ZM12.34 158C12.35 155.07 12.62 154.02 12.94 155.68C13.26 157.34 13.25 159.74 12.92 161.02C12.58 162.29 12.32 160.93 12.34 158L12.34 158ZM467 158C467.02 155.07 467.29 154.02 467.61 155.68C467.93 157.34 467.92 159.74 467.58 161.02C467.25 162.29 466.99 160.93 467 158L467 158ZM11.05 143.33C11.06 139.67 11.32 138.32 11.62 140.35C11.93 142.38 11.92 145.38 11.61 147.02C11.29 148.66 11.04 147 11.05 143.33ZM468.38 143.33C468.39 139.67 468.65 138.32 468.96 140.35C469.26 142.38 469.26 145.38 468.94 147.02C468.62 148.66 468.37 147 468.38 143.33L468.38 143.33ZM288.84 107.99C285.4 104.51 286.76 99.35 291.23 98.98C293.05 98.83 295.28 98.55 296.18 98.35C297.07 98.16 298.43 99.69 299.19 101.75C300.27 104.69 300.15 105.75 298.62 106.72C297.54 107.4 297.27 107.98 298 108C298.73 108.02 298.43 108.62 297.33 109.33C294.37 111.25 291.64 110.82 288.84 107.99L288.84 107.99ZM96.33 92.33C110.82 92.12 134.52 92.12 149 92.33C163.48 92.55 151.63 92.73 122.67 92.73C93.7 92.73 81.85 92.55 96.33 92.33ZM11.03 81.33C11.03 78.03 11.29 76.68 11.61 78.33C11.93 79.98 11.93 82.68 11.61 84.33C11.29 85.98 11.03 84.63 11.03 81.33ZM468.36 81.33C468.36 78.03 468.62 76.68 468.94 78.33C469.26 79.98 469.26 82.68 468.94 84.33C468.62 85.98 468.36 84.63 468.36 81.33ZM12.34 66C12.35 63.07 12.62 62.02 12.94 63.68C13.26 65.34 13.25 67.74 12.92 69.02C12.58 70.29 12.32 68.93 12.34 66ZM467 66C467.02 63.07 467.29 62.02 467.61 63.68C467.93 65.34 467.92 67.74 467.58 69.02C467.25 70.29 466.99 68.93 467 66L467 66ZM13.54 52C13.54 50.17 13.85 49.42 14.22 50.33C14.59 51.25 14.59 52.75 14.22 53.67C13.85 54.58 13.54 53.83 13.54 52ZM465.54 52C465.54 50.17 465.85 49.42 466.22 50.33C466.59 51.25 466.59 52.75 466.22 53.67C465.85 54.58 465.54 53.83 465.54 52ZM14.98 42.67C14.98 40.1 15.25 39.05 15.59 40.33C15.92 41.62 15.92 43.72 15.59 45C15.25 46.28 14.98 45.23 14.98 42.67ZM464.31 42.67C464.31 40.1 464.58 39.05 464.92 40.33C465.25 41.62 465.25 43.72 464.92 45C464.58 46.28 464.31 45.23 464.31 42.67ZM17.08 36.42C18.05 36.04 19.2 36.08 19.64 36.53C20.08 36.97 19.29 37.29 17.89 37.23C16.34 37.16 16.02 36.85 17.08 36.42L17.08 36.42ZM461.08 36.42C462.05 36.04 463.2 36.08 463.64 36.53C464.08 36.97 463.29 37.29 461.89 37.23C460.34 37.16 460.02 36.85 461.08 36.42L461.08 36.42ZM22.42 35.09C23.38 34.7 24.53 34.75 24.97 35.19C25.42 35.64 24.63 35.95 23.22 35.89C21.67 35.83 21.35 35.51 22.42 35.09L22.42 35.09ZM455.75 35.09C456.71 34.7 457.86 34.75 458.31 35.19C458.75 35.64 457.96 35.95 456.56 35.89C455 35.83 454.69 35.51 455.75 35.09L455.75 35.09ZM33.08 32.42C34.05 32.04 35.2 32.08 35.64 32.53C36.08 32.97 35.29 33.29 33.89 33.23C32.34 33.16 32.02 32.85 33.08 32.42L33.08 32.42ZM445.08 32.42C446.05 32.04 447.2 32.08 447.64 32.53C448.08 32.97 447.29 33.29 445.89 33.23C444.34 33.16 444.02 32.85 445.08 32.42L445.08 32.42ZM38.33 31.12C39.25 30.75 40.75 30.75 41.67 31.12C42.58 31.49 41.83 31.79 40 31.79C38.17 31.79 37.42 31.49 38.33 31.12L38.33 31.12ZM438.33 31.12C439.25 30.75 440.75 30.75 441.67 31.12C442.58 31.49 441.83 31.79 440 31.79C438.17 31.79 437.42 31.49 438.33 31.12ZM51.75 28.42C52.71 28.04 53.86 28.08 54.31 28.53C54.75 28.97 53.96 29.29 52.56 29.23C51 29.16 50.69 28.85 51.75 28.42L51.75 28.42ZM426.42 28.42C427.38 28.04 428.53 28.08 428.97 28.53C429.42 28.97 428.63 29.29 427.22 29.23C425.67 29.16 425.35 28.85 426.42 28.42L426.42 28.42ZM58.42 27.09C59.38 26.7 60.53 26.75 60.97 27.19C61.42 27.64 60.63 27.95 59.22 27.89C57.67 27.83 57.35 27.51 58.42 27.09L58.42 27.09ZM419.75 27.09C420.71 26.7 421.86 26.75 422.31 27.19C422.75 27.64 421.96 27.95 420.56 27.89C419 27.83 418.69 27.51 419.75 27.09L419.75 27.09ZM65.08 25.76C66.05 25.37 67.2 25.42 67.64 25.86C68.08 26.3 67.29 26.62 65.89 26.56C64.34 26.5 64.02 26.18 65.08 25.76L65.08 25.76ZM413.08 25.76C414.05 25.37 415.2 25.42 415.64 25.86C416.08 26.3 415.29 26.62 413.89 26.56C412.34 26.5 412.02 26.18 413.08 25.76L413.08 25.76ZM73 24.45C73.92 24.08 75.42 24.08 76.33 24.45C77.25 24.82 76.5 25.12 74.67 25.12C72.83 25.12 72.08 24.82 73 24.45ZM403.67 24.45C404.58 24.08 406.08 24.08 407 24.45C407.92 24.82 407.17 25.12 405.33 25.12C403.5 25.12 402.75 24.82 403.67 24.45ZM81 23.12C81.92 22.75 83.42 22.75 84.33 23.12C85.25 23.49 84.5 23.79 82.67 23.79C80.83 23.79 80.08 23.49 81 23.12L81 23.12ZM395.67 23.12C396.58 22.75 398.08 22.75 399 23.12C399.92 23.49 399.17 23.79 397.33 23.79C395.5 23.79 394.75 23.49 395.67 23.12ZM91.03 21.74C92.32 21.4 94.12 21.43 95.03 21.79C95.93 22.16 94.87 22.43 92.67 22.41C90.47 22.38 89.73 22.08 91.03 21.74ZM385.69 21.74C386.99 21.4 388.79 21.43 389.69 21.79C390.59 22.16 389.53 22.43 387.33 22.41C385.13 22.38 384.39 22.08 385.69 21.74L385.69 21.74ZM100.36 20.41C101.66 20.07 103.46 20.09 104.36 20.46C105.26 20.82 104.2 21.1 102 21.07C99.8 21.05 99.06 20.75 100.36 20.41ZM376.36 20.41C377.66 20.07 379.46 20.09 380.36 20.46C381.26 20.82 380.2 21.1 378 21.07C375.8 21.05 375.06 20.75 376.36 20.41L376.36 20.41ZM111 19.08C112.28 18.75 114.38 18.75 115.67 19.08C116.95 19.42 115.9 19.69 113.33 19.69C110.77 19.69 109.72 19.42 111 19.08L111 19.08ZM364.33 19.08C365.62 18.75 367.72 18.75 369 19.08C370.28 19.42 369.23 19.69 366.67 19.69C364.1 19.69 363.05 19.42 364.33 19.08ZM125 17.73C126.65 17.41 129.35 17.41 131 17.73C132.65 18.04 131.3 18.3 128 18.3C124.7 18.3 123.35 18.04 125 17.73L125 17.73ZM349 17.73C350.65 17.41 353.35 17.41 355 17.73C356.65 18.04 355.3 18.3 352 18.3C348.7 18.3 347.35 18.04 349 17.73L349 17.73ZM140.33 16.41C141.62 16.08 143.72 16.08 145 16.41C146.28 16.75 145.23 17.02 142.67 17.02C140.1 17.02 139.05 16.75 140.33 16.41L140.33 16.41ZM335 16.41C336.28 16.08 338.38 16.08 339.67 16.41C340.95 16.75 339.9 17.02 337.33 17.02C334.77 17.02 333.72 16.75 335 16.41ZM159.69 15.03C162.09 14.74 165.69 14.74 167.69 15.05C169.69 15.35 167.73 15.59 163.33 15.59C158.93 15.58 157.29 15.33 159.69 15.03L159.69 15.03ZM313.02 15.03C315.42 14.74 319.02 14.74 321.02 15.05C323.03 15.35 321.07 15.59 316.67 15.59C312.27 15.58 310.63 15.33 313.02 15.03L313.02 15.03ZM182.3 13.7C184.67 13.41 188.87 13.4 191.64 13.69C194.4 13.98 192.47 14.22 187.33 14.23C182.2 14.24 179.94 14 182.3 13.7L182.3 13.7ZM287.64 13.7C290 13.41 294.2 13.4 296.97 13.69C299.74 13.98 297.8 14.22 292.67 14.23C287.53 14.24 285.27 14 287.64 13.7L287.64 13.7Z" />
			<path id="path366" fill-rule="evenodd" class="shp6" d="M58.9 311.11C18.26 237.74 2.68 145.26 14.88 49.81L16.44 37.61L24.55 35.52C80.11 21.18 156.02 13.38 240 13.38C323.98 13.38 399.89 21.18 455.45 35.52L463.56 37.61L465.12 49.81C471.07 96.3 470.49 141.77 463.41 185.75C445.17 299.01 385.49 387.78 292.01 440.68C274.43 450.63 243.89 464.15 239.51 463.92C238.68 463.88 233.8 462.16 228.67 460.11C155.94 430.99 96.3 378.64 58.9 311.11ZM371.13 364C370.94 362.15 341.95 275.61 335.73 258.32L332.97 250.64L260.15 250.99L187.33 251.33L187.33 258L214.67 258.83C250.47 259.92 263.53 262 284.76 269.98C302.09 276.5 317.45 286.73 330.06 300.17C344.56 315.6 352.29 330.65 363.42 365.09C364.22 367.58 371.39 366.57 371.13 364ZM192.7 349.21C201.07 346.07 208.58 339.34 211.73 332.14C212.89 329.5 214.53 322.83 215.37 317.33L216.9 307.33L219.36 312.33C220.72 315.08 222.28 317.33 222.84 317.33C223.39 317.33 226.01 316.06 228.65 314.5C231.29 312.94 233.72 311.94 234.05 312.28C234.39 312.61 232.57 320.93 230.01 330.77C227.45 340.61 225.35 349.14 225.35 349.73C225.34 350.31 229.64 350.61 234.91 350.39C244.29 350.01 244.51 349.92 245.58 346C250.66 327.44 258.67 295.61 258.67 294C258.67 292.42 256.77 292 249.67 292C241.3 292 239.77 292.5 227.95 299.03L215.23 306.06L213.28 302.11C209.85 295.16 204.99 292.73 193.58 292.24C184.81 291.86 182.47 292.26 177.33 295C167.47 300.26 162.61 312.56 166.78 321.72C169.61 327.92 180.4 331.79 188.58 329.53C194.48 327.9 195.12 330.4 189.86 334.53C184.8 338.52 178.17 339.34 169.81 337.01C161.71 334.76 161.23 335.06 159.41 343.54C158.58 347.43 158.84 347.85 162.92 349.12C174.52 352.74 183.2 352.76 192.7 349.21L192.7 349.21ZM308 313.91C308 298.47 301.11 292 284.67 292C267.09 292 255.19 303.5 257.89 317.89C259.51 326.49 270.77 332.24 280.67 329.5C283.52 328.72 286.11 328.33 286.42 328.64C286.73 328.96 285.21 331 283.03 333.18C277.83 338.38 271.08 339.59 261.76 337C253.71 334.76 253.84 334.66 251.53 344.23C250.77 347.38 251.17 347.95 255 349.14C266.03 352.58 274.71 352.75 284.13 349.71C298.2 345.16 308 330.46 308 313.91ZM160.08 318.67C163.54 305.1 166.1 293.55 165.77 293C165.45 292.45 161.26 292 156.48 292C148.6 292 146.73 292.59 136.4 298.33C130.13 301.82 124.75 305.33 124.43 306.14C123.82 307.72 129.01 317.34 130.47 317.33C130.94 317.33 133.35 316.09 135.82 314.59C138.28 313.09 140.64 312.2 141.06 312.61C141.48 313.03 139.91 320.8 137.57 329.88C135.24 338.95 133.33 347.34 133.33 348.52C133.33 350.29 134.98 350.67 142.64 350.67C151.68 350.67 151.98 350.56 152.87 347C153.37 344.98 156.62 332.23 160.08 318.67ZM327.76 233.34L316.67 221.36L252 221.68L187.33 222L187.75 226.33L188.17 230.67L170.78 230.67C153.71 230.67 153.36 230.73 151.21 234C149.15 237.14 148.35 237.33 137.18 237.33L125.33 237.33L125.33 245.33L338.86 245.33L327.76 233.34ZM316 216.28C316 215.7 312.25 213.02 307.67 210.34C303.08 207.65 295.47 202.73 290.74 199.39L282.15 193.33L180.17 193.33L179.75 197.67L179.33 202L161.84 202.37C146.4 202.7 144.07 203.05 141.97 205.37C140.16 207.36 137.86 208 132.46 208C125.52 208 125.33 208.1 125.33 211.78C125.33 213.86 125.73 215.96 126.22 216.44C127.49 217.72 316 217.55 316 216.28ZM264 188.28C264 187.7 261.24 184.93 257.88 182.11C254.51 179.3 249.65 174.07 247.08 170.5L242.42 164L185.38 164L184.58 167.67C184.14 169.68 183.55 172.08 183.26 173C182.89 174.22 178.02 174.67 164.92 174.67C148.89 174.67 146.84 174.93 144.71 177.28C142.77 179.43 140.27 179.97 130.84 180.28C118.67 180.69 118.4 180.88 120.69 187.67C121.13 188.97 136.71 189.33 192.62 189.33C231.88 189.33 264 188.86 264 188.28ZM353.91 153.98C357.97 157.29 361.85 160 362.52 160C363.2 160 365.39 157.2 367.39 153.78C369.39 150.36 374.8 143.25 379.4 137.97L387.77 128.38L371.55 127.67C346.95 126.59 333.98 121.81 328.97 111.97C327.32 108.74 326.85 105.81 327.42 102.33L328.23 97.33L323.12 97.33C315.49 97.32 310.07 93.38 307.25 85.78C305.94 82.23 304.72 79.14 304.55 78.9C304.39 78.66 302.42 79.41 300.19 80.57C288.1 86.82 278.33 79.42 275.39 61.77L274.47 56.21L270.23 58.64C260.58 64.19 251.76 62.82 243.09 54.43L238.85 50.32L237.94 55.16L237.04 60L220.72 60C206.11 60 204.16 60.28 202 62.67C199.64 65.28 197.89 65.33 120.88 65.33L42.17 65.33L49.83 73.33L140.25 73.33C189.98 73.33 230.67 73.82 230.67 74.42C230.67 75.7 224.69 81.35 220.04 84.46C217.37 86.25 213.24 86.67 198.38 86.67C181.47 86.67 179.89 86.88 178.36 89.33C176.74 91.93 175.25 92 123.9 92C94.87 92 70.74 92.37 70.29 92.82C69.84 93.27 70.76 95.37 72.32 97.48L75.17 101.33L215.6 101.33L240.55 128.67C254.28 143.7 265.94 156 266.47 156C266.99 156 268.49 154.2 269.78 152.01C274.43 144.14 283.55 145.81 292.4 156.13C294.75 158.87 297.04 161.16 297.49 161.22C297.95 161.28 299.1 158.55 300.05 155.15C305.86 134.4 329.24 133.89 353.91 153.98ZM294.19 97.61C296.02 98 295.69 98.33 292.9 98.9C290.47 99.4 289.59 99.21 290.42 98.38C291.13 97.67 292.83 97.32 294.19 97.61ZM200 136C199.26 136 198.67 137.45 198.67 139.22C198.67 146.7 198.78 146.67 175.51 146.67C155.42 146.67 153.86 146.85 152.31 149.33C150.76 151.82 149.2 152 129.32 152C115.81 152 108 152.49 108 153.35C108 154.09 108.74 155.89 109.65 157.35C111.27 159.93 112.9 160 175.73 160C213.15 160 239.85 159.5 239.42 158.81C238.46 157.25 201.73 136 200 136ZM234.05 128.67C224.72 118.4 216.6 109.82 216.01 109.6C215.41 109.38 214.22 111.33 213.36 113.93L211.79 118.67L188.61 118.67C166.79 118.67 165.34 118.82 164 121.33C162.63 123.89 161.21 124 127.95 124C104.34 124 93.33 124.45 93.33 125.42C93.33 126.2 93.95 128 94.71 129.42C96.04 131.91 98.07 132 150.1 132L204.11 132L223.63 143.44C239.71 152.86 243.87 154.76 247.24 154.2C249.49 153.83 252.53 154.01 254 154.6C258.04 156.22 258.17 155.03 254.41 150.99C252.53 148.98 243.37 138.93 234.05 128.67ZM385.84 98.33C387.48 92.21 388.6 91.55 393.28 93.97C398.42 96.63 399.64 95.86 397.55 91.28C395.11 85.91 395.66 84.5 401 82.39L406 80.42L400.93 77.93C395.71 75.37 395.47 74.4 398.23 67.23C398.94 65.37 398.63 65.06 396.77 65.77C389.33 68.63 388.01 68.42 386.52 64.15C384.69 58.9 382.86 58.88 380.89 64.09C379.3 68.31 378.88 68.39 370.91 65.93L367.81 64.97L369.92 70.02C371.09 72.8 371.88 75.21 371.68 75.37C371.49 75.53 369.38 76.65 367 77.86C364.62 79.08 362.67 80.35 362.67 80.68C362.67 81.02 364.78 82.18 367.37 83.26L372.08 85.23L370.02 90.15C368.89 92.86 368.18 95.29 368.44 95.56C368.71 95.82 371.12 95.12 373.81 94L378.69 91.96L380.92 96.64C383.52 102.09 384.73 102.51 385.84 98.33Z" />
		</g>
	</g>
</svg>