<?xml version="1.0" encoding="UTF-8" standalone="no"?>
<svg
   xmlns:dc="http://purl.org/dc/elements/1.1/"
   xmlns:cc="http://creativecommons.org/ns#"
   xmlns:rdf="http://www.w3.org/1999/02/22-rdf-syntax-ns#"
   xmlns:svg="http://www.w3.org/2000/svg"
   xmlns="http://www.w3.org/2000/svg"
   xmlns:sodipodi="http://sodipodi.sourceforge.net/DTD/sodipodi-0.dtd"
   xmlns:inkscape="http://www.inkscape.org/namespaces/inkscape"
   inkscape:version="1.0 (4035a4f, 2020-05-01)"
   sodipodi:docname="472.svg"
   id="svg8314"
   height="200.0pt"
   width="200.0pt"
   viewBox="0 0 200 200"
   version="1.1">
  <metadata
     id="metadata8320">
    <rdf:RDF>
      <cc:Work
         rdf:about="">
        <dc:format>image/svg+xml</dc:format>
        <dc:type
           rdf:resource="http://purl.org/dc/dcmitype/StillImage" />
      </cc:Work>
    </rdf:RDF>
  </metadata>
  <defs
     id="defs8318" />
  <sodipodi:namedview
     inkscape:current-layer="svg8314"
     inkscape:cy="133.33333"
     inkscape:cx="133.33333"
     inkscape:zoom="1.75125"
     showgrid="false"
     id="namedview8316"
     inkscape:window-height="480"
     inkscape:window-width="640"
     inkscape:pageshadow="2"
     inkscape:pageopacity="0"
     guidetolerance="10"
     gridtolerance="10"
     objecttolerance="10"
     borderopacity="1"
     bordercolor="#666666"
     pagecolor="#ffffff" />
  <path
     style="fill:#ffffff;fill-opacity:0"
     id="path8226"
     fill="#ffffff"
     d="M 0.00 0.00 L 93.12 0.00 C 88.82 1.67 84.41 2.46 80.25 4.50 C 69.80 9.42 61.01 18.03 54.52 27.48 C 46.77 38.67 41.44 51.77 38.19 64.95 C 37.65 67.10 37.35 69.29 37.18 71.50 C 40.50 54.30 47.17 37.15 58.06 23.29 C 65.51 13.84 75.69 5.46 87.47 2.25 C 90.40 1.46 92.89 0.22 96.01 0.39 C 100.91 0.57 105.33 -0.30 109.97 1.72 C 122.05 4.85 132.18 12.43 139.98 22.00 C 148.24 32.01 153.80 43.48 157.90 55.72 C 157.22 51.62 155.39 47.78 153.76 43.94 C 146.88 28.46 136.02 13.53 120.77 5.47 C 116.11 2.85 111.05 1.88 106.11 0.00 L 200.00 0.00 L 200.00 200.00 L 105.97 200.00 C 110.59 198.30 115.07 197.46 119.45 195.24 C 129.77 190.19 137.96 182.08 144.47 172.73 C 149.65 165.18 153.88 156.93 156.83 148.26 C 156.41 148.86 156.11 149.50 155.81 150.17 C 149.59 166.44 139.18 182.87 124.12 192.22 C 118.61 195.85 112.50 197.65 106.21 199.38 C 101.86 199.79 97.19 199.70 92.83 199.44 C 87.45 197.82 82.37 196.47 77.49 193.70 C 66.30 187.54 57.55 177.50 51.13 166.59 C 45.75 157.43 41.88 147.54 39.16 137.28 C 39.60 141.54 41.18 145.43 42.64 149.49 C 47.72 162.99 54.98 175.50 65.55 185.46 C 71.56 190.99 78.88 195.75 86.80 197.98 C 88.85 198.58 90.86 199.27 92.86 200.00 L 0.00 200.00 L 0.00 0.00 Z" />
  <path
     id="path8228"
     fill="#1b2c57"
     d="M 93.12 0.00 L 106.11 0.00 C 111.05 1.88 116.11 2.85 120.77 5.47 C 136.02 13.53 146.88 28.46 153.76 43.94 C 155.39 47.78 157.22 51.62 157.90 55.72 C 153.80 43.48 148.24 32.01 139.98 22.00 C 132.18 12.43 122.05 4.85 109.97 1.72 C 105.33 -0.30 100.91 0.57 96.01 0.39 C 92.89 0.22 90.40 1.46 87.47 2.25 C 75.69 5.46 65.51 13.84 58.06 23.29 C 47.17 37.15 40.50 54.30 37.18 71.50 C 37.35 69.29 37.65 67.10 38.19 64.95 C 41.44 51.77 46.77 38.67 54.52 27.48 C 61.01 18.03 69.80 9.42 80.25 4.50 C 84.41 2.46 88.82 1.67 93.12 0.00 Z" />
  <path
     id="path8230"
     fill="#1b2c57"
     d="M 117.79 7.35 C 130.56 13.40 140.25 24.83 146.99 37.02 C 156.16 53.82 160.94 73.14 161.69 92.21 C 159.89 80.09 154.63 68.76 146.08 59.93 C 134.47 47.59 117.88 40.61 101.00 40.33 C 87.21 39.92 73.31 44.12 62.05 52.08 C 52.22 59.05 44.50 68.84 40.42 80.21 C 39.20 83.64 38.43 87.25 37.46 90.77 C 38.51 70.82 43.87 50.46 54.27 33.30 C 61.17 22.03 71.01 11.54 83.40 6.42 C 94.37 1.79 107.08 2.15 117.79 7.35 Z" />
  <path
     id="path8232"
     fill="#ffffff"
     d="M 93.61 11.57 L 93.69 14.22 C 91.59 14.39 89.49 14.58 87.39 14.85 C 88.35 17.34 90.90 15.97 93.02 16.39 L 93.39 18.78 C 91.73 18.93 90.08 19.08 88.42 19.22 C 88.54 20.84 88.68 22.45 88.80 24.06 C 87.32 24.16 85.85 24.25 84.38 24.34 C 83.82 20.37 83.31 16.40 82.68 12.44 C 86.32 12.10 89.96 11.79 93.61 11.57 Z" />
  <path
     id="path8234"
     fill="#ffffff"
     d="M 111.30 12.57 C 111.21 13.80 111.13 15.03 111.04 16.27 C 108.44 15.16 106.16 13.69 103.37 15.39 C 101.64 16.36 101.56 18.73 103.17 19.87 C 105.45 21.74 107.81 20.90 110.50 20.79 C 110.15 21.97 109.79 23.15 109.43 24.32 C 105.42 24.22 101.78 24.28 98.77 21.21 C 96.76 19.14 96.64 15.83 98.81 13.83 C 102.43 10.68 107.04 11.18 111.30 12.57 Z" />
  <path
     id="path8236"
     fill="#ffffff"
     d="M 97.78 21.95 C 96.17 23.85 96.09 23.56 93.84 23.10 C 94.77 20.59 95.65 21.33 97.78 21.95 Z" />
  <path
     id="path8238"
     fill="#ffffff"
     d="M 111.13 23.08 L 111.58 22.46 L 112.39 22.85 L 112.49 23.84 C 111.71 24.67 111.26 24.41 111.13 23.08 Z" />
  <path
     id="path8240"
     fill="#ffffff"
     d="M 92.47 25.95 C 95.84 25.78 99.24 25.78 102.60 25.93 L 103.03 28.72 C 101.90 28.77 100.77 28.82 99.64 28.87 C 99.63 31.98 99.63 35.08 99.62 38.18 C 98.25 38.19 96.88 38.20 95.51 38.20 C 95.53 35.08 95.53 31.95 95.44 28.83 C 94.32 28.80 93.20 28.77 92.07 28.73 L 92.47 25.95 Z" />
  <path
     id="path8242"
     fill="#ffffff"
     d="M 82.24 27.28 C 85.40 26.12 89.60 26.39 92.00 28.99 C 93.99 31.14 93.85 34.70 91.74 36.73 C 88.22 40.40 80.56 40.74 77.78 36.01 C 76.17 31.89 78.32 28.63 82.24 27.28 Z" />
  <path
     id="path8244"
     fill="#ffffff"
     d="M 118.43 32.86 C 117.70 34.79 117.63 36.60 115.78 37.84 C 111.92 40.67 105.22 39.53 102.62 35.44 C 100.91 32.84 102.02 29.17 104.67 27.69 C 109.84 24.94 116.59 27.09 118.43 32.86 Z" />
  <path
     id="path8246"
     fill="#ffffff"
     d="M 120.10 29.02 C 121.50 29.29 123.32 29.47 124.46 30.40 C 125.93 32.95 126.93 35.79 128.21 38.45 C 129.72 36.68 130.21 34.65 131.01 32.51 C 132.36 33.02 133.72 33.52 135.07 34.03 C 133.39 37.68 131.71 41.33 130.05 44.98 C 128.84 44.49 127.63 43.99 126.43 43.50 C 125.26 40.51 124.12 37.51 122.77 34.60 C 121.99 36.90 121.25 39.21 120.49 41.52 C 119.33 41.16 118.16 40.79 116.99 40.42 C 118.01 36.62 118.89 32.77 120.10 29.02 Z" />
  <path
     id="path8248"
     fill="#1b2c57"
     d="M 83.35 30.37 C 85.93 29.62 88.75 29.97 89.41 33.02 C 88.51 36.58 83.66 37.40 81.61 34.48 C 80.70 32.76 81.77 31.15 83.35 30.37 Z" />
  <path
     id="path8250"
     fill="#1b2c57"
     d="M 107.37 30.45 C 109.56 28.98 113.74 30.12 113.94 33.04 C 114.02 36.17 109.75 36.90 107.66 35.33 C 105.78 34.18 105.40 31.71 107.37 30.45 Z" />
  <path
     id="path8252"
     fill="#ffffff"
     d="M 73.06 30.31 C 74.55 30.23 76.00 31.57 76.29 32.99 C 76.61 34.86 75.43 35.68 74.44 37.02 C 76.34 38.09 78.22 39.18 80.07 40.32 C 78.43 40.77 76.79 41.21 75.15 41.64 C 73.76 40.62 72.36 39.61 70.94 38.63 C 71.43 39.91 71.93 41.18 72.43 42.46 C 71.23 42.94 70.03 43.41 68.83 43.89 C 67.31 40.20 65.70 36.55 64.12 32.88 C 66.88 31.80 70.06 30.27 73.06 30.31 Z" />
  <path
     id="path8254"
     fill="#1b2c57"
     d="M 69.12 33.20 C 70.59 32.93 71.74 33.21 72.55 34.04 C 72.10 34.81 71.57 35.49 70.94 36.08 C 68.76 35.72 69.33 35.00 69.12 33.20 Z" />
  <path
     id="path8256"
     fill="#ffffff"
     d="M 63.23 33.29 C 63.79 34.31 64.35 35.33 64.91 36.35 C 62.79 36.70 60.93 36.62 59.44 38.40 C 57.85 40.18 58.93 42.50 61.00 43.22 C 63.66 43.91 65.05 42.14 66.97 40.73 C 67.36 41.86 67.77 42.98 68.17 44.10 C 65.02 46.10 61.81 47.35 58.09 45.96 C 55.14 44.77 54.04 41.28 55.54 38.51 C 57.11 35.20 60.01 34.35 63.23 33.29 Z" />
  <path
     id="path8258"
     fill="#ffffff"
     d="M 136.27 34.60 C 139.10 36.00 141.87 37.48 144.62 39.03 C 144.11 39.86 143.60 40.69 143.09 41.52 C 141.51 40.63 139.93 39.76 138.30 38.96 C 137.48 41.80 140.06 41.69 141.80 43.09 C 141.27 43.75 140.73 44.41 140.20 45.07 C 138.20 44.39 136.64 41.75 135.45 44.86 C 136.77 45.61 138.10 46.35 139.43 47.09 C 138.95 47.87 138.47 48.64 137.99 49.42 C 135.65 48.02 133.28 46.67 130.89 45.35 C 132.71 41.78 134.50 38.20 136.27 34.60 Z" />
  <path
     id="path8260"
     fill="#e2001a"
     d="M 101.00 40.33 C 117.88 40.61 134.47 47.59 146.08 59.93 C 154.63 68.76 159.89 80.09 161.69 92.21 C 161.91 100.10 162.13 108.24 161.15 116.06 C 162.68 104.25 161.37 92.39 156.54 81.46 C 150.25 67.05 138.36 55.24 123.88 49.10 C 109.48 42.90 92.65 42.50 77.98 48.01 C 58.71 55.03 43.67 72.02 39.04 92.01 C 38.40 94.98 37.87 97.98 37.25 100.97 C 37.23 97.56 37.23 94.17 37.46 90.77 C 38.43 87.25 39.20 83.64 40.42 80.21 C 44.50 68.84 52.22 59.05 62.05 52.08 C 73.31 44.12 87.21 39.92 101.00 40.33 Z" />
  <path
     id="path8262"
     fill="#1b2c57"
     d="M 123.88 49.10 C 138.36 55.24 150.25 67.05 156.54 81.46 C 161.37 92.39 162.68 104.25 161.15 116.06 C 158.82 137.63 151.36 160.85 136.98 177.49 C 136.74 169.83 137.00 162.16 136.80 154.50 C 136.82 127.25 136.74 99.99 136.84 72.74 C 136.72 68.39 137.31 63.71 136.59 59.44 C 130.05 54.05 122.01 50.27 113.82 48.21 C 112.70 47.94 111.58 47.66 110.46 47.40 C 110.40 55.86 110.43 64.32 110.44 72.79 C 102.05 72.85 93.65 72.85 85.26 72.79 C 85.28 64.61 85.29 56.42 85.26 48.23 C 76.18 50.51 67.17 54.93 60.31 61.36 C 59.32 64.78 60.07 69.15 59.99 72.75 C 60.24 100.39 59.87 128.04 60.19 155.68 C 59.59 162.03 60.05 168.33 59.81 174.69 C 54.29 167.73 49.97 159.71 46.63 151.49 C 40.29 135.64 37.01 118.03 37.25 100.97 C 37.87 97.98 38.40 94.98 39.04 92.01 C 43.67 72.02 58.71 55.03 77.98 48.01 C 92.65 42.50 109.48 42.90 123.88 49.10 Z" />
  <path
     id="path8264"
     fill="#e2001a"
     d="M 110.46 47.40 C 111.58 47.66 112.70 47.94 113.82 48.21 C 122.01 50.27 130.05 54.05 136.59 59.44 C 137.31 63.71 136.72 68.39 136.84 72.74 C 128.04 72.77 119.24 72.70 110.44 72.79 C 110.43 64.32 110.40 55.86 110.46 47.40 Z" />
  <path
     id="path8266"
     fill="#e2001a"
     d="M 85.26 48.23 C 85.29 56.42 85.28 64.61 85.26 72.79 C 76.84 72.70 68.41 72.76 59.99 72.75 C 60.07 69.15 59.32 64.78 60.31 61.36 C 67.17 54.93 76.18 50.51 85.26 48.23 Z" />
  <path
     id="path8268"
     fill="#1b2c57"
     d="M 158.24 55.35 C 162.51 69.36 165.31 84.31 164.65 99.00 C 165.30 115.03 162.84 131.37 157.45 146.48 C 157.78 144.28 158.59 142.10 159.20 139.96 C 162.92 126.98 164.77 113.51 164.35 100.00 C 164.72 87.32 163.17 74.68 159.83 62.45 C 159.17 60.11 158.51 57.78 158.24 55.35 Z" />
  <path
     id="path8270"
     fill="#1b2c57"
     d="M 36.74 71.22 C 36.31 78.53 34.64 85.63 34.68 93.00 C 34.74 101.27 34.36 108.94 35.38 116.98 C 35.84 121.01 36.63 124.71 36.64 128.77 C 35.09 119.23 33.91 109.68 34.31 100.00 C 33.95 90.37 35.02 80.69 36.74 71.22 Z" />
  <path
     id="path8272"
     fill="#ffffff"
     d="M 59.99 72.75 C 68.41 72.76 76.84 72.70 85.26 72.79 C 93.65 72.85 102.05 72.85 110.44 72.79 C 119.24 72.70 128.04 72.77 136.84 72.74 C 136.74 99.99 136.82 127.25 136.80 154.50 C 135.44 158.91 132.53 161.67 127.89 162.31 L 128.19 161.23 C 131.33 159.48 133.41 157.76 134.93 154.39 C 131.05 156.19 127.37 157.97 123.01 158.27 C 120.10 158.78 117.59 157.43 115.68 160.26 C 111.61 148.60 106.32 137.73 99.63 127.35 C 98.50 125.25 96.50 123.66 98.18 121.20 C 102.28 113.76 106.74 106.48 111.29 99.31 C 113.08 96.42 115.04 94.02 116.27 90.84 C 115.24 91.62 114.28 92.41 113.59 93.53 C 108.01 102.10 102.67 110.82 97.64 119.73 C 97.53 111.67 98.27 103.72 98.72 95.70 C 97.77 96.13 97.34 96.89 97.41 97.99 C 97.03 106.08 96.33 114.13 96.41 122.23 C 91.34 114.48 85.91 106.97 80.34 99.57 C 78.85 97.66 77.78 95.72 75.46 94.69 C 77.31 97.95 79.88 100.85 82.12 103.93 C 86.87 110.20 91.27 116.71 95.75 123.18 C 90.17 133.80 85.17 144.34 82.10 156.00 C 81.41 157.56 81.86 159.57 79.57 159.47 C 79.83 158.12 80.10 156.78 80.37 155.43 C 76.92 156.78 73.58 158.31 70.64 160.61 C 70.25 160.96 69.89 161.35 69.55 161.76 L 68.95 162.43 C 64.51 161.43 62.37 159.63 60.19 155.68 C 59.87 128.04 60.24 100.39 59.99 72.75 Z" />
  <path
     id="path8274"
     fill="#e2001a"
     d="M 106.44 75.92 C 105.23 78.10 103.71 80.08 102.55 82.29 C 105.31 82.02 107.77 81.08 110.26 79.93 C 110.01 81.26 108.77 83.26 109.43 84.55 C 111.93 85.79 115.42 83.24 117.84 82.39 C 117.82 84.69 113.74 85.54 112.00 86.11 C 108.82 86.52 108.10 85.47 107.91 82.43 C 106.29 82.85 104.47 83.60 102.78 83.47 C 102.29 82.72 101.83 81.95 101.38 81.17 C 100.24 81.56 99.10 81.94 97.96 82.33 C 97.47 81.73 96.98 81.14 96.49 80.54 C 93.97 81.97 90.80 85.74 88.45 81.90 C 85.79 83.52 82.94 85.99 79.78 86.22 C 83.29 83.20 87.59 81.26 91.19 78.29 C 90.79 79.71 90.39 81.13 90.01 82.55 C 93.59 81.57 95.84 79.23 99.03 77.39 L 97.93 81.18 C 101.20 80.00 103.54 77.68 106.44 75.92 Z" />
  <path
     id="path8276"
     fill="#1b2c57"
     d="M 126.20 84.01 C 121.20 88.42 115.39 90.03 109.16 91.93 C 101.89 94.04 94.54 94.66 87.00 94.77 C 83.24 94.76 79.04 94.67 75.46 93.42 C 73.55 92.59 72.02 90.36 73.47 88.42 C 75.43 87.51 78.06 88.86 80.11 89.15 C 89.20 90.35 98.71 91.00 107.81 89.56 C 114.06 89.59 120.26 85.97 126.20 84.01 Z" />
  <path
     id="path8278"
     fill="#eedfb5"
     d="M 98.88 85.43 C 102.34 86.29 105.62 86.32 107.81 89.56 C 98.71 91.00 89.20 90.35 80.11 89.15 C 84.02 89.53 86.17 86.10 90.09 86.62 C 93.40 86.79 95.59 84.58 98.88 85.43 Z" />
  <path
     id="path8280"
     fill="#1b2c57"
     d="M 116.27 90.84 C 115.04 94.02 113.08 96.42 111.29 99.31 C 106.74 106.48 102.28 113.76 98.18 121.20 C 96.50 123.66 98.50 125.25 99.63 127.35 C 106.32 137.73 111.61 148.60 115.68 160.26 C 117.59 157.43 120.10 158.78 123.01 158.27 C 127.37 157.97 131.05 156.19 134.93 154.39 C 133.41 157.76 131.33 159.48 128.19 161.23 C 111.14 161.43 94.06 161.19 77.00 161.34 C 74.82 161.38 72.72 161.33 70.64 160.61 C 73.58 158.31 76.92 156.78 80.37 155.43 C 80.10 156.78 79.83 158.12 79.57 159.47 C 81.86 159.57 81.41 157.56 82.10 156.00 C 85.17 144.34 90.17 133.80 95.75 123.18 C 91.27 116.71 86.87 110.20 82.12 103.93 C 79.88 100.85 77.31 97.95 75.46 94.69 C 77.78 95.72 78.85 97.66 80.34 99.57 C 85.91 106.97 91.34 114.48 96.41 122.23 C 96.33 114.13 97.03 106.08 97.41 97.99 C 97.34 96.89 97.77 96.13 98.72 95.70 C 98.27 103.72 97.53 111.67 97.64 119.73 C 102.67 110.82 108.01 102.10 113.59 93.53 C 114.28 92.41 115.24 91.62 116.27 90.84 Z" />
  <path
     id="path8282"
     fill="#1b2c57"
     d="M 73.40 114.89 C 73.44 116.31 73.47 117.72 73.50 119.14 C 77.67 118.39 81.59 117.64 85.71 119.16 C 85.65 119.97 85.60 120.78 85.54 121.59 C 84.72 122.35 83.90 123.10 83.07 123.85 C 82.07 123.30 81.07 122.74 80.07 122.19 C 81.49 122.24 82.91 122.30 84.33 122.36 C 84.75 121.41 85.17 120.46 85.59 119.51 C 81.96 119.34 78.65 119.73 75.38 121.38 C 73.19 122.51 70.01 123.55 68.70 125.69 L 71.04 125.32 C 70.71 126.74 70.26 128.12 69.82 129.51 C 71.78 128.35 73.74 127.19 75.61 125.87 C 77.43 125.67 79.24 125.52 81.07 125.42 C 80.13 125.87 79.18 126.31 78.23 126.75 C 79.74 128.96 79.38 130.01 82.51 129.54 C 81.73 129.84 80.96 130.15 80.19 130.45 C 80.81 131.72 81.43 132.99 82.02 134.28 C 80.69 133.14 79.39 131.96 78.10 130.77 C 76.18 132.79 76.87 134.84 76.65 137.36 C 75.68 135.92 75.03 134.33 74.23 132.80 C 73.08 131.52 70.78 131.69 69.53 130.47 C 68.71 129.47 68.21 128.19 67.62 127.05 C 65.98 128.00 64.32 128.92 62.61 129.74 C 64.35 127.91 66.03 126.89 68.38 125.99 C 68.58 123.59 70.13 122.29 71.35 120.39 C 72.25 118.67 72.71 116.71 73.40 114.89 Z" />
  <path
     id="path8284"
     fill="#1b2c57"
     d="M 123.52 115.14 C 124.34 119.00 126.50 121.76 127.96 125.25 C 122.97 121.93 117.71 119.35 111.56 119.56 L 112.00 122.36 C 113.53 122.43 115.06 122.44 116.59 122.41 C 115.70 122.95 114.80 123.49 113.91 124.03 C 113.08 123.48 112.26 122.92 111.43 122.36 C 111.40 121.32 111.36 120.28 111.33 119.24 C 115.39 118.02 119.33 118.62 123.40 119.38 C 123.43 117.97 123.47 116.55 123.52 115.14 Z" />
  <path
     id="path8286"
     fill="#1b2c57"
     d="M 115.97 125.65 C 118.49 125.63 120.83 125.89 123.09 127.12 C 122.37 127.42 121.65 127.71 120.92 127.99 C 119.27 127.22 117.59 126.48 115.97 125.65 Z" />
  <path
     id="path8288"
     fill="#1b2c57"
     d="M 125.50 125.42 C 128.97 126.29 131.82 127.25 134.20 130.05 C 132.47 129.20 130.80 128.24 129.13 127.28 C 128.29 129.95 127.11 131.00 124.88 132.54 C 124.24 130.78 123.54 129.04 122.93 127.27 C 124.37 128.04 125.80 128.81 127.23 129.60 C 126.66 128.20 126.07 126.81 125.50 125.42 Z" />
  <path
     id="path8290"
     fill="#ffffff"
     d="M 96.44 124.43 C 96.35 132.54 96.53 140.69 97.19 148.78 C 94.33 147.68 91.59 146.32 88.63 145.46 C 88.10 146.79 87.57 148.13 87.04 149.46 C 94.68 150.77 102.06 152.34 109.82 153.00 C 109.47 152.16 109.12 151.33 108.77 150.50 C 105.20 150.23 101.73 149.58 98.26 148.71 C 97.49 141.30 97.81 133.76 97.60 126.31 C 104.22 136.76 110.49 148.05 114.08 159.93 L 112.87 161.18 C 112.38 159.98 111.89 158.79 111.41 157.59 C 107.49 156.56 103.49 155.35 99.51 154.64 C 94.83 153.85 90.29 154.03 85.58 154.34 C 84.81 156.20 84.98 160.18 82.38 160.24 C 84.44 149.44 89.15 138.96 93.99 129.13 L 94.31 128.50 C 95.01 127.14 95.72 125.78 96.44 124.43 Z" />
  <path
     id="path8292"
     fill="#ffffff"
     d="M 75.52 130.45 C 74.58 130.43 73.82 130.05 73.23 129.29 C 74.27 127.74 75.83 128.84 75.52 130.45 Z" />
  <path
     id="path8294"
     fill="#1b2c57"
     d="M 118.04 127.10 C 118.96 127.55 119.89 128.01 120.80 128.48 C 120.93 129.06 121.02 129.64 121.08 130.23 L 120.16 130.71 C 121.45 130.67 122.75 130.67 124.03 130.70 C 123.71 131.70 123.19 132.61 122.48 133.45 C 121.83 134.90 121.14 136.29 120.20 137.57 C 120.17 136.00 120.18 134.42 120.22 132.83 C 119.72 132.27 119.23 131.71 118.72 131.15 C 117.37 132.25 116.15 133.46 114.89 134.66 C 115.34 133.61 115.80 132.56 116.26 131.51 C 115.75 130.66 115.25 129.80 114.75 128.94 C 115.45 129.57 116.14 130.21 116.84 130.85 C 117.23 129.60 117.63 128.35 118.04 127.10 Z" />
  <path
     id="path8296"
     fill="#eedfb5"
     d="M 37.17 129.09 C 38.59 129.73 38.63 132.26 37.26 132.97 C 36.71 131.68 36.68 130.39 37.17 129.09 Z" />
  <path
     id="path8298"
     fill="#eedfb5"
     d="M 38.78 134.21 C 39.56 135.80 39.37 136.64 38.21 136.72 C 37.43 135.12 37.62 134.28 38.78 134.21 Z" />
  <path
     id="path8300"
     fill="#1b2c57"
     d="M 39.16 137.28 C 41.88 147.54 45.75 157.43 51.13 166.59 C 57.55 177.50 66.30 187.54 77.49 193.70 C 82.37 196.47 87.45 197.82 92.83 199.44 C 97.19 199.70 101.86 199.79 106.21 199.38 C 112.50 197.65 118.61 195.85 124.12 192.22 C 139.18 182.87 149.59 166.44 155.81 150.17 C 156.11 149.50 156.41 148.86 156.83 148.26 C 153.88 156.93 149.65 165.18 144.47 172.73 C 137.96 182.08 129.77 190.19 119.45 195.24 C 115.07 197.46 110.59 198.30 105.97 200.00 L 92.86 200.00 C 90.86 199.27 88.85 198.58 86.80 197.98 C 78.88 195.75 71.56 190.99 65.55 185.46 C 54.98 175.50 47.72 162.99 42.64 149.49 C 41.18 145.43 39.60 141.54 39.16 137.28 Z" />
  <path
     id="path8302"
     fill="#1b2c57"
     d="M 135.87 138.23 C 135.85 140.79 135.84 143.35 135.85 145.90 C 129.40 151.31 123.41 153.36 114.96 153.44 C 114.49 152.27 114.02 151.09 113.55 149.91 C 121.93 147.59 128.82 143.13 135.87 138.23 Z" />
  <path
     id="path8304"
     fill="#1b2c57"
     d="M 84.05 144.10 C 83.48 145.78 82.90 147.45 82.30 149.12 C 74.85 149.30 67.90 151.50 61.10 154.37 C 61.00 151.86 60.90 149.35 60.80 146.84 C 68.23 143.00 75.91 142.19 84.05 144.10 Z" />
  <path
     id="path8306"
     fill="#e2001a"
     d="M 136.80 154.50 C 137.00 162.16 136.74 169.83 136.98 177.49 C 129.88 185.77 121.03 192.35 110.45 195.39 C 110.36 184.36 110.53 173.33 110.36 162.30 C 116.20 162.33 122.05 162.35 127.89 162.31 C 132.53 161.67 135.44 158.91 136.80 154.50 Z" />
  <path
     id="path8308"
     fill="#e2001a"
     d="M 60.19 155.68 C 62.37 159.63 64.51 161.43 68.95 162.43 L 69.55 161.76 C 74.59 162.93 80.10 162.08 85.27 162.29 C 85.25 172.96 85.33 183.63 85.23 194.30 C 74.88 190.40 66.60 183.29 59.81 174.69 C 60.05 168.33 59.59 162.03 60.19 155.68 Z" />
  <path
     id="path8310"
     fill="#ffffff"
     d="M 70.64 160.61 C 72.72 161.33 74.82 161.38 77.00 161.34 C 94.06 161.19 111.14 161.43 128.19 161.23 L 127.89 162.31 C 122.05 162.35 116.20 162.33 110.36 162.30 C 102.00 162.23 93.63 162.22 85.27 162.29 C 80.10 162.08 74.59 162.93 69.55 161.76 C 69.89 161.35 70.25 160.96 70.64 160.61 Z" />
  <path
     id="path8312"
     fill="#1b2c57"
     d="M 85.27 162.29 C 93.63 162.22 102.00 162.23 110.36 162.30 C 110.53 173.33 110.36 184.36 110.45 195.39 C 102.29 197.68 93.18 197.29 85.23 194.30 C 85.33 183.63 85.25 172.96 85.27 162.29 Z" />
</svg>
