<?xml version="1.0" encoding="UTF-8" standalone="no"?>
<svg
   xmlns:dc="http://purl.org/dc/elements/1.1/"
   xmlns:cc="http://creativecommons.org/ns#"
   xmlns:rdf="http://www.w3.org/1999/02/22-rdf-syntax-ns#"
   xmlns:svg="http://www.w3.org/2000/svg"
   xmlns="http://www.w3.org/2000/svg"
   xmlns:sodipodi="http://sodipodi.sourceforge.net/DTD/sodipodi-0.dtd"
   xmlns:inkscape="http://www.inkscape.org/namespaces/inkscape"
   inkscape:version="1.0 (4035a4f, 2020-05-01)"
   sodipodi:docname="488.svg"
   id="svg4699"
   height="200.0pt"
   width="200.0pt"
   viewBox="0 0 200 200"
   version="1.1">
  <metadata
     id="metadata4705">
    <rdf:RDF>
      <cc:Work
         rdf:about="">
        <dc:format>image/svg+xml</dc:format>
        <dc:type
           rdf:resource="http://purl.org/dc/dcmitype/StillImage" />
      </cc:Work>
    </rdf:RDF>
  </metadata>
  <defs
     id="defs4703" />
  <sodipodi:namedview
     inkscape:current-layer="svg4699"
     inkscape:cy="133.33333"
     inkscape:cx="133.33333"
     inkscape:zoom="1.75125"
     showgrid="false"
     id="namedview4701"
     inkscape:window-height="480"
     inkscape:window-width="640"
     inkscape:pageshadow="2"
     inkscape:pageopacity="0"
     guidetolerance="10"
     gridtolerance="10"
     objecttolerance="10"
     borderopacity="1"
     bordercolor="#666666"
     pagecolor="#ffffff" />
  <path
     style="fill:#ffffff;fill-opacity:0"
     id="path4643"
     fill="#ffffff"
     d="M 0.00 0.00 L 93.47 0.00 C 78.26 1.27 63.44 5.49 50.21 13.18 C 30.48 24.43 14.91 42.56 6.71 63.73 C 2.96 73.19 0.98 83.13 0.00 93.24 L 0.00 0.00 Z" />
  <path
     id="path4645"
     fill="#a29061"
     d="M 93.47 0.00 L 106.76 0.00 L 107.68 0.08 C 123.23 1.55 138.33 6.14 151.69 14.30 C 170.97 25.87 186.04 44.08 193.84 65.17 C 197.29 74.27 199.10 83.80 200.00 93.47 L 200.00 106.76 C 198.65 122.14 194.33 137.10 186.45 150.43 C 175.05 170.09 156.77 185.55 135.51 193.58 C 126.20 197.18 116.44 199.09 106.53 200.00 L 93.24 200.00 C 77.86 198.65 62.90 194.33 49.57 186.45 C 29.93 175.06 14.48 156.81 6.44 135.57 C 2.82 126.24 0.92 116.46 0.00 106.53 L 0.00 93.24 C 0.98 83.13 2.96 73.19 6.71 63.73 C 14.91 42.56 30.48 24.43 50.21 13.18 C 63.44 5.49 78.26 1.27 93.47 0.00 Z" />
  <path
     style="fill:#ffffff;fill-opacity:0"
     id="path4647"
     fill="#ffffff"
     d="M 106.76 0.00 L 200.00 0.00 L 200.00 93.47 C 199.10 83.80 197.29 74.27 193.84 65.17 C 186.04 44.08 170.97 25.87 151.69 14.30 C 138.33 6.14 123.23 1.55 107.68 0.08 L 106.76 0.00 Z" />
  <path
     id="path4649"
     fill="#000000"
     d="M 86.52 11.82 C 107.59 8.65 129.52 13.04 147.51 24.51 C 163.87 34.76 176.69 50.45 183.48 68.52 C 189.85 85.30 190.85 104.08 186.59 121.49 C 180.05 148.36 160.51 171.27 135.05 182.04 C 119.07 188.93 101.18 190.79 84.07 187.78 C 66.31 184.60 49.65 175.85 36.93 163.07 C 23.73 149.93 14.83 132.58 11.93 114.18 C 9.69 99.64 10.85 84.64 15.72 70.75 C 21.65 53.57 32.99 38.36 47.72 27.72 C 59.16 19.43 72.55 13.91 86.52 11.82 Z" />
  <path
     id="path4651"
     fill="#ffffff"
     d="M 90.53 17.88 C 103.30 16.42 116.45 17.95 128.51 22.39 C 144.64 28.29 158.80 39.35 168.41 53.58 C 178.08 67.72 183.08 84.90 182.63 102.02 C 182.27 118.02 177.16 133.87 168.00 147.01 C 158.27 161.16 144.00 172.12 127.80 177.86 C 112.92 183.20 96.57 184.07 81.18 180.50 C 54.38 174.41 31.73 154.35 22.39 128.51 C 15.94 111.04 15.67 91.43 21.59 73.77 C 26.95 57.63 37.48 43.24 51.24 33.24 C 62.75 24.80 76.35 19.49 90.53 17.88 Z" />
  <path
     id="path4653"
     fill="#000000"
     d="M 104.88 21.77 C 109.17 22.00 113.48 22.86 117.71 23.57 C 115.30 28.21 110.63 31.71 107.13 35.58 C 109.73 36.00 112.52 36.13 115.02 36.97 C 115.89 37.80 115.67 38.47 114.37 38.98 C 110.24 38.77 106.15 37.90 102.05 37.39 C 102.08 36.65 102.11 35.91 102.15 35.17 C 105.43 31.82 108.76 28.50 111.97 25.08 C 109.19 24.72 106.40 24.36 103.63 23.91 C 104.03 23.18 104.45 22.47 104.88 21.77 Z" />
  <path
     id="path4655"
     fill="#000000"
     d="M 86.69 22.53 C 90.49 21.93 94.38 21.78 98.21 21.41 L 98.48 23.86 C 96.04 24.08 93.61 24.30 91.17 24.50 C 91.28 25.87 91.39 27.24 91.51 28.62 C 93.41 28.48 95.31 28.34 97.21 28.21 C 97.27 29.01 97.32 29.82 97.37 30.63 C 95.48 30.79 93.60 30.99 91.72 31.16 C 91.87 32.61 92.03 34.07 92.18 35.52 C 94.80 35.30 97.42 35.08 100.03 34.86 C 100.00 35.69 99.97 36.52 99.94 37.36 C 95.94 37.66 91.95 38.03 87.95 38.38 C 87.61 33.10 86.83 27.82 86.69 22.53 Z" />
  <path
     id="path4657"
     fill="#000000"
     d="M 76.99 25.07 C 80.46 24.40 82.48 28.88 81.62 31.63 C 80.65 33.84 77.14 34.73 75.11 35.68 C 75.81 37.66 76.50 39.65 77.18 41.63 C 75.78 42.10 74.38 42.56 72.98 43.02 C 71.26 37.98 69.52 32.95 67.76 27.92 C 70.78 26.92 73.84 25.51 76.99 25.07 Z" />
  <path
     id="path4659"
     fill="#000000"
     d="M 123.42 25.30 C 124.80 25.79 126.18 26.28 127.57 26.76 C 125.82 31.81 124.12 36.87 122.34 41.90 C 120.95 41.41 119.56 40.93 118.16 40.45 C 119.90 35.40 121.65 30.34 123.42 25.30 Z" />
  <path
     id="path4661"
     fill="#ffffff"
     d="M 73.05 28.49 C 74.17 28.28 75.31 28.14 76.47 28.07 C 76.92 29.33 77.31 30.62 77.65 31.92 C 76.52 32.43 75.40 32.93 74.26 33.43 C 73.78 31.82 73.30 30.16 73.05 28.49 Z" />
  <path
     id="path4663"
     fill="#000000"
     d="M 60.55 31.82 C 61.11 32.44 61.68 33.07 62.24 33.71 C 59.98 34.96 57.57 35.90 55.94 37.97 C 56.17 39.42 56.83 39.92 57.93 39.47 C 59.98 39.24 61.99 38.56 64.04 38.46 C 67.15 38.47 69.35 42.05 67.79 44.80 C 66.08 48.03 61.81 49.93 58.71 51.55 C 58.15 50.78 57.58 50.01 57.01 49.24 C 59.82 47.90 63.09 47.06 64.56 44.04 C 62.66 40.70 57.01 45.06 54.17 42.88 C 52.44 41.61 51.90 39.78 52.77 37.80 C 54.08 34.81 57.72 33.06 60.55 31.82 Z" />
  <path
     id="path4665"
     fill="#000000"
     d="M 139.35 32.72 C 140.56 33.21 141.71 33.88 142.87 34.49 C 141.97 40.26 140.94 46.01 140.05 51.79 C 138.78 51.02 137.50 50.24 136.24 49.45 C 136.47 48.09 136.70 46.73 136.94 45.38 C 135.28 44.31 133.60 43.27 131.94 42.21 C 130.81 42.85 129.59 43.87 128.37 44.21 C 127.31 43.80 126.27 43.37 125.23 42.92 C 129.86 39.45 134.47 35.83 139.35 32.72 Z" />
  <path
     id="path4667"
     fill="#ffffff"
     d="M 138.54 36.87 C 138.21 38.86 137.85 40.84 137.51 42.83 C 136.28 42.08 135.04 41.33 133.81 40.58 C 135.40 39.36 136.94 38.08 138.54 36.87 Z" />
  <path
     id="path4669"
     fill="#000000"
     d="M 94.22 39.32 C 111.68 37.66 129.47 43.69 142.08 55.91 C 153.82 66.99 160.79 82.85 160.90 99.00 C 161.13 109.06 158.78 119.17 154.11 128.08 C 147.02 141.88 134.48 152.66 119.80 157.67 C 107.09 162.01 92.91 162.01 80.20 157.67 C 65.52 152.66 52.98 141.89 45.89 128.08 C 41.23 119.17 38.86 109.06 39.10 99.00 C 39.20 83.34 45.77 67.90 56.91 56.91 C 66.79 46.89 80.22 40.62 94.22 39.32 Z" />
  <path
     id="path4671"
     fill="#ffffff"
     d="M 92.18 45.15 C 104.19 43.45 116.74 45.71 127.28 51.75 C 139.12 58.43 148.33 69.56 152.59 82.48 C 157.30 96.68 156.06 112.70 149.00 125.91 C 143.84 135.68 135.68 143.84 125.91 149.00 C 112.93 155.95 97.21 157.26 83.19 152.82 C 69.97 148.67 58.55 139.34 51.75 127.28 C 45.48 116.33 43.28 103.23 45.36 90.81 C 47.09 80.21 52.03 70.20 59.34 62.35 C 67.91 53.05 79.65 46.86 92.18 45.15 Z" />
  <path
     id="path4673"
     fill="#000000"
     d="M 89.51 51.72 C 101.44 49.16 114.21 51.06 124.75 57.23 C 136.21 63.82 144.78 75.13 147.92 87.97 C 150.94 100.07 149.27 113.23 143.13 124.11 C 138.58 132.27 131.70 139.05 123.47 143.49 C 112.44 149.49 99.16 150.95 87.04 147.68 C 74.58 144.36 63.66 135.93 57.23 124.75 C 48.68 110.18 48.41 91.36 56.51 76.53 C 63.25 63.95 75.55 54.67 89.51 51.72 Z" />
  <path
     id="path4675"
     fill="#a29061"
     d="M 95.00 67.64 C 101.27 67.68 107.54 67.69 113.82 67.71 C 113.81 70.13 113.80 72.54 113.79 74.96 C 107.52 75.03 101.25 74.85 94.98 74.95 C 92.82 75.22 91.16 74.56 90.27 77.06 C 94.72 81.25 100.54 84.00 105.53 87.53 C 108.74 84.37 111.94 81.57 116.47 80.56 C 121.09 79.41 125.20 80.59 129.56 82.02 C 128.41 84.15 127.23 86.27 126.04 88.38 C 123.76 87.98 121.28 87.33 118.97 87.55 C 116.35 87.95 113.92 89.66 111.69 91.00 C 113.65 92.70 115.93 94.43 117.44 96.55 C 119.54 99.57 119.72 103.48 118.91 106.96 C 118.27 109.74 116.06 111.74 114.30 113.85 C 117.04 114.54 120.21 115.69 123.01 115.01 C 125.97 114.41 128.22 112.33 130.53 110.53 C 132.41 111.82 134.29 113.12 136.16 114.42 C 132.19 119.11 127.42 122.58 121.02 122.63 C 114.40 122.85 109.21 119.37 105.16 114.41 C 102.40 114.34 99.64 114.31 96.87 114.28 C 96.86 118.32 96.86 122.36 96.87 126.40 C 94.42 126.39 91.96 126.39 89.51 126.40 C 89.49 122.40 89.50 118.39 89.53 114.39 C 85.92 114.32 82.31 114.30 78.70 114.25 C 78.63 118.31 78.63 122.37 78.56 126.42 C 76.07 126.41 73.58 126.39 71.09 126.38 C 71.10 122.36 71.10 118.34 71.10 114.32 C 69.36 114.31 67.62 114.31 65.88 114.30 C 65.88 111.74 65.88 109.18 65.89 106.63 C 67.62 106.62 69.35 106.61 71.08 106.61 C 71.10 103.17 70.87 99.57 71.47 96.18 C 72.33 92.02 75.37 88.78 79.50 87.74 C 84.53 86.49 91.04 87.15 94.39 91.59 C 97.78 95.72 96.72 101.60 96.87 106.58 C 98.43 106.61 100.00 106.64 101.56 106.68 C 101.18 102.31 101.30 98.19 102.22 93.90 C 97.66 90.74 93.02 87.69 88.39 84.63 C 86.67 83.40 84.71 82.19 83.89 80.15 C 82.37 76.39 84.11 71.60 87.31 69.26 C 89.54 67.61 92.35 67.72 95.00 67.64 Z" />
  <path
     id="path4677"
     fill="#000000"
     d="M 89.22 98.77 C 89.68 101.32 89.51 104.03 89.56 106.62 C 85.88 106.62 82.20 106.61 78.52 106.57 C 78.61 103.78 78.41 100.82 79.02 98.09 C 80.34 93.61 88.49 94.05 89.22 98.77 Z" />
  <path
     id="path4679"
     fill="#000000"
     d="M 108.53 97.43 C 109.55 98.82 111.03 100.27 111.54 101.96 C 111.89 103.65 110.52 105.42 109.75 106.84 C 107.14 104.13 108.32 100.78 108.53 97.43 Z" />
  <path
     style="fill:#ffffff;fill-opacity:0"
     id="path4681"
     fill="#ffffff"
     d="M 0.00 106.53 C 0.92 116.46 2.82 126.24 6.44 135.57 C 14.48 156.81 29.93 175.06 49.57 186.45 C 62.90 194.33 77.86 198.65 93.24 200.00 L 0.00 200.00 L 0.00 106.53 Z" />
  <path
     style="fill:#ffffff;fill-opacity:0"
     id="path4683"
     fill="#ffffff"
     d="M 200.00 106.76 L 200.00 200.00 L 106.53 200.00 C 116.44 199.09 126.20 197.18 135.51 193.58 C 156.77 185.55 175.05 170.09 186.45 150.43 C 194.33 137.10 198.65 122.14 200.00 106.76 Z" />
  <path
     id="path4685"
     fill="#000000"
     d="M 126.18 158.02 C 126.56 158.85 126.94 159.67 127.32 160.50 C 124.24 161.64 122.32 162.26 121.03 165.58 C 123.58 164.54 126.17 162.62 129.06 163.31 C 133.18 164.29 134.32 170.48 131.09 173.07 C 128.85 175.05 124.89 176.34 122.08 175.01 C 118.26 172.70 117.03 166.73 118.77 162.81 C 120.27 159.71 123.25 159.19 126.18 158.02 Z" />
  <path
     id="path4687"
     fill="#000000"
     d="M 79.40 160.42 C 77.56 165.60 75.51 170.71 73.54 175.84 C 72.30 175.37 71.06 174.89 69.82 174.41 C 71.22 170.65 72.65 166.91 74.08 163.16 C 73.08 162.61 72.09 162.07 71.09 161.52 C 73.72 160.13 76.51 160.25 79.40 160.42 Z" />
  <path
     id="path4689"
     fill="#000000"
     d="M 87.47 163.58 C 90.73 162.62 96.42 163.58 97.45 167.44 C 98.44 171.29 97.07 176.36 93.62 178.61 C 91.23 180.20 87.92 179.39 85.24 179.15 C 85.25 178.19 85.25 177.23 85.26 176.27 C 88.92 176.83 90.35 177.20 93.46 174.70 C 90.89 174.49 87.74 175.04 85.53 173.45 C 82.07 170.91 83.33 164.70 87.47 163.58 Z" />
  <path
     id="path4691"
     fill="#000000"
     d="M 105.43 163.50 C 108.02 162.88 111.04 162.92 112.84 165.17 C 114.90 167.72 115.13 171.76 114.74 174.87 C 113.64 180.66 103.94 181.58 101.97 175.89 C 100.58 171.60 99.88 165.04 105.43 163.50 Z" />
  <path
     id="path4693"
     fill="#ffffff"
     d="M 89.27 166.28 C 90.73 165.25 93.72 166.13 93.60 168.17 C 93.90 170.55 92.66 172.72 89.98 172.28 C 87.37 171.76 87.47 167.41 89.27 166.28 Z" />
  <path
     id="path4695"
     fill="#ffffff"
     d="M 105.70 165.48 C 106.78 165.75 107.87 166.00 108.96 166.22 C 110.73 168.92 110.77 173.09 110.49 176.20 C 109.69 176.67 108.85 177.05 107.95 177.35 C 105.00 175.68 105.34 169.94 105.51 167.02 L 105.70 165.48 Z" />
  <path
     id="path4697"
     fill="#ffffff"
     d="M 124.51 166.60 C 128.18 164.62 130.96 171.60 126.81 172.60 C 123.55 173.95 121.40 167.93 124.51 166.60 Z" />
</svg>
