<?xml version="1.0" encoding="UTF-8" standalone="no"?>
<svg
   xmlns:dc="http://purl.org/dc/elements/1.1/"
   xmlns:cc="http://creativecommons.org/ns#"
   xmlns:rdf="http://www.w3.org/1999/02/22-rdf-syntax-ns#"
   xmlns:svg="http://www.w3.org/2000/svg"
   xmlns="http://www.w3.org/2000/svg"
   xmlns:sodipodi="http://sodipodi.sourceforge.net/DTD/sodipodi-0.dtd"
   xmlns:inkscape="http://www.inkscape.org/namespaces/inkscape"
   inkscape:version="1.0 (4035a4f, 2020-05-01)"
   sodipodi:docname="584.svg"
   id="svg14749"
   height="200.0pt"
   width="200.0pt"
   viewBox="0 0 200 200"
   version="1.1">
  <metadata
     id="metadata14755">
    <rdf:RDF>
      <cc:Work
         rdf:about="">
        <dc:format>image/svg+xml</dc:format>
        <dc:type
           rdf:resource="http://purl.org/dc/dcmitype/StillImage" />
      </cc:Work>
    </rdf:RDF>
  </metadata>
  <defs
     id="defs14753" />
  <sodipodi:namedview
     inkscape:current-layer="svg14749"
     inkscape:cy="133.33333"
     inkscape:cx="133.33333"
     inkscape:zoom="1.75125"
     showgrid="false"
     id="namedview14751"
     inkscape:window-height="480"
     inkscape:window-width="640"
     inkscape:pageshadow="2"
     inkscape:pageopacity="0"
     guidetolerance="10"
     gridtolerance="10"
     objecttolerance="10"
     borderopacity="1"
     bordercolor="#666666"
     pagecolor="#ffffff" />
  <path
     style="fill:#ffffff;fill-opacity:0"
     id="path14729"
     fill="#ffffff"
     d="M 0.00 0.00 L 21.57 0.00 C 21.41 31.31 21.55 62.68 21.50 94.00 C 21.41 112.83 26.69 131.51 36.36 147.65 C 50.88 171.98 74.02 189.40 100.02 199.99 C 124.65 189.98 146.72 173.81 161.36 151.38 C 172.54 134.41 178.59 114.33 178.59 94.01 C 178.54 62.69 178.68 31.32 178.52 0.00 L 200.00 0.00 L 200.00 200.00 L 0.00 200.00 L 0.00 0.00 Z" />
  <path
     id="path14731"
     fill="#000000"
     d="M 21.57 0.00 L 178.52 0.00 C 178.68 31.32 178.54 62.69 178.59 94.01 C 178.59 114.33 172.54 134.41 161.36 151.38 C 146.72 173.81 124.65 189.98 100.02 199.99 C 74.02 189.40 50.88 171.98 36.36 147.65 C 26.69 131.51 21.41 112.83 21.50 94.00 C 21.55 62.68 21.41 31.31 21.57 0.00 Z" />
  <path
     id="path14733"
     fill="#ffffff"
     d="M 23.78 2.35 C 61.63 2.41 99.48 2.31 137.33 2.40 C 99.47 24.09 61.59 46.00 23.78 67.82 C 23.78 45.99 23.78 24.17 23.78 2.35 Z" />
  <path
     id="path14735"
     fill="#024a96"
     d="M 137.33 2.40 C 150.29 2.30 163.26 2.43 176.22 2.34 C 176.24 4.18 176.26 6.02 176.27 7.86 C 158.42 18.35 140.36 28.49 122.51 38.98 C 121.42 37.37 120.34 35.39 118.79 34.20 C 116.63 32.61 113.71 32.37 111.14 31.86 C 109.55 30.37 108.49 28.47 106.04 28.58 C 97.19 28.63 90.61 33.71 84.97 40.00 C 82.77 43.88 81.11 48.06 78.73 51.87 C 76.25 52.29 73.62 52.50 71.24 53.33 C 69.36 55.07 67.96 57.37 66.29 59.31 C 59.96 66.99 52.07 72.04 43.66 77.12 C 46.37 78.06 49.11 78.90 51.88 79.67 C 42.48 85.01 33.16 90.46 23.77 95.81 C 23.76 86.48 23.79 77.15 23.78 67.82 C 61.59 46.00 99.47 24.09 137.33 2.40 Z" />
  <path
     id="path14737"
     fill="#ffffff"
     d="M 176.27 7.86 C 176.27 17.53 176.26 27.21 176.27 36.88 C 166.88 42.31 157.47 47.68 148.09 53.12 C 144.21 55.39 140.28 57.44 136.63 60.09 C 139.94 61.17 142.68 59.89 145.97 59.60 C 149.18 59.24 152.48 59.29 155.70 59.39 C 158.38 59.51 161.05 59.65 163.73 59.77 C 159.87 63.31 155.70 66.46 151.59 69.70 C 152.33 70.18 153.07 70.66 153.81 71.14 C 161.27 66.75 168.82 62.52 176.29 58.13 C 176.24 66.39 176.28 74.66 176.26 82.92 C 170.26 86.36 164.30 89.86 158.26 93.22 C 156.88 94.06 155.28 94.85 154.17 96.03 C 152.52 102.39 152.64 109.42 152.78 115.95 C 147.37 112.97 144.24 108.28 140.87 103.33 C 136.94 105.56 133.02 107.82 129.12 110.11 C 133.61 115.34 139.49 117.23 145.64 119.76 C 140.84 120.16 136.32 120.08 131.71 121.66 C 122.11 124.45 113.27 130.23 105.87 136.85 C 100.64 141.46 97.86 147.17 93.76 152.66 C 95.22 144.89 96.79 137.47 95.39 129.53 C 79.00 139.00 62.57 148.40 46.21 157.93 C 41.73 152.30 37.99 146.18 34.61 139.84 C 39.92 136.72 45.29 133.70 50.62 130.61 C 52.51 129.55 54.08 128.13 55.59 126.58 C 58.26 123.82 61.29 121.45 63.92 118.65 C 61.30 119.91 58.94 121.55 56.61 123.28 C 57.11 120.74 57.57 118.21 58.14 115.68 C 58.56 113.92 59.07 112.17 59.56 110.42 C 56.81 111.49 54.17 112.15 51.24 112.59 C 51.55 111.18 51.85 109.78 52.15 108.37 C 44.08 113.13 35.92 117.74 27.84 122.48 C 25.31 113.81 23.97 104.83 23.77 95.81 C 33.16 90.46 42.48 85.01 51.88 79.67 C 49.11 78.90 46.37 78.06 43.66 77.12 C 52.07 72.04 59.96 66.99 66.29 59.31 C 67.96 57.37 69.36 55.07 71.24 53.33 C 73.62 52.50 76.25 52.29 78.73 51.87 C 81.11 48.06 82.77 43.88 84.97 40.00 C 90.61 33.71 97.19 28.63 106.04 28.58 C 108.49 28.47 109.55 30.37 111.14 31.86 C 113.71 32.37 116.63 32.61 118.79 34.20 C 120.34 35.39 121.42 37.37 122.51 38.98 C 140.36 28.49 158.42 18.35 176.27 7.86 Z" />
  <path
     id="path14739"
     fill="#000000"
     d="M 107.06 30.57 C 109.01 31.25 108.28 32.74 108.71 34.41 C 111.86 34.15 114.66 33.73 117.44 35.58 C 119.49 36.81 119.89 38.85 120.84 40.90 C 118.92 40.58 116.93 40.07 114.97 40.00 C 113.39 40.01 111.88 41.38 110.52 42.07 C 120.09 42.16 129.47 43.06 139.02 42.79 C 144.94 42.57 150.49 41.06 155.98 38.93 C 149.59 47.02 141.42 52.40 133.75 59.09 C 135.34 60.44 136.94 61.80 138.53 63.16 C 145.29 60.77 151.99 61.10 159.03 61.42 C 155.30 64.42 151.47 67.27 147.96 70.52 C 149.71 71.29 152.31 71.89 153.41 73.58 C 155.17 76.13 155.43 79.91 156.34 82.85 C 156.97 85.32 159.01 87.38 160.48 89.42 C 158.25 88.97 156.08 88.43 153.91 87.76 C 151.62 95.89 150.83 104.23 150.67 112.64 C 147.09 109.29 144.71 105.11 141.61 101.39 C 139.16 98.01 134.08 98.86 131.20 101.19 C 128.94 102.95 125.63 105.51 126.44 108.79 C 128.55 113.43 132.72 116.14 137.13 118.32 C 129.61 120.02 122.38 122.58 115.93 126.89 C 108.66 131.54 102.04 136.79 97.27 144.10 C 98.57 135.80 97.80 125.76 93.15 118.55 C 90.58 122.27 89.55 126.10 89.03 130.53 C 87.00 131.16 84.99 131.21 82.95 130.61 C 74.65 128.36 66.60 126.29 57.91 126.68 C 61.97 123.13 66.22 119.64 69.90 115.70 C 66.00 116.15 62.84 117.12 59.30 118.79 C 60.28 114.91 61.28 111.04 62.18 107.14 C 59.24 108.27 56.37 109.56 53.41 110.63 C 54.80 107.39 56.33 104.23 57.54 100.92 C 55.14 101.64 52.78 102.46 50.40 103.26 C 51.96 101.14 53.61 99.10 55.19 96.99 C 52.05 97.26 49.06 97.75 46.07 98.79 C 45.77 100.30 46.27 102.95 44.92 103.96 C 42.48 104.84 39.79 104.84 37.44 103.69 C 36.75 99.84 36.31 95.29 36.38 91.38 C 39.50 89.70 42.63 90.04 45.94 90.80 C 45.96 92.50 45.97 94.19 45.98 95.89 C 50.21 94.60 54.64 94.96 58.88 93.95 C 60.23 90.96 57.92 88.07 58.33 85.32 C 61.12 82.98 66.10 83.77 69.49 83.77 C 69.76 82.00 69.89 80.22 70.00 78.44 C 62.57 78.47 55.35 78.82 48.08 76.81 C 57.39 70.84 65.92 64.21 72.09 54.86 C 78.10 53.49 87.38 54.35 91.25 48.77 C 87.34 49.04 84.09 50.72 80.63 52.34 C 82.03 49.87 83.27 47.25 84.88 44.90 C 86.08 43.15 88.23 42.02 89.97 40.81 C 88.40 41.26 86.83 41.70 85.26 42.14 C 91.61 35.91 97.39 29.99 107.06 30.57 Z" />
  <path
     id="path14741"
     fill="#e00712"
     d="M 176.27 36.88 C 176.28 40.49 176.26 44.10 176.19 47.71 C 169.30 51.49 162.55 55.54 155.70 59.39 C 152.48 59.29 149.18 59.24 145.97 59.60 C 142.68 59.89 139.94 61.17 136.63 60.09 C 140.28 57.44 144.21 55.39 148.09 53.12 C 157.47 47.68 166.88 42.31 176.27 36.88 Z" />
  <path
     id="path14743"
     fill="#024a96"
     d="M 176.26 82.92 C 176.31 92.63 176.51 102.16 174.73 111.76 C 137.76 133.21 100.70 154.51 63.65 175.83 C 57.25 170.47 51.35 164.51 46.21 157.93 C 62.57 148.40 79.00 139.00 95.39 129.53 C 96.79 137.47 95.22 144.89 93.76 152.66 C 97.86 147.17 100.64 141.46 105.87 136.85 C 113.27 130.23 122.11 124.45 131.71 121.66 C 136.32 120.08 140.84 120.16 145.64 119.76 C 139.49 117.23 133.61 115.34 129.12 110.11 C 133.02 107.82 136.94 105.56 140.87 103.33 C 144.24 108.28 147.37 112.97 152.78 115.95 C 152.64 109.42 152.52 102.39 154.17 96.03 C 155.28 94.85 156.88 94.06 158.26 93.22 C 164.30 89.86 170.26 86.36 176.26 82.92 Z" />
  <path
     id="path14745"
     fill="#e00712"
     d="M 52.15 108.37 C 51.85 109.78 51.55 111.18 51.24 112.59 C 54.17 112.15 56.81 111.49 59.56 110.42 C 59.07 112.17 58.56 113.92 58.14 115.68 C 49.03 120.90 39.94 126.16 30.85 131.42 C 29.80 128.45 28.74 125.50 27.84 122.48 C 35.92 117.74 44.08 113.13 52.15 108.37 Z" />
  <path
     id="path14747"
     fill="#ffffff"
     d="M 174.73 111.76 C 172.38 125.01 167.36 137.74 160.12 149.08 C 145.85 171.48 124.32 187.38 100.03 197.54 C 86.94 192.04 74.59 184.91 63.65 175.83 C 100.70 154.51 137.76 133.21 174.73 111.76 Z" />
</svg>
